<?xml version="1.0" encoding="UTF-8"?>
<svg width="349px" height="230px" viewBox="0 0 349 230" version="1.1" xmlns="http://www.w3.org/2000/svg" xmlns:xlink="http://www.w3.org/1999/xlink">
    <!-- Generator: Sketch 53.2 (72643) - https://sketchapp.com -->
    <title>port-card-2</title>
    <desc>Created with Sketch.</desc>
    <defs>
        <rect id="path-1" x="0" y="0" width="299.376" height="178.848" rx="2.88"></rect>
        <filter x="-24.9%" y="-14.3%" width="133.4%" height="157.0%" filterUnits="objectBoundingBox" id="filter-2">
            <feOffset dx="-36" dy="38" in="SourceAlpha" result="shadowOffsetOuter1"></feOffset>
            <feGaussianBlur stdDeviation="6.5" in="shadowOffsetOuter1" result="shadowBlurOuter1"></feGaussianBlur>
            <feColorMatrix values="0 0 0 0 0   0 0 0 0 0   0 0 0 0 0  0 0 0 0.121530813 0" type="matrix" in="shadowBlurOuter1"></feColorMatrix>
        </filter>
    </defs>
    <g id="final-graphics" stroke="none" stroke-width="1" fill="none" fill-rule="evenodd" opacity="0.710263207">
        <g id="port-card-2" transform="translate(49.000000, 0.400000)">
            <g id="Group-30">
                <g id="Group-29" transform="translate(0.000000, 0.000000)">
                    <g id="Mask">
                        <use fill="black" fill-opacity="1" filter="url(#filter-2)" xlink:href="#path-1"></use>
                        <use fill="#FFFFFF" fill-rule="evenodd" xlink:href="#path-1"></use>
                    </g>
                    <g id="part-header" transform="translate(23.040000, 84.240000)">
                        <polygon id="Rectangle-3" fill="#F9FAFC" points="0 0 263.182255 0 263.182255 31.4928 0 31.4928"></polygon>
                        <g id="Group" transform="translate(11.897280, 9.698240)">
                            <path d="M0.923324062,1.24912323 L2.99960719,1.24912323 C3.96280325,1.24912323 4.65887739,1.38945433 5.08785047,1.67012073 C5.51682355,1.95078714 5.73130687,2.39410583 5.73130687,3.00009011 C5.73130687,3.40833215 5.62605855,3.74799719 5.41555875,4.01909542 C5.20505895,4.29019365 4.90207135,4.46082351 4.50658687,4.53099011 L4.50658687,4.57883073 C4.99775308,4.67132307 5.35894619,4.85391296 5.59017703,5.12660589 C5.82140787,5.39929882 5.93702156,5.76846528 5.93702156,6.23411636 C5.93702156,6.86242638 5.71775422,7.35438255 5.27921297,7.70999964 C4.84067171,8.06561673 4.23070984,8.24342261 3.44930906,8.24342261 L0.923324062,8.24342261 L0.923324062,1.24912323 Z M2.066715,4.13869698 L3.16704937,4.13869698 C3.64545802,4.13869698 3.99469109,4.06295008 4.21475906,3.91145401 C4.43482704,3.75995794 4.54485937,3.50241849 4.54485937,3.13882792 C4.54485937,2.81032065 4.42605634,2.57271459 4.18844672,2.42600261 C3.95083709,2.27929063 3.57369727,2.20593573 3.05701594,2.20593573 L2.066715,2.20593573 L2.066715,4.13869698 Z M2.066715,5.06680511 L2.066715,7.28182605 L3.28186687,7.28182605 C3.76027552,7.28182605 4.12146862,7.19013243 4.36545703,7.00674245 C4.60944544,6.82335247 4.73143781,6.53391959 4.73143781,6.13843511 C4.73143781,5.77484454 4.60705343,5.50534505 4.35828094,5.32992855 C4.10950844,5.15451204 3.73157129,5.06680511 3.22445812,5.06680511 L2.066715,5.06680511 Z M10.5823462,8.24342261 L10.3574953,7.50667698 L10.3192228,7.50667698 C10.0640715,7.82880547 9.80732942,8.04807281 9.54898875,8.16448558 C9.29064808,8.28089835 8.9589564,8.33910386 8.55390375,8.33910386 C8.03403303,8.33910386 7.62818912,8.19877276 7.33635984,7.91810636 C7.04453057,7.63743996 6.89861812,7.24036674 6.89861812,6.7268748 C6.89861812,6.18148894 7.10114141,5.77006368 7.50619406,5.49258667 C7.91124671,5.21510966 8.5283846,5.06361586 9.35762625,5.03810073 L10.2713822,5.00939636 L10.2713822,4.72713667 C10.2713822,4.38906123 10.1924459,4.13630579 10.0345711,3.96886276 C9.87669624,3.80141974 9.63191416,3.71769948 9.3002175,3.71769948 C9.02911927,3.71769948 8.76918781,3.75756627 8.52041531,3.83730105 C8.27164282,3.91703582 8.03244209,4.01112144 7.80280594,4.11956073 L7.43921719,3.31583823 C7.72626237,3.16593686 8.04041267,3.05191784 8.3816775,2.97377776 C8.72294233,2.89563769 9.04506599,2.85656823 9.34805812,2.85656823 C10.0210196,2.85656823 10.5289225,3.00327802 10.871782,3.29670198 C11.2146416,3.59012595 11.3860687,4.05098603 11.3860687,4.67929605 L11.3860687,8.24342261 L10.5823462,8.24342261 Z M8.90792437,7.47797261 C9.31616642,7.47797261 9.64387142,7.36395359 9.89104922,7.13591214 C10.138227,6.90787069 10.2618141,6.58813904 10.2618141,6.17670761 L10.2618141,5.71743761 L9.58247719,5.74614198 C9.05303829,5.76527833 8.66792511,5.8537826 8.42712609,6.01165745 C8.18632708,6.1695323 8.06592937,6.41112504 8.06592937,6.73644292 C8.06592937,6.97245785 8.13609492,7.15504774 8.27642812,7.28421808 C8.41676133,7.41338841 8.62725797,7.47797261 8.90792437,7.47797261 Z M16.5097997,6.73644292 C16.5097997,7.25312425 16.3216284,7.64940014 15.9452803,7.92528245 C15.5689322,8.20116477 15.0299332,8.33910386 14.3282672,8.33910386 C13.6234118,8.33910386 13.0573034,8.23226086 12.629925,8.01857167 L12.629925,7.04740698 C13.2518562,7.33445217 13.830722,7.47797261 14.3665397,7.47797261 C15.0586375,7.47797261 15.4046812,7.26907064 15.4046812,6.85126042 C15.4046812,6.717306 15.3664091,6.60567899 15.2898637,6.51637605 C15.2133184,6.4270731 15.0873393,6.33458215 14.9119228,6.23890042 C14.7365063,6.14321869 14.4925216,6.03478103 14.1799612,5.91358417 C13.5707876,5.67756924 13.158565,5.44155785 12.9432811,5.20554292 C12.7279972,4.96952799 12.6203569,4.66335105 12.6203569,4.28700292 C12.6203569,3.83410941 12.8029468,3.48248433 13.168132,3.23211714 C13.5333173,2.98174995 14.0300575,2.85656823 14.6583675,2.85656823 C15.2802987,2.85656823 15.8687325,2.98254729 16.4236866,3.23450917 L16.0600978,4.08128823 C15.4891968,3.8452733 15.0092007,3.72726761 14.620095,3.72726761 C14.0268683,3.72726761 13.7302594,3.89630279 13.7302594,4.23437823 C13.7302594,4.40022656 13.8076009,4.54055766 13.9622864,4.65537573 C14.1169719,4.77019381 14.4542449,4.92806629 14.9741156,5.12899792 C15.4110622,5.29803564 15.7284018,5.45271878 15.9261441,5.59305198 C16.1238863,5.73338519 16.2705961,5.89524435 16.3662778,6.07863433 C16.4619595,6.26202431 16.5097997,6.48129165 16.5097997,6.73644292 Z M18.8492062,8.24342261 L17.7249516,8.24342261 L17.7249516,2.95224948 L18.8492062,2.95224948 L18.8492062,8.24342261 Z M17.6579747,1.55051917 C17.6579747,1.34958754 17.7129909,1.1949044 17.8230248,1.08646511 C17.9330588,0.978025817 18.090134,0.923806984 18.294255,0.923806984 C18.4919972,0.923806984 18.645883,0.978025817 18.755917,1.08646511 C18.865951,1.1949044 18.9209672,1.34958754 18.9209672,1.55051917 C18.9209672,1.74188263 18.865951,1.89257909 18.755917,2.00261308 C18.645883,2.11264707 18.4919972,2.16766323 18.294255,2.16766323 C18.090134,2.16766323 17.9330588,2.11264707 17.8230248,2.00261308 C17.7129909,1.89257909 17.6579747,1.74188263 17.6579747,1.55051917 Z M22.5903431,8.33910386 C21.789806,8.33910386 21.1814388,8.10548448 20.7652233,7.6382387 C20.3490078,7.17099293 20.1409031,6.50043354 20.1409031,5.62654042 C20.1409031,4.73670035 20.3585758,4.05258625 20.7939277,3.57417761 C21.2292795,3.09576897 21.8583774,2.85656823 22.6812403,2.85656823 C23.2393837,2.85656823 23.7417053,2.96022188 24.18822,3.1675323 L23.8485516,4.07172011 C23.3733323,3.88673543 22.9810431,3.79424448 22.6716722,3.79424448 C21.756317,3.79424448 21.2986462,4.40181435 21.2986462,5.6169723 C21.2986462,6.21019901 21.4126653,6.65590971 21.6407067,6.95411776 C21.8687482,7.25232582 22.2028319,7.40142761 22.6429678,7.40142761 C23.1437022,7.40142761 23.6173196,7.27704323 24.0638344,7.02827073 L24.0638344,8.00900355 C23.8629027,8.12701101 23.6484194,8.2115286 23.420378,8.26255886 C23.1923365,8.31358911 22.915661,8.33910386 22.5903431,8.33910386 Z M28.9770666,8.24342261 L27.8528119,8.24342261 L27.8528119,2.95224948 L28.9770666,2.95224948 L28.9770666,8.24342261 Z M27.785835,1.55051917 C27.785835,1.34958754 27.8408512,1.1949044 27.9508852,1.08646511 C28.0609191,0.978025817 28.2179943,0.923806984 28.4221153,0.923806984 C28.6198576,0.923806984 28.7737434,0.978025817 28.8837773,1.08646511 C28.9938113,1.1949044 29.0488275,1.34958754 29.0488275,1.55051917 C29.0488275,1.74188263 28.9938113,1.89257909 28.8837773,2.00261308 C28.7737434,2.11264707 28.6198576,2.16766323 28.4221153,2.16766323 C28.2179943,2.16766323 28.0609191,2.11264707 27.9508852,2.00261308 C27.8408512,1.89257909 27.785835,1.74188263 27.785835,1.55051917 Z M35.2394044,8.24342261 L34.1103656,8.24342261 L34.1103656,4.99026011 C34.1103656,4.58201807 34.02824,4.2774358 33.8639864,4.07650417 C33.6997328,3.87557254 33.439004,3.77510823 33.0817922,3.77510823 C32.6065729,3.77510823 32.2589345,3.91543933 32.0388666,4.19610573 C31.8187986,4.47677214 31.7087662,4.94720025 31.7087662,5.60740417 L31.7087662,8.24342261 L30.5845116,8.24342261 L30.5845116,2.95224948 L31.4647791,2.95224948 L31.6226531,3.64593855 L31.6800619,3.64593855 C31.8395314,3.39397666 32.0659748,3.19942673 32.3593987,3.06228292 C32.6528227,2.92513911 32.9781357,2.85656823 33.3353475,2.85656823 C34.6047251,2.85656823 35.2394044,3.50241021 35.2394044,4.79411355 L35.2394044,8.24342261 Z M39.4589475,3.80381261 L38.1672506,3.80381261 L38.1672506,8.24342261 L37.0382119,8.24342261 L37.0382119,3.80381261 L36.1675125,3.80381261 L36.1675125,3.27756573 L37.0382119,2.93311323 L37.0382119,2.58866073 C37.0382119,1.96354011 37.1849217,1.50028802 37.4783456,1.19889058 C37.7717696,0.897493133 38.2198723,0.746796671 38.8226672,0.746796671 C39.2181517,0.746796671 39.6072515,0.812178205 39.9899784,0.942943234 L39.6933666,1.79450636 C39.4158896,1.70520341 39.1511741,1.66055261 38.8992122,1.66055261 C38.6440609,1.66055261 38.4582817,1.73948885 38.3418689,1.8973637 C38.2254561,2.05523855 38.1672506,2.29204728 38.1672506,2.60779698 L38.1672506,2.95224948 L39.4589475,2.95224948 L39.4589475,3.80381261 Z M45.0515166,5.58826792 C45.0515166,6.45259287 44.8298572,7.12713893 44.3865319,7.61192636 C43.9432065,8.09671378 43.3260686,8.33910386 42.5350997,8.33910386 C42.0407441,8.33910386 41.6038041,8.22747685 41.2242666,8.00421948 C40.844729,7.78096212 40.5529041,7.46043314 40.3487831,7.04262292 C40.1446621,6.62481271 40.0426031,6.14003256 40.0426031,5.58826792 C40.0426031,4.73032176 40.2626678,4.0605597 40.7028037,3.57896167 C41.1429397,3.09736364 41.7632669,2.85656823 42.5638041,2.85656823 C43.3292579,2.85656823 43.9352331,3.10294499 44.3817478,3.59570589 C44.8282625,4.08846679 45.0515166,4.75264749 45.0515166,5.58826792 Z M41.2003462,5.58826792 C41.2003462,6.80980465 41.6516383,7.42056386 42.5542359,7.42056386 C43.4472654,7.42056386 43.8937734,6.80980465 43.8937734,5.58826792 C43.8937734,4.37948875 43.4440761,3.77510823 42.5446678,3.77510823 C42.072638,3.77510823 41.7305809,3.93138605 41.5184864,4.24394636 C41.3063919,4.55650667 41.2003462,5.00460938 41.2003462,5.58826792 Z" id="Basicinfo" fill="#282E2E" fill-rule="nonzero"></path>
                            <g transform="translate(222.000000, 0.000000)">
                                <rect id="Rectangle-15" fill-opacity="0" fill="#D8D8D8" x="0" y="0" width="17.449344" height="13.343616"></rect>
                                <path d="M12.2721683,2.73196708 L11.2593139,3.74482146 L9.18166388,1.66717146 L10.1945183,0.654317083 C10.2984013,0.550434064 10.4282531,0.498493333 10.5840776,0.498493333 C10.7399022,0.498493333 10.869754,0.550434064 10.973637,0.654317083 L12.2721683,1.95284833 C12.3760513,2.05673135 12.427992,2.18658318 12.427992,2.34240771 C12.427992,2.49823224 12.3760513,2.62808406 12.2721683,2.73196708 Z M2.455272,8.39356333 L8.5843395,2.26449583 L10.6619895,4.34214583 L4.532922,10.4712133 L2.455272,10.4712133 L2.455272,8.39356333 Z" id="e" fill="#0073E9" fill-rule="nonzero"></path>
                            </g>
                        </g>
                    </g>
                    <g id="Group-21" transform="translate(28.520000, 18.000000)">
                        <rect id="Rectangle" fill="#17BEBB" opacity="0.144159226" x="12.52" y="-2.27373675e-13" width="36.288" height="40.32"></rect>
                        <rect id="Rectangle" fill="#17BEBB" x="5.032" y="6.48" width="36.288" height="40.32"></rect>
                        <path d="M23.176,26.352 C25.64236,26.352 27.64,24.35436 27.64,21.888 C27.64,19.42164 25.64236,17.424 23.176,17.424 C20.70964,17.424 18.712,19.42164 18.712,21.888 C18.712,24.35436 20.70964,26.352 23.176,26.352 Z M23.176,28.584 C20.19628,28.584 14.248,30.07944 14.248,33.048 L14.248,35.28 L32.104,35.28 L32.104,33.048 C32.104,30.07944 26.15572,28.584 23.176,28.584 Z" id="Shape" fill="#FFFFFF" fill-rule="nonzero"></path>
                        <path d="M1,43.344 C0.522825976,43.344 0.136,42.957174 0.136,42.48 C0.136,42.002826 0.522825976,41.616 1,41.616 L10.3257143,41.616 C10.8028883,41.616 11.1897143,42.002826 11.1897143,42.48 C11.1897143,42.957174 10.8028883,43.344 10.3257143,43.344 L1,43.344 Z" id="Line" fill="#17BEBB" fill-rule="nonzero"></path>
                        <path d="M1,38.736 C0.522825976,38.736 0.136,38.349174 0.136,37.872 C0.136,37.394826 0.522825976,37.008 1,37.008 L10.3257143,37.008 C10.8028883,37.008 11.1897143,37.394826 11.1897143,37.872 C11.1897143,38.349174 10.8028883,38.736 10.3257143,38.736 L1,38.736 Z" id="Line" fill="#17BEBB" fill-rule="nonzero"></path>
                        <path d="M1,34.128 C0.522825976,34.128 0.136,33.741174 0.136,33.264 C0.136,32.786826 0.522825976,32.4 1,32.4 L10.3257143,32.4 C10.8028883,32.4 11.1897143,32.786826 11.1897143,33.264 C11.1897143,33.741174 10.8028883,34.128 10.3257143,34.128 L1,34.128 Z" id="Line" fill="#17BEBB" fill-rule="nonzero"></path>
                        <path d="M1,29.52 C0.522825976,29.52 0.136,29.133174 0.136,28.656 C0.136,28.178826 0.522825976,27.792 1,27.792 L10.3257143,27.792 C10.8028883,27.792 11.1897143,28.178826 11.1897143,28.656 C11.1897143,29.133174 10.8028883,29.52 10.3257143,29.52 L1,29.52 Z" id="Line" fill="#17BEBB" fill-rule="nonzero"></path>
                        <path d="M1,24.912 C0.522825976,24.912 0.136,24.525174 0.136,24.048 C0.136,23.570826 0.522825976,23.184 1,23.184 L10.3257143,23.184 C10.8028883,23.184 11.1897143,23.570826 11.1897143,24.048 C11.1897143,24.525174 10.8028883,24.912 10.3257143,24.912 L1,24.912 Z" id="Line" fill="#17BEBB" fill-rule="nonzero"></path>
                        <path d="M1,20.304 C0.522825976,20.304 0.136,19.917174 0.136,19.44 C0.136,18.962826 0.522825976,18.576 1,18.576 L10.3257143,18.576 C10.8028883,18.576 11.1897143,18.962826 11.1897143,19.44 C11.1897143,19.917174 10.8028883,20.304 10.3257143,20.304 L1,20.304 Z" id="Line" fill="#17BEBB" fill-rule="nonzero"></path>
                        <path d="M1,15.696 C0.522825976,15.696 0.136,15.309174 0.136,14.832 C0.136,14.354826 0.522825976,13.968 1,13.968 L10.3257143,13.968 C10.8028883,13.968 11.1897143,14.354826 11.1897143,14.832 C11.1897143,15.309174 10.8028883,15.696 10.3257143,15.696 L1,15.696 Z" id="Line" fill="#17BEBB" fill-rule="nonzero"></path>
                        <path d="M1,11.088 C0.522825976,11.088 0.136,10.701174 0.136,10.224 C0.136,9.74682598 0.522825976,9.36 1,9.36 L10.3257143,9.36 C10.8028883,9.36 11.1897143,9.74682598 11.1897143,10.224 C11.1897143,10.701174 10.8028883,11.088 10.3257143,11.088 L1,11.088 Z" id="Line" fill="#17BEBB" fill-rule="nonzero"></path>
                    </g>
                    <path d="M97.7042475,43.14315 C97.7042475,43.9778592 97.4308752,44.6175503 96.8841225,45.0622425 C96.3373698,45.5069347 95.55917,45.7292775 94.5495,45.7292775 L93.71844,45.7292775 L93.71844,48.72 L92.4117075,48.72 L92.4117075,40.726515 L94.713525,40.726515 C95.71226,40.726515 96.4603888,40.930633 96.9579338,41.338875 C97.4554787,41.747117 97.7042475,42.348536 97.7042475,43.14315 Z M93.71844,44.63031 L94.4128125,44.63031 C95.0834959,44.63031 95.5755659,44.5136712 95.8890375,44.28039 C96.2025091,44.0471088 96.3592425,43.6826125 96.3592425,43.18689 C96.3592425,42.7276177 96.2189114,42.3849911 95.938245,42.159 C95.6575786,41.9330089 95.220183,41.820015 94.626045,41.820015 L93.71844,41.820015 L93.71844,44.63031 Z M102.231338,42.563595 C102.490134,42.563595 102.703364,42.5818198 102.871035,42.61827 L102.745283,43.8156525 C102.563032,43.7719123 102.373493,43.7500425 102.176663,43.7500425 C101.662715,43.7500425 101.246278,43.9177108 100.927339,44.2530525 C100.6084,44.5883942 100.448933,45.0239673 100.448933,45.559785 L100.448933,48.72 L99.16407,48.72 L99.16407,42.672945 L100.17009,42.672945 L100.339583,43.7391075 L100.405193,43.7391075 C100.605669,43.3782507 100.867195,43.0921211 101.189779,42.88071 C101.512363,42.6692989 101.859546,42.563595 102.231338,42.563595 Z M109.131323,45.6855375 C109.131323,46.6733374 108.877998,47.4442472 108.37134,47.99829 C107.864682,48.5523328 107.159382,48.82935 106.255418,48.82935 C105.69044,48.82935 105.19108,48.7017763 104.757323,48.446625 C104.323565,48.1914737 103.990051,47.8251549 103.75677,47.3476575 C103.523489,46.8701601 103.40685,46.3161257 103.40685,45.6855375 C103.40685,44.7050276 103.658352,43.9395853 104.161365,43.3891875 C104.664378,42.8387897 105.373323,42.563595 106.288223,42.563595 C107.163027,42.563595 107.85557,42.8451684 108.365873,43.4083238 C108.876175,43.9714791 109.131323,44.7305427 109.131323,45.6855375 Z M104.729985,45.6855375 C104.729985,47.0815795 105.245747,47.77959 106.277288,47.77959 C107.297893,47.77959 107.808188,47.0815795 107.808188,45.6855375 C107.808188,44.3040756 107.294248,43.613355 106.266353,43.613355 C105.72689,43.613355 105.335967,43.7919582 105.093574,44.14917 C104.85118,44.5063818 104.729985,45.0184992 104.729985,45.6855375 Z M111.76119,48.72 L109.46484,42.672945 L110.82078,42.672945 L112.050968,46.1885475 C112.262379,46.7790405 112.389952,47.2565307 112.433693,47.6210325 L112.477433,47.6210325 C112.510238,47.3585912 112.637811,46.881101 112.860158,46.1885475 L114.090345,42.672945 L115.45722,42.672945 L113.149935,48.72 L111.76119,48.72 Z M117.660623,48.72 L116.37576,48.72 L116.37576,42.672945 L117.660623,42.672945 L117.660623,48.72 Z M116.299215,41.0709675 C116.299215,40.8413314 116.362091,40.6645506 116.487844,40.54062 C116.613597,40.4166894 116.793111,40.354725 117.026393,40.354725 C117.252384,40.354725 117.428253,40.4166894 117.554006,40.54062 C117.679759,40.6645506 117.742635,40.8413314 117.742635,41.0709675 C117.742635,41.2896686 117.679759,41.4618931 117.554006,41.5876463 C117.428253,41.7133994 117.252384,41.776275 117.026393,41.776275 C116.793111,41.776275 116.613597,41.7133994 116.487844,41.5876463 C116.362091,41.4618931 116.299215,41.2896686 116.299215,41.0709675 Z M121.53708,48.82935 C120.782561,48.82935 120.1939,48.5559777 119.771078,48.009225 C119.348255,47.4624723 119.136848,46.6952074 119.136848,45.7074075 C119.136848,44.7159625 119.350989,43.9441415 119.779279,43.3919213 C120.207568,42.839701 120.800786,42.563595 121.55895,42.563595 C122.353564,42.563595 122.958628,42.8570146 123.37416,43.4438625 L123.43977,43.4438625 C123.377805,43.0101053 123.346823,42.6674788 123.346823,42.4159725 L123.346823,40.21257 L124.637153,40.21257 L124.637153,48.72 L123.631133,48.72 L123.406965,47.9272125 L123.346823,47.9272125 C122.934935,48.5286405 122.331694,48.82935 121.53708,48.82935 Z M121.881533,47.790525 C122.41006,47.790525 122.794604,47.6419927 123.035175,47.3449238 C123.275746,47.0478548 123.399675,46.5658083 123.406965,45.89877 L123.406965,45.7183425 C123.406965,44.9565337 123.283036,44.4152566 123.035175,44.094495 C122.787314,43.7737334 122.399125,43.613355 121.870598,43.613355 C121.418615,43.613355 121.070521,43.7965144 120.826305,44.1628388 C120.582089,44.5291631 120.459983,45.0513041 120.459983,45.7292775 C120.459983,46.3999609 120.578444,46.911167 120.81537,47.2629113 C121.052296,47.6146555 121.40768,47.790525 121.881533,47.790525 Z M129.115035,48.82935 C128.17462,48.82935 127.439249,48.5550665 126.908899,48.0064913 C126.378549,47.457916 126.113378,46.7024973 126.113378,45.7402125 C126.113378,44.7524126 126.359413,43.9760353 126.85149,43.4110575 C127.343567,42.8460797 128.019708,42.563595 128.879933,42.563595 C129.678191,42.563595 130.30877,42.8059851 130.771688,43.2907725 C131.234605,43.7755599 131.46606,44.4425883 131.46606,45.2918775 L131.46606,45.98625 L127.436513,45.98625 C127.454738,46.5730979 127.613294,47.0241622 127.912185,47.3394563 C128.211076,47.6547503 128.63207,47.812395 129.175178,47.812395 C129.532389,47.812395 129.864992,47.7786791 130.172996,47.7112463 C130.481,47.6438134 130.811781,47.5317308 131.165348,47.374995 L131.165348,48.4192875 C130.851876,48.5687332 130.534764,48.6744372 130.214003,48.7364025 C129.893241,48.7983678 129.526922,48.82935 129.115035,48.82935 Z M128.879933,43.53681 C128.47169,43.53681 128.144555,43.6662062 127.898516,43.9250025 C127.652478,44.1837988 127.505768,44.5610525 127.458383,45.056775 L130.203068,45.056775 C130.195777,44.5574075 130.075494,44.1792425 129.842213,43.9222688 C129.608931,43.665295 129.288175,43.53681 128.879933,43.53681 Z M135.99315,42.563595 C136.251946,42.563595 136.465177,42.5818198 136.632848,42.61827 L136.507095,43.8156525 C136.324844,43.7719123 136.135306,43.7500425 135.938475,43.7500425 C135.424527,43.7500425 135.00809,43.9177108 134.689151,44.2530525 C134.370212,44.5883942 134.210745,45.0239673 134.210745,45.559785 L134.210745,48.72 L132.925883,48.72 L132.925883,42.672945 L133.931903,42.672945 L134.101395,43.7391075 L134.167005,43.7391075 C134.367481,43.3782507 134.629007,43.0921211 134.951591,42.88071 C135.274175,42.6692989 135.621358,42.563595 135.99315,42.563595 Z M142.701773,48.82935 C141.947254,48.82935 141.358592,48.5559777 140.93577,48.009225 C140.512948,47.4624723 140.30154,46.6952074 140.30154,45.7074075 C140.30154,44.7159625 140.515682,43.9441415 140.943971,43.3919213 C141.372261,42.839701 141.965479,42.563595 142.723643,42.563595 C143.518256,42.563595 144.12332,42.8570146 144.538853,43.4438625 L144.604463,43.4438625 C144.542497,43.0101053 144.511515,42.6674788 144.511515,42.4159725 L144.511515,40.21257 L145.801845,40.21257 L145.801845,48.72 L144.795825,48.72 L144.571658,47.9272125 L144.511515,47.9272125 C144.099628,48.5286405 143.496386,48.82935 142.701773,48.82935 Z M143.046225,47.790525 C143.574753,47.790525 143.959296,47.6419927 144.199868,47.3449238 C144.440439,47.0478548 144.564367,46.5658083 144.571658,45.89877 L144.571658,45.7183425 C144.571658,44.9565337 144.447729,44.4152566 144.199868,44.094495 C143.952006,43.7737334 143.563818,43.613355 143.03529,43.613355 C142.583308,43.613355 142.235214,43.7965144 141.990998,44.1628388 C141.746781,44.5291631 141.624675,45.0513041 141.624675,45.7292775 C141.624675,46.3999609 141.743136,46.911167 141.980063,47.2629113 C142.216989,47.6146555 142.572373,47.790525 143.046225,47.790525 Z M150.279728,48.82935 C149.339313,48.82935 148.603941,48.5550665 148.073591,48.0064913 C147.543241,47.457916 147.27807,46.7024973 147.27807,45.7402125 C147.27807,44.7524126 147.524105,43.9760353 148.016183,43.4110575 C148.50826,42.8460797 149.184401,42.563595 150.044625,42.563595 C150.842884,42.563595 151.473463,42.8059851 151.93638,43.2907725 C152.399297,43.7755599 152.630753,44.4425883 152.630753,45.2918775 L152.630753,45.98625 L148.601205,45.98625 C148.61943,46.5730979 148.777986,47.0241622 149.076878,47.3394563 C149.375769,47.6547503 149.796762,47.812395 150.33987,47.812395 C150.697082,47.812395 151.029685,47.7786791 151.337689,47.7112463 C151.645693,47.6438134 151.976473,47.5317308 152.33004,47.374995 L152.33004,48.4192875 C152.016568,48.5687332 151.699457,48.6744372 151.378695,48.7364025 C151.057933,48.7983678 150.691615,48.82935 150.279728,48.82935 Z M150.044625,43.53681 C149.636383,43.53681 149.309247,43.6662062 149.063209,43.9250025 C148.81717,44.1837988 148.67046,44.5610525 148.623075,45.056775 L151.36776,45.056775 C151.36047,44.5574075 151.240186,44.1792425 151.006905,43.9222688 C150.773624,43.665295 150.452867,43.53681 150.044625,43.53681 Z M159.186285,48.72 L157.895955,48.72 L157.895955,44.991165 C157.895955,44.5282477 157.808476,44.1828874 157.633515,43.9550738 C157.458554,43.7272601 157.185182,43.613355 156.81339,43.613355 C156.317668,43.613355 155.954082,43.7746446 155.722624,44.0972288 C155.491165,44.4198129 155.375438,44.9565337 155.375438,45.7074075 L155.375438,48.72 L154.090575,48.72 L154.090575,42.672945 L155.096595,42.672945 L155.277023,43.4657325 L155.342633,43.4657325 C155.510303,43.1777761 155.753605,42.9554333 156.072544,42.7986975 C156.391483,42.6419617 156.742311,42.563595 157.125038,42.563595 C158.054517,42.563595 158.670516,42.8807068 158.973053,43.51494 L159.060533,43.51494 C159.239138,43.2160485 159.490641,42.9827708 159.815048,42.8151 C160.139454,42.6474292 160.51124,42.563595 160.930418,42.563595 C161.652131,42.563595 162.177917,42.7458432 162.507791,43.110345 C162.837665,43.4748468 163.0026,44.0307038 163.0026,44.7779325 L163.0026,48.72 L161.717738,48.72 L161.717738,44.991165 C161.717738,44.5282477 161.629347,44.1828874 161.452564,43.9550738 C161.27578,43.7272601 161.001497,43.613355 160.629705,43.613355 C160.130338,43.613355 159.76493,43.7691772 159.533471,44.0808263 C159.302013,44.3924753 159.186285,44.8708768 159.186285,45.516045 L159.186285,48.72 Z M170.159558,45.6855375 C170.159558,46.6733374 169.906233,47.4442472 169.399575,47.99829 C168.892917,48.5523328 168.187617,48.82935 167.283653,48.82935 C166.718675,48.82935 166.219315,48.7017763 165.785558,48.446625 C165.3518,48.1914737 165.018286,47.8251549 164.785005,47.3476575 C164.551724,46.8701601 164.435085,46.3161257 164.435085,45.6855375 C164.435085,44.7050276 164.686587,43.9395853 165.1896,43.3891875 C165.692613,42.8387897 166.401558,42.563595 167.316458,42.563595 C168.191262,42.563595 168.883805,42.8451684 169.394108,43.4083238 C169.90441,43.9714791 170.159558,44.7305427 170.159558,45.6855375 Z M165.75822,45.6855375 C165.75822,47.0815795 166.273982,47.77959 167.305523,47.77959 C168.326128,47.77959 168.836423,47.0815795 168.836423,45.6855375 C168.836423,44.3040756 168.322483,43.613355 167.294588,43.613355 C166.755125,43.613355 166.364202,43.7919582 166.121809,44.14917 C165.879415,44.5063818 165.75822,45.0184992 165.75822,45.6855375 Z M176.742428,42.672945 L176.742428,43.3782525 L175.70907,43.569615 C175.80384,43.6971906 175.882207,43.8539241 175.944173,44.03982 C176.006138,44.2257159 176.03712,44.422544 176.03712,44.63031 C176.03712,45.2536081 175.822067,45.7438557 175.391955,46.1010675 C174.961843,46.4582793 174.369536,46.6368825 173.615018,46.6368825 C173.421832,46.6368825 173.246873,46.6223026 173.090138,46.5931425 C172.813116,46.7644584 172.674608,46.9649314 172.674608,47.1945675 C172.674608,47.3330782 172.739306,47.4369597 172.868704,47.506215 C172.998102,47.5754703 173.235936,47.6100975 173.582213,47.6100975 L174.63744,47.6100975 C175.304478,47.6100975 175.811128,47.7522511 176.157405,48.0365625 C176.503682,48.3208739 176.676818,48.7309323 176.676818,49.26675 C176.676818,49.9520134 176.394333,50.4805331 175.829355,50.852325 C175.264377,51.2241169 174.447905,51.41001 173.379915,51.41001 C172.556141,51.41001 171.927385,51.2642115 171.493628,50.97261 C171.05987,50.6810085 170.842995,50.2654827 170.842995,49.72602 C170.842995,49.3542281 170.960545,49.0416725 171.195649,48.7883438 C171.430752,48.535015 171.75971,48.3591455 172.182533,48.26073 C172.011217,48.1878296 171.869974,48.0702796 171.758801,47.9080763 C171.647628,47.7458729 171.592043,47.5754709 171.592043,47.396865 C171.592043,47.1708739 171.655829,46.9795133 171.783405,46.8227775 C171.910981,46.6660417 172.100519,46.5111308 172.352025,46.35804 C172.038553,46.2231743 171.784317,46.0035653 171.589309,45.6992063 C171.3943,45.3948472 171.296798,45.038552 171.296798,44.63031 C171.296798,43.9742067 171.503649,43.4657343 171.917359,43.1048775 C172.331068,42.7440207 172.920641,42.563595 173.686095,42.563595 C173.857411,42.563595 174.036925,42.5754411 174.224644,42.5991338 C174.412362,42.6228264 174.553605,42.6474299 174.648375,42.672945 L176.742428,42.672945 Z M171.99117,49.66041 C171.99117,49.9374314 172.11601,50.1506618 172.365694,50.3001075 C172.615377,50.4495532 172.966205,50.524275 173.418188,50.524275 C174.118031,50.524275 174.639261,50.4240385 174.981893,50.2235625 C175.324524,50.0230865 175.495838,49.7570042 175.495838,49.4253075 C175.495838,49.1628662 175.40198,48.9760618 175.214261,48.8648888 C175.026543,48.7537157 174.677538,48.69813 174.167235,48.69813 L173.19402,48.69813 C172.825873,48.69813 172.533365,48.7846979 172.316486,48.9578363 C172.099608,49.1309746 171.99117,49.3651635 171.99117,49.66041 Z M172.543388,44.63031 C172.543388,45.0093919 172.64089,45.300989 172.835899,45.50511 C173.030907,45.709231 173.310658,45.81129 173.67516,45.81129 C174.418744,45.81129 174.79053,45.413989 174.79053,44.619375 C174.79053,44.225713 174.698495,43.9222698 174.514421,43.7090363 C174.330348,43.4958027 174.050597,43.3891875 173.67516,43.3891875 C173.303368,43.3891875 173.021795,43.4948914 172.830431,43.7063025 C172.639068,43.9177136 172.543388,44.225713 172.543388,44.63031 Z M180.930533,42.563595 C181.189329,42.563595 181.402559,42.5818198 181.57023,42.61827 L181.444478,43.8156525 C181.262227,43.7719123 181.072688,43.7500425 180.875858,43.7500425 C180.36191,43.7500425 179.945473,43.9177108 179.626534,44.2530525 C179.307595,44.5883942 179.148128,45.0239673 179.148128,45.559785 L179.148128,48.72 L177.863265,48.72 L177.863265,42.672945 L178.869285,42.672945 L179.038778,43.7391075 L179.104388,43.7391075 C179.304864,43.3782507 179.56639,43.0921211 179.888974,42.88071 C180.211558,42.6692989 180.558741,42.563595 180.930533,42.563595 Z M186.25041,48.72 L185.993438,47.878005 L185.949698,47.878005 C185.658096,48.2461518 185.364676,48.4967431 185.06943,48.6297863 C184.774184,48.7628294 184.395107,48.82935 183.93219,48.82935 C183.338052,48.82935 182.87423,48.6689716 182.540711,48.34821 C182.207192,48.0274484 182.040435,47.5736504 182.040435,46.9868025 C182.040435,46.3635044 182.27189,45.8933041 182.734808,45.5761875 C183.197725,45.2590709 183.903025,45.0859351 184.85073,45.056775 L185.895023,45.02397 L185.895023,44.7013875 C185.895023,44.3150156 185.80481,44.0261522 185.624381,43.8347888 C185.443953,43.6434253 185.164202,43.547745 184.78512,43.547745 C184.475293,43.547745 184.178229,43.593307 183.893918,43.6844325 C183.609606,43.775558 183.336234,43.8830844 183.073793,44.007015 L182.658263,43.088475 C182.986314,42.9171591 183.345343,42.7868517 183.73536,42.6975488 C184.125377,42.6082458 184.493518,42.563595 184.839795,42.563595 C185.608894,42.563595 186.189354,42.7312633 186.581194,43.066605 C186.973033,43.4019467 187.16895,43.9286439 187.16895,44.6467125 L187.16895,48.72 L186.25041,48.72 Z M184.336785,47.8452 C184.803347,47.8452 185.177867,47.7148926 185.460356,47.4542738 C185.742845,47.1936549 185.884088,46.8282474 185.884088,46.35804 L185.884088,45.83316 L185.107703,45.865965 C184.502629,45.8878351 184.0625,45.9889828 183.787301,46.1694113 C183.512102,46.3498397 183.374505,46.6259456 183.374505,46.9977375 C183.374505,47.2674688 183.454694,47.476143 183.615075,47.6237663 C183.775456,47.7713895 184.016023,47.8452 184.336785,47.8452 Z M192.029558,48.82935 C191.264104,48.82935 190.669975,48.5541553 190.247153,48.0037575 L190.170608,48.0037575 C190.221638,48.5140601 190.247153,48.823882 190.247153,48.9332325 L190.247153,51.41001 L188.96229,51.41001 L188.96229,42.672945 L190.001115,42.672945 C190.030275,42.7859406 190.090417,43.0556679 190.181543,43.482135 L190.247153,43.482135 C190.648105,42.8697719 191.249523,42.563595 192.051428,42.563595 C192.805946,42.563595 193.393697,42.8369673 193.814696,43.38372 C194.235696,43.9304727 194.446193,44.6977376 194.446193,45.6855375 C194.446193,46.6733374 194.232051,47.4442472 193.803761,47.99829 C193.375472,48.5523328 192.784076,48.82935 192.029558,48.82935 Z M191.71791,43.613355 C191.207607,43.613355 190.83491,43.7627985 190.599806,44.06169 C190.364703,44.3605815 190.247153,44.8380717 190.247153,45.494175 L190.247153,45.6855375 C190.247153,46.4218312 190.363791,46.9549071 190.597073,47.2847813 C190.830354,47.6146554 191.211252,47.77959 191.73978,47.77959 C192.184472,47.77959 192.527099,47.5973418 192.76767,47.23284 C193.008241,46.8683382 193.128525,46.3489309 193.128525,45.6746025 C193.128525,44.9966291 193.009152,44.4836005 192.770404,44.1355013 C192.531655,43.787402 192.180827,43.613355 191.71791,43.613355 Z M201.258698,48.72 L199.968368,48.72 L199.968368,45.0021 C199.968368,44.5355377 199.87451,44.1874436 199.686791,43.9578075 C199.499073,43.7281714 199.201097,43.613355 198.792855,43.613355 C198.253392,43.613355 197.857003,43.7746446 197.603674,44.0972288 C197.350345,44.4198129 197.223683,44.9601787 197.223683,45.7183425 L197.223683,48.72 L195.93882,48.72 L195.93882,40.21257 L197.223683,40.21257 L197.223683,42.3722325 C197.223683,42.7185092 197.201813,43.088473 197.158073,43.482135 L197.240085,43.482135 C197.415046,43.1905335 197.658347,42.9645458 197.969996,42.804165 C198.281645,42.6437842 198.64523,42.563595 199.060763,42.563595 C200.52606,42.563595 201.258698,43.3017001 201.258698,44.7779325 L201.258698,48.72 Z M204.331433,48.72 L203.04657,48.72 L203.04657,42.672945 L204.331433,42.672945 L204.331433,48.72 Z M202.970025,41.0709675 C202.970025,40.8413314 203.032901,40.6645506 203.158654,40.54062 C203.284407,40.4166894 203.463921,40.354725 203.697203,40.354725 C203.923194,40.354725 204.099063,40.4166894 204.224816,40.54062 C204.350569,40.6645506 204.413445,40.8413314 204.413445,41.0709675 C204.413445,41.2896686 204.350569,41.4618931 204.224816,41.5876463 C204.099063,41.7133994 203.923194,41.776275 203.697203,41.776275 C203.463921,41.776275 203.284407,41.7133994 203.158654,41.5876463 C203.032901,41.4618931 202.970025,41.2896686 202.970025,41.0709675 Z M208.607018,48.82935 C207.692118,48.82935 206.996841,48.5623564 206.521166,48.0283613 C206.045491,47.4943661 205.807658,46.7280125 205.807658,45.7292775 C205.807658,44.7123174 206.056426,43.9304727 206.553971,43.38372 C207.051516,42.8369673 207.770485,42.563595 208.7109,42.563595 C209.348778,42.563595 209.92286,42.6820563 210.433163,42.9189825 L210.04497,43.95234 C209.501862,43.7409289 209.053532,43.635225 208.699965,43.635225 C207.653845,43.635225 207.130793,44.3295906 207.130793,45.7183425 C207.130793,46.3963159 207.2611,46.9056995 207.521719,47.2465088 C207.782338,47.587318 208.164147,47.75772 208.66716,47.75772 C209.239428,47.75772 209.780705,47.6155664 210.291008,47.331255 L210.291008,48.4520925 C210.061371,48.5869582 209.816248,48.6835497 209.555629,48.74187 C209.29501,48.8001903 208.978809,48.82935 208.607018,48.82935 Z M215.77491,46.9977375 C215.77491,47.5882305 215.559857,48.0411172 215.129745,48.3564113 C214.699633,48.6717053 214.083634,48.82935 213.28173,48.82935 C212.476181,48.82935 211.8292,48.7072437 211.340768,48.4630275 L211.340768,47.353125 C212.051546,47.6811766 212.713107,47.8452 213.32547,47.8452 C214.116439,47.8452 214.511918,47.6064549 214.511918,47.1289575 C214.511918,46.9758667 214.468178,46.848293 214.380698,46.7462325 C214.293217,46.644172 214.149241,46.538468 213.948765,46.4291175 C213.748289,46.319767 213.469449,46.1958382 213.112238,46.0573275 C212.416039,45.7875962 211.944927,45.5178688 211.698889,45.2481375 C211.45285,44.9784062 211.329833,44.6284897 211.329833,44.1983775 C211.329833,43.6807849 211.538507,43.2789277 211.955861,42.9927938 C212.373216,42.7066598 212.940919,42.563595 213.658988,42.563595 C214.369766,42.563595 215.042262,42.7075711 215.676495,42.9955275 L215.260965,43.963275 C214.608507,43.6935437 214.05994,43.55868 213.615248,43.55868 C212.937274,43.55868 212.598293,43.7518631 212.598293,44.138235 C212.598293,44.3277759 212.686683,44.4881543 212.863466,44.619375 C213.04025,44.7505957 213.425705,44.9310214 214.019843,45.1606575 C214.51921,45.3538435 214.881884,45.5306242 215.107875,45.691005 C215.333866,45.8513858 215.501534,46.0363677 215.610885,46.2459563 C215.720236,46.4555448 215.77491,46.706136 215.77491,46.9977375 Z" id="Providerdemographics" fill="#282E2E" fill-rule="nonzero"></path>
                    <rect id="Rectangle" fill="#E6E7E8" x="24.48" y="136.8" width="50.4" height="5.76"></rect>
                    <rect id="Rectangle" fill="#E6E7E8" x="91.44" y="136.8" width="131.76" height="5.76"></rect>
                    <rect id="Rectangle" fill="#E6E7E8" x="24.48" y="147.6" width="50.4" height="5.76"></rect>
                    <rect id="Rectangle" fill="#E6E7E8" x="91.44" y="147.6" width="79.2" height="5.76"></rect>
                </g>
            </g>
        </g>
    </g>
</svg>