<?xml version="1.0" encoding="UTF-8"?>
<svg width="349px" height="286px" viewBox="0 0 349 286" version="1.1" xmlns="http://www.w3.org/2000/svg" xmlns:xlink="http://www.w3.org/1999/xlink">
    <!-- Generator: Sketch 53.2 (72643) - https://sketchapp.com -->
    <title>port-card-4</title>
    <desc>Created with Sketch.</desc>
    <defs>
        <rect id="path-1" x="0" y="0" width="299.376" height="234" rx="2.88"></rect>
        <filter x="-24.9%" y="-10.9%" width="133.4%" height="143.6%" filterUnits="objectBoundingBox" id="filter-2">
            <feOffset dx="-36" dy="38" in="SourceAlpha" result="shadowOffsetOuter1"></feOffset>
            <feGaussianBlur stdDeviation="6.5" in="shadowOffsetOuter1" result="shadowBlurOuter1"></feGaussianBlur>
            <feColorMatrix values="0 0 0 0 0   0 0 0 0 0   0 0 0 0 0  0 0 0 0.121530813 0" type="matrix" in="shadowBlurOuter1"></feColorMatrix>
        </filter>
    </defs>
    <g id="final-graphics" stroke="none" stroke-width="1" fill="none" fill-rule="evenodd" opacity="0.138741629">
        <g id="port-card-4" transform="translate(49.000000, 0.000000)">
            <g id="Group-33" transform="translate(0.000000, 0.900000)">
                <g id="Mask">
                    <use fill="black" fill-opacity="1" filter="url(#filter-2)" xlink:href="#path-1"></use>
                    <use fill="#FFFFFF" fill-rule="evenodd" xlink:href="#path-1"></use>
                </g>
                <g id="Group-24" transform="translate(31.680000, 24.480000)">
                    <path d="M0,5.87612903 L32.3314286,5.87612903 L32.3314286,45.36 L10.296,45.36 C4.60967622,45.36 2.47273066e-15,40.7503238 1.77635684e-15,35.064 L0,5.87612903 Z" id="Rectangle" fill="#0073E9" opacity="0.144159226"></path>
                    <rect id="Rectangle" fill="#0073E9" x="6.30857143" y="0.464516129" width="33.12" height="33.84"></rect>
                    <path d="M49.6650397,33.5148387 C49.6749528,33.6451519 49.68,33.7768253 49.68,33.9096774 C49.68,36.7445016 47.3819209,39.0425806 44.5470968,39.0425806 L11.4414747,39.0425806 C8.60665048,39.0425806 6.30857143,36.7445016 6.30857143,33.9096774 C6.30857143,33.7768253 6.31361862,33.6451519 6.32353172,33.5148387 L49.6650397,33.5148387 Z" id="Combined-Shape" fill="#0055AC"></path>
                    <path d="M49.6655612,33.5148387 C49.6751297,33.6428031 49.68,33.7720771 49.68,33.9024885 L49.68,33.9168664 C49.68,36.7477202 47.3851395,39.0425806 44.5542857,39.0425806 C41.7234319,39.0425806 39.4285714,36.7477202 39.4285714,33.9168664 L39.4285714,33.9024885 C39.4285714,33.7720771 39.4334417,33.6428031 39.4430103,33.5148387 L49.6655612,33.5148387 Z" id="Combined-Shape" fill="#56B4FC"></path>
                    <path d="M23.2628571,15.0061935 C19.9943451,15.0061935 17.3451429,12.3532757 17.3451429,9.08129032 C17.3451429,5.80930492 19.9943451,3.1563871 23.2628571,3.1563871 C26.5313692,3.1563871 29.1805714,5.80930492 29.1805714,9.08129032 C29.1805714,12.3532757 26.5313692,15.0061935 23.2628571,15.0061935 Z M23.2628571,13.4221935 C25.6560528,13.4221935 27.5965714,11.4789533 27.5965714,9.08129032 C27.5965714,6.68362738 25.6560528,4.7403871 23.2628571,4.7403871 C20.8696615,4.7403871 18.9291429,6.68362738 18.9291429,9.08129032 C18.9291429,11.4789533 20.8696615,13.4221935 23.2628571,13.4221935 Z" id="Oval" fill="#FFFFFF" fill-rule="nonzero"></path>
                    <circle id="Oval" fill="#FFFFFF" cx="23.2628571" cy="9.08129032" r="1.44"></circle>
                    <polygon id="Line-3" fill="#FFFFFF" fill-rule="nonzero" points="36.2460343 21.994052 36.2460343 23.514692 9.7017904 23.514692 9.7017904 21.994052"></polygon>
                    <polygon id="Line-3" fill="#FFFFFF" fill-rule="nonzero" points="36.2460343 17.2559875 36.2460343 18.7766275 9.7017904 18.7766275 9.7017904 17.2559875"></polygon>
                    <polygon id="Line-3" fill="#FFFFFF" fill-rule="nonzero" points="33.0917486 26.7321165 33.0917486 28.2527565 13.6446475 28.2527565 13.6446475 26.7321165"></polygon>
                </g>
                <path d="M112.114642,48.72 L110.512665,48.72 L106.581532,42.3503625 L106.537792,42.3503625 L106.56513,42.70575 C106.61616,43.3837234 106.641675,44.0033672 106.641675,44.5647 L106.641675,48.72 L105.455227,48.72 L105.455227,40.726515 L107.040802,40.726515 L110.961,47.0633475 L110.993805,47.0633475 C110.986515,46.9795121 110.971935,46.6742464 110.950065,46.1475413 C110.928195,45.6208361 110.91726,45.2098665 110.91726,44.91462 L110.91726,40.726515 L112.114642,40.726515 L112.114642,48.72 Z M117.87192,48.72 L117.614947,47.878005 L117.571207,47.878005 C117.279606,48.2461518 116.986186,48.4967431 116.69094,48.6297863 C116.395694,48.7628294 116.016617,48.82935 115.5537,48.82935 C114.959562,48.82935 114.49574,48.6689716 114.162221,48.34821 C113.828702,48.0274484 113.661945,47.5736504 113.661945,46.9868025 C113.661945,46.3635044 113.8934,45.8933041 114.356317,45.5761875 C114.819235,45.2590709 115.524535,45.0859351 116.47224,45.056775 L117.516532,45.02397 L117.516532,44.7013875 C117.516532,44.3150156 117.42632,44.0261522 117.245891,43.8347888 C117.065463,43.6434253 116.785712,43.547745 116.40663,43.547745 C116.096803,43.547745 115.799739,43.593307 115.515427,43.6844325 C115.231116,43.775558 114.957744,43.8830844 114.695302,44.007015 L114.279772,43.088475 C114.607824,42.9171591 114.966853,42.7868517 115.35687,42.6975488 C115.746887,42.6082458 116.115028,42.563595 116.461305,42.563595 C117.230404,42.563595 117.810864,42.7312633 118.202704,43.066605 C118.594543,43.4019467 118.79046,43.9286439 118.79046,44.6467125 L118.79046,48.72 L117.87192,48.72 Z M115.958295,47.8452 C116.424857,47.8452 116.799377,47.7148926 117.081866,47.4542738 C117.364355,47.1936549 117.505597,46.8282474 117.505597,46.35804 L117.505597,45.83316 L116.729212,45.865965 C116.124139,45.8878351 115.68401,45.9889828 115.408811,46.1694113 C115.133612,46.3498397 114.996015,46.6259456 114.996015,46.9977375 C114.996015,47.2674688 115.076204,47.476143 115.236585,47.6237663 C115.396966,47.7713895 115.637533,47.8452 115.958295,47.8452 Z M122.83641,47.790525 C123.149882,47.790525 123.463348,47.741318 123.77682,47.6429025 L123.77682,48.61065 C123.634664,48.6726153 123.451505,48.724556 123.227336,48.7664738 C123.003168,48.8083915 122.770801,48.82935 122.53023,48.82935 C121.312794,48.82935 120.704085,48.1878364 120.704085,46.90479 L120.704085,43.64616 L119.878492,43.64616 L119.878492,43.07754 L120.764227,42.607335 L121.201627,41.32794 L121.994415,41.32794 L121.994415,42.672945 L123.716677,42.672945 L123.716677,43.64616 L121.994415,43.64616 L121.994415,46.88292 C121.994415,47.1927465 122.07187,47.421468 122.226784,47.5690913 C122.381697,47.7167145 122.584904,47.790525 122.83641,47.790525 Z M126.27,48.72 L124.985137,48.72 L124.985137,42.672945 L126.27,42.672945 L126.27,48.72 Z M124.908592,41.0709675 C124.908592,40.8413314 124.971468,40.6645506 125.097221,40.54062 C125.222974,40.4166894 125.402489,40.354725 125.63577,40.354725 C125.861761,40.354725 126.037631,40.4166894 126.163384,40.54062 C126.289137,40.6645506 126.352012,40.8413314 126.352012,41.0709675 C126.352012,41.2896686 126.289137,41.4618931 126.163384,41.5876463 C126.037631,41.7133994 125.861761,41.776275 125.63577,41.776275 C125.402489,41.776275 125.222974,41.7133994 125.097221,41.5876463 C124.971468,41.4618931 124.908592,41.2896686 124.908592,41.0709675 Z M133.470697,45.6855375 C133.470697,46.6733374 133.217373,47.4442472 132.710715,47.99829 C132.204057,48.5523328 131.498757,48.82935 130.594792,48.82935 C130.029815,48.82935 129.530455,48.7017763 129.096697,48.446625 C128.66294,48.1914737 128.329426,47.8251549 128.096145,47.3476575 C127.862864,46.8701601 127.746225,46.3161257 127.746225,45.6855375 C127.746225,44.7050276 127.997727,43.9395853 128.50074,43.3891875 C129.003753,42.8387897 129.712698,42.563595 130.627597,42.563595 C131.502402,42.563595 132.194945,42.8451684 132.705247,43.4083238 C133.21555,43.9714791 133.470697,44.7305427 133.470697,45.6855375 Z M129.06936,45.6855375 C129.06936,47.0815795 129.585122,47.77959 130.616662,47.77959 C131.637268,47.77959 132.147562,47.0815795 132.147562,45.6855375 C132.147562,44.3040756 131.633623,43.613355 130.605727,43.613355 C130.066265,43.613355 129.675342,43.7919582 129.432949,44.14917 C129.190555,44.5063818 129.06936,45.0184992 129.06936,45.6855375 Z M140.2668,48.72 L138.97647,48.72 L138.97647,45.0021 C138.97647,44.5355377 138.882612,44.1874436 138.694894,43.9578075 C138.507175,43.7281714 138.2092,43.613355 137.800957,43.613355 C137.25785,43.613355 136.860549,43.7737334 136.609042,44.094495 C136.357536,44.4152566 136.231785,44.9528887 136.231785,45.7074075 L136.231785,48.72 L134.946922,48.72 L134.946922,42.672945 L135.952942,42.672945 L136.13337,43.4657325 L136.19898,43.4657325 C136.381231,43.1777761 136.640023,42.9554333 136.975365,42.7986975 C137.310707,42.6419617 137.682493,42.563595 138.090735,42.563595 C139.541452,42.563595 140.2668,43.3017001 140.2668,44.7779325 L140.2668,48.72 Z M145.838182,48.72 L145.58121,47.878005 L145.53747,47.878005 C145.245869,48.2461518 144.952449,48.4967431 144.657202,48.6297863 C144.361956,48.7628294 143.98288,48.82935 143.519962,48.82935 C142.925825,48.82935 142.462003,48.6689716 142.128484,48.34821 C141.794965,48.0274484 141.628207,47.5736504 141.628207,46.9868025 C141.628207,46.3635044 141.859663,45.8933041 142.32258,45.5761875 C142.785497,45.2590709 143.490798,45.0859351 144.438502,45.056775 L145.482795,45.02397 L145.482795,44.7013875 C145.482795,44.3150156 145.392582,44.0261522 145.212154,43.8347888 C145.031725,43.6434253 144.751974,43.547745 144.372892,43.547745 C144.063066,43.547745 143.766001,43.593307 143.48169,43.6844325 C143.197379,43.775558 142.924006,43.8830844 142.661565,44.007015 L142.246035,43.088475 C142.574087,42.9171591 142.933116,42.7868517 143.323132,42.6975488 C143.713149,42.6082458 144.081291,42.563595 144.427567,42.563595 C145.196666,42.563595 145.777127,42.7312633 146.168966,43.066605 C146.560806,43.4019467 146.756722,43.9286439 146.756722,44.6467125 L146.756722,48.72 L145.838182,48.72 Z M143.924557,47.8452 C144.39112,47.8452 144.76564,47.7148926 145.048129,47.4542738 C145.330618,47.1936549 145.47186,46.8282474 145.47186,46.35804 L145.47186,45.83316 L144.695475,45.865965 C144.090402,45.8878351 143.650273,45.9889828 143.375074,46.1694113 C143.099875,46.3498397 142.962277,46.6259456 142.962277,46.9977375 C142.962277,47.2674688 143.042467,47.476143 143.202847,47.6237663 C143.363228,47.7713895 143.603796,47.8452 143.924557,47.8452 Z M149.834925,48.72 L148.550062,48.72 L148.550062,40.21257 L149.834925,40.21257 L149.834925,48.72 Z M157.01922,48.82935 C156.10432,48.82935 155.409044,48.5623564 154.933369,48.0283613 C154.457694,47.4943661 154.21986,46.7280125 154.21986,45.7292775 C154.21986,44.7123174 154.468629,43.9304727 154.966174,43.38372 C155.463719,42.8369673 156.182688,42.563595 157.123102,42.563595 C157.760981,42.563595 158.335062,42.6820563 158.845365,42.9189825 L158.457172,43.95234 C157.914065,43.7409289 157.465734,43.635225 157.112167,43.635225 C156.066047,43.635225 155.542995,44.3295906 155.542995,45.7183425 C155.542995,46.3963159 155.673302,46.9056995 155.933921,47.2465088 C156.19454,47.587318 156.57635,47.75772 157.079362,47.75772 C157.65163,47.75772 158.192907,47.6155664 158.70321,47.331255 L158.70321,48.4520925 C158.473574,48.5869582 158.22845,48.6835497 157.967831,48.74187 C157.707212,48.8001903 157.391012,48.82935 157.01922,48.82935 Z M162.765562,48.82935 C161.825148,48.82935 161.089776,48.5550665 160.559426,48.0064913 C160.029076,47.457916 159.763905,46.7024973 159.763905,45.7402125 C159.763905,44.7524126 160.00994,43.9760353 160.502017,43.4110575 C160.994095,42.8460797 161.670236,42.563595 162.53046,42.563595 C163.328719,42.563595 163.959298,42.8059851 164.422215,43.2907725 C164.885132,43.7755599 165.116587,44.4425883 165.116587,45.2918775 L165.116587,45.98625 L161.08704,45.98625 C161.105265,46.5730979 161.263821,47.0241622 161.562712,47.3394563 C161.861604,47.6547503 162.282597,47.812395 162.825705,47.812395 C163.182917,47.812395 163.51552,47.7786791 163.823524,47.7112463 C164.131528,47.6438134 164.462308,47.5317308 164.815875,47.374995 L164.815875,48.4192875 C164.502403,48.5687332 164.185292,48.6744372 163.86453,48.7364025 C163.543768,48.7983678 163.17745,48.82935 162.765562,48.82935 Z M162.53046,43.53681 C162.122218,43.53681 161.795082,43.6662062 161.549044,43.9250025 C161.303005,44.1837988 161.156295,44.5610525 161.10891,45.056775 L163.853595,45.056775 C163.846305,44.5574075 163.726021,44.1792425 163.49274,43.9222688 C163.259459,43.665295 162.938702,43.53681 162.53046,43.53681 Z M169.643677,42.563595 C169.902474,42.563595 170.115704,42.5818198 170.283375,42.61827 L170.157622,43.8156525 C169.975372,43.7719123 169.785833,43.7500425 169.589002,43.7500425 C169.075055,43.7500425 168.658618,43.9177108 168.339679,44.2530525 C168.02074,44.5883942 167.861272,45.0239673 167.861272,45.559785 L167.861272,48.72 L166.57641,48.72 L166.57641,42.672945 L167.58243,42.672945 L167.751922,43.7391075 L167.817532,43.7391075 C168.018009,43.3782507 168.279535,43.0921211 168.602119,42.88071 C168.924703,42.6692989 169.271886,42.563595 169.643677,42.563595 Z M173.656822,47.790525 C173.970294,47.790525 174.283761,47.741318 174.597232,47.6429025 L174.597232,48.61065 C174.455077,48.6726153 174.271917,48.724556 174.047749,48.7664738 C173.82358,48.8083915 173.591214,48.82935 173.350642,48.82935 C172.133206,48.82935 171.524497,48.1878364 171.524497,46.90479 L171.524497,43.64616 L170.698905,43.64616 L170.698905,43.07754 L171.58464,42.607335 L172.02204,41.32794 L172.814827,41.32794 L172.814827,42.672945 L174.53709,42.672945 L174.53709,43.64616 L172.814827,43.64616 L172.814827,46.88292 C172.814827,47.1927465 172.892283,47.421468 173.047196,47.5690913 C173.20211,47.7167145 173.405316,47.790525 173.656822,47.790525 Z M177.090412,48.72 L175.80555,48.72 L175.80555,42.672945 L177.090412,42.672945 L177.090412,48.72 Z M175.729005,41.0709675 C175.729005,40.8413314 175.791881,40.6645506 175.917634,40.54062 C176.043387,40.4166894 176.222901,40.354725 176.456182,40.354725 C176.682174,40.354725 176.858043,40.4166894 176.983796,40.54062 C177.109549,40.6645506 177.172425,40.8413314 177.172425,41.0709675 C177.172425,41.2896686 177.109549,41.4618931 176.983796,41.5876463 C176.858043,41.7133994 176.682174,41.776275 176.456182,41.776275 C176.222901,41.776275 176.043387,41.7133994 175.917634,41.5876463 C175.791881,41.4618931 175.729005,41.2896686 175.729005,41.0709675 Z M181.961955,43.64616 L180.48573,43.64616 L180.48573,48.72 L179.1954,48.72 L179.1954,43.64616 L178.200315,43.64616 L178.200315,43.044735 L179.1954,42.651075 L179.1954,42.257415 C179.1954,41.5429914 179.363068,41.0135605 179.69841,40.6691063 C180.033752,40.324652 180.545869,40.1524275 181.234777,40.1524275 C181.68676,40.1524275 182.131445,40.2271493 182.568847,40.376595 L182.229862,41.34981 C181.912746,41.2477495 181.610214,41.19672 181.322257,41.19672 C181.030656,41.19672 180.818337,41.2869328 180.685294,41.4673613 C180.552251,41.6477897 180.48573,41.9184282 180.48573,42.279285 L180.48573,42.672945 L181.961955,42.672945 L181.961955,43.64616 Z M184.274707,48.72 L182.989845,48.72 L182.989845,42.672945 L184.274707,42.672945 L184.274707,48.72 Z M182.9133,41.0709675 C182.9133,40.8413314 182.976176,40.6645506 183.101929,40.54062 C183.227682,40.4166894 183.407196,40.354725 183.640477,40.354725 C183.866469,40.354725 184.042338,40.4166894 184.168091,40.54062 C184.293844,40.6645506 184.35672,40.8413314 184.35672,41.0709675 C184.35672,41.2896686 184.293844,41.4618931 184.168091,41.5876463 C184.042338,41.7133994 183.866469,41.776275 183.640477,41.776275 C183.407196,41.776275 183.227682,41.7133994 183.101929,41.5876463 C182.976176,41.4618931 182.9133,41.2896686 182.9133,41.0709675 Z M188.55576,48.82935 C187.64086,48.82935 186.945584,48.5623564 186.469909,48.0283613 C185.994234,47.4943661 185.7564,46.7280125 185.7564,45.7292775 C185.7564,44.7123174 186.005169,43.9304727 186.502714,43.38372 C187.000259,42.8369673 187.719228,42.563595 188.659642,42.563595 C189.297521,42.563595 189.871602,42.6820563 190.381905,42.9189825 L189.993712,43.95234 C189.450605,43.7409289 189.002274,43.635225 188.648707,43.635225 C187.602587,43.635225 187.079535,44.3295906 187.079535,45.7183425 C187.079535,46.3963159 187.209842,46.9056995 187.470461,47.2465088 C187.73108,47.587318 188.11289,47.75772 188.615902,47.75772 C189.18817,47.75772 189.729447,47.6155664 190.23975,47.331255 L190.23975,48.4520925 C190.010114,48.5869582 189.76499,48.6835497 189.504371,48.74187 C189.243752,48.8001903 188.927552,48.82935 188.55576,48.82935 Z M195.44481,48.72 L195.187837,47.878005 L195.144097,47.878005 C194.852496,48.2461518 194.559076,48.4967431 194.26383,48.6297863 C193.968584,48.7628294 193.589507,48.82935 193.12659,48.82935 C192.532452,48.82935 192.06863,48.6689716 191.735111,48.34821 C191.401592,48.0274484 191.234835,47.5736504 191.234835,46.9868025 C191.234835,46.3635044 191.46629,45.8933041 191.929207,45.5761875 C192.392125,45.2590709 193.097425,45.0859351 194.04513,45.056775 L195.089422,45.02397 L195.089422,44.7013875 C195.089422,44.3150156 194.99921,44.0261522 194.818781,43.8347888 C194.638353,43.6434253 194.358602,43.547745 193.97952,43.547745 C193.669693,43.547745 193.372629,43.593307 193.088317,43.6844325 C192.804006,43.775558 192.530634,43.8830844 192.268192,44.007015 L191.852662,43.088475 C192.180714,42.9171591 192.539743,42.7868517 192.92976,42.6975488 C193.319777,42.6082458 193.687918,42.563595 194.034195,42.563595 C194.803294,42.563595 195.383754,42.7312633 195.775594,43.066605 C196.167433,43.4019467 196.36335,43.9286439 196.36335,44.6467125 L196.36335,48.72 L195.44481,48.72 Z M193.531185,47.8452 C193.997747,47.8452 194.372267,47.7148926 194.654756,47.4542738 C194.937245,47.1936549 195.078487,46.8282474 195.078487,46.35804 L195.078487,45.83316 L194.302102,45.865965 C193.697029,45.8878351 193.2569,45.9889828 192.981701,46.1694113 C192.706502,46.3498397 192.568905,46.6259456 192.568905,46.9977375 C192.568905,47.2674688 192.649094,47.476143 192.809475,47.6237663 C192.969856,47.7713895 193.210423,47.8452 193.531185,47.8452 Z M200.4093,47.790525 C200.722772,47.790525 201.036238,47.741318 201.34971,47.6429025 L201.34971,48.61065 C201.207554,48.6726153 201.024395,48.724556 200.800226,48.7664738 C200.576058,48.8083915 200.343691,48.82935 200.10312,48.82935 C198.885684,48.82935 198.276975,48.1878364 198.276975,46.90479 L198.276975,43.64616 L197.451382,43.64616 L197.451382,43.07754 L198.337117,42.607335 L198.774517,41.32794 L199.567305,41.32794 L199.567305,42.672945 L201.289567,42.672945 L201.289567,43.64616 L199.567305,43.64616 L199.567305,46.88292 C199.567305,47.1927465 199.64476,47.421468 199.799674,47.5690913 C199.954587,47.7167145 200.157794,47.790525 200.4093,47.790525 Z M205.19883,48.82935 C204.258415,48.82935 203.523044,48.5550665 202.992694,48.0064913 C202.462344,47.457916 202.197172,46.7024973 202.197172,45.7402125 C202.197172,44.7524126 202.443208,43.9760353 202.935285,43.4110575 C203.427362,42.8460797 204.103503,42.563595 204.963727,42.563595 C205.761986,42.563595 206.392565,42.8059851 206.855482,43.2907725 C207.3184,43.7755599 207.549855,44.4425883 207.549855,45.2918775 L207.549855,45.98625 L203.520307,45.98625 C203.538533,46.5730979 203.697089,47.0241622 203.99598,47.3394563 C204.294871,47.6547503 204.715865,47.812395 205.258972,47.812395 C205.616184,47.812395 205.948787,47.7786791 206.256791,47.7112463 C206.564795,47.6438134 206.895576,47.5317308 207.249142,47.374995 L207.249142,48.4192875 C206.935671,48.5687332 206.618559,48.6744372 206.297797,48.7364025 C205.977036,48.7983678 205.610717,48.82935 205.19883,48.82935 Z M204.963727,43.53681 C204.555485,43.53681 204.22835,43.6662062 203.982311,43.9250025 C203.736273,44.1837988 203.589563,44.5610525 203.542177,45.056775 L206.286862,45.056775 C206.279572,44.5574075 206.159289,44.1792425 205.926007,43.9222688 C205.692726,43.665295 205.37197,43.53681 204.963727,43.53681 Z M213.07203,46.9977375 C213.07203,47.5882305 212.856977,48.0411172 212.426865,48.3564113 C211.996753,48.6717053 211.380754,48.82935 210.57885,48.82935 C209.773301,48.82935 209.12632,48.7072437 208.637887,48.4630275 L208.637887,47.353125 C209.348666,47.6811766 210.010227,47.8452 210.62259,47.8452 C211.413559,47.8452 211.809037,47.6064549 211.809037,47.1289575 C211.809037,46.9758667 211.765298,46.848293 211.677817,46.7462325 C211.590337,46.644172 211.446361,46.538468 211.245885,46.4291175 C211.045409,46.319767 210.766569,46.1958382 210.409357,46.0573275 C209.713159,45.7875962 209.242047,45.5178688 208.996009,45.2481375 C208.74997,44.9784062 208.626952,44.6284897 208.626952,44.1983775 C208.626952,43.6807849 208.835627,43.2789277 209.252981,42.9927938 C209.670336,42.7066598 210.238039,42.563595 210.956107,42.563595 C211.666886,42.563595 212.339382,42.7075711 212.973615,42.9955275 L212.558085,43.963275 C211.905627,43.6935437 211.35706,43.55868 210.912367,43.55868 C210.234394,43.55868 209.895412,43.7518631 209.895412,44.138235 C209.895412,44.3277759 209.983803,44.4881543 210.160586,44.619375 C210.33737,44.7505957 210.722825,44.9310214 211.316962,45.1606575 C211.81633,45.3538435 212.179004,45.5306242 212.404995,45.691005 C212.630986,45.8513858 212.798654,46.0363677 212.908005,46.2459563 C213.017356,46.4555448 213.07203,46.706136 213.07203,46.9977375 Z" id="Nationalcertifcates" fill="#282E2E" fill-rule="nonzero"></path>
                <g id="Group-31" transform="translate(26.640000, 82.800000)">
                    <g id="added-to-list-item">
                        <rect id="Rectangle" fill="#F9FAFC" x="0" y="0" width="254.88" height="61.92" rx="1.39968"></rect>
                        <g id="status/complete" transform="translate(225.000000, 20.000000)">
                            <g id="Group-2" fill="#FF0000" fill-opacity="0">
                                <rect id="Rectangle-7" x="0" y="0" width="21.34512" height="21.34512"></rect>
                            </g>
                            <polygon id="c" fill="#CFD5DF" fill-rule="nonzero" points="8.93867906 5.86596 14.0999991 11.02728 8.93867906 16.1886 7.72899469 14.9789156 11.6806303 11.02728 7.72899469 7.07564437"></polygon>
                        </g>
                        <path d="M16.0624688,17.92 L15.3639956,15.9776706 L12.6897047,15.9776706 L12.0055838,17.92 L10.8,17.92 L13.4168822,10.8969962 L14.6607384,10.8969962 L17.2776206,17.92 L16.0624688,17.92 Z M15.0625997,14.9921537 L14.4071831,13.0880969 C14.3593423,12.9605212 14.2931634,12.7595926 14.2086445,12.485305 C14.1241257,12.2110174 14.0659202,12.0100888 14.0340263,11.8825131 C13.9479127,12.2748082 13.8219336,12.7037749 13.6560853,13.1694259 L13.0245891,14.9921537 L15.0625997,14.9921537 Z M21.1766316,11.8059681 C20.519617,11.8059681 20.0029434,12.0387902 19.6265953,12.5044413 C19.2502472,12.9700923 19.0620759,13.612745 19.0620759,14.4324184 C19.0620759,15.2903646 19.2430712,15.9393959 19.605067,16.3795319 C19.9670629,16.8196678 20.4909125,17.0397325 21.1766316,17.0397325 C21.4732449,17.0397325 21.7602858,17.0102311 22.0377628,16.9512273 C22.3152398,16.8922236 22.6038754,16.8164767 22.9036781,16.7239844 L22.9036781,17.7047172 C22.3551029,17.9120276 21.733181,18.0156813 21.0378938,18.0156813 C20.0140993,18.0156813 19.2279262,17.7055176 18.6793509,17.0851811 C18.1307757,16.4648446 17.8564922,15.5774098 17.8564922,14.4228503 C17.8564922,13.6956692 17.9896473,13.0593952 18.2559614,12.5140094 C18.5222756,11.9686235 18.9073887,11.5508196 19.4113125,11.260585 C19.9152363,10.9703504 20.5068594,10.8252353 21.1861997,10.8252353 C21.9006233,10.8252353 22.5608173,10.9751344 23.1668016,11.2749372 L22.7553722,12.2269656 C22.5193573,12.1153369 22.2697912,12.0172646 22.0066664,11.9327458 C21.7435417,11.8482269 21.4668661,11.8059681 21.1766316,11.8059681 Z M24.4106578,17.92 L24.4106578,10.9257006 L25.5540487,10.9257006 L25.5540487,16.9392672 L28.5153834,16.9392672 L28.5153834,17.92 L24.4106578,17.92 Z M33.7539319,16.0207272 C33.7539319,16.6426584 33.5290832,17.1306279 33.0793791,17.4846503 C32.6296749,17.8386727 32.0093477,18.0156813 31.2183787,18.0156813 C30.4274098,18.0156813 29.7799731,17.8928915 29.2760494,17.6473084 L29.2760494,16.5661103 C29.5949885,16.7160117 29.9338562,16.8340174 30.2926627,16.9201309 C30.6514691,17.0062445 30.9855528,17.0493006 31.2949237,17.0493006 C31.7478173,17.0493006 32.081901,16.9631884 32.2971848,16.7909613 C32.5124687,16.6187341 32.6201091,16.3875068 32.6201091,16.0972722 C32.6201091,15.8357421 32.5212394,15.6140828 32.3234972,15.4322875 C32.1257549,15.2504922 31.717519,15.0352116 31.0987772,14.7864391 C30.460899,14.5280984 30.0112016,14.2330842 29.7496716,13.9013875 C29.4881415,13.5696908 29.3573784,13.171023 29.3573784,12.7053719 C29.3573784,12.1217133 29.5646857,11.6624479 29.9793066,11.3275619 C30.3939274,10.9926758 30.9504678,10.8252353 31.6489444,10.8252353 C32.3187165,10.8252353 32.9852892,10.9719451 33.6486825,11.2653691 L33.2850938,12.1982612 C32.6631625,11.9367312 32.1082168,11.8059681 31.62024,11.8059681 C31.2502707,11.8059681 30.9696085,11.886499 30.778245,12.0475633 C30.5868815,12.2086275 30.4912012,12.4215162 30.4912012,12.6862356 C30.4912012,12.8680309 30.5294734,13.0235114 30.6060188,13.1526817 C30.6825641,13.2818521 30.8085432,13.4038444 30.9839597,13.5186625 C31.1593762,13.6334806 31.4751212,13.7849744 31.9312041,13.9731484 C32.444696,14.1868376 32.8210385,14.3861716 33.0602428,14.5711562 C33.2994471,14.7561409 33.474861,14.9650429 33.5864897,15.1978684 C33.6981184,15.430694 33.7539319,15.7049775 33.7539319,16.0207272 Z M41.4610566,13.7578656 L41.1979331,15.1165394 L42.48963,15.1165394 L42.48963,15.9202619 L41.0400591,15.9202619 L40.6573341,17.92 L39.8057709,17.92 L40.1884959,15.9202619 L39.0020484,15.9202619 L38.6193234,17.92 L37.7868966,17.92 L38.1504853,15.9202619 L36.9544697,15.9202619 L36.9544697,15.1165394 L38.3083594,15.1165394 L38.5810509,13.7578656 L37.3180584,13.7578656 L37.3180584,12.9541431 L38.7197888,12.9541431 L39.1025137,10.9352688 L39.963645,10.9352688 L39.58092,12.9541431 L40.7865038,12.9541431 L41.1692288,10.9352688 L42.0016556,10.9352688 L41.6189306,12.9541431 L42.8245144,12.9541431 L42.8245144,13.7578656 L41.4610566,13.7578656 Z M39.1503544,15.1165394 L40.34637,15.1165394 L40.6190616,13.7578656 L39.4230459,13.7578656 L39.1503544,15.1165394 Z M48.4792763,16.3938841 L47.5368159,16.3938841 L47.5368159,17.92 L46.4412656,17.92 L46.4412656,16.3938841 L43.2455119,16.3938841 L43.2455119,15.5279687 L46.4412656,10.9065644 L47.5368159,10.9065644 L47.5368159,15.4609919 L48.4792763,15.4609919 L48.4792763,16.3938841 Z M46.4412656,15.4609919 L46.4412656,13.7052409 C46.4412656,13.0801203 46.4572123,12.5682307 46.4891063,12.1695569 L46.4508338,12.1695569 C46.3615308,12.3800567 46.2211997,12.6352041 46.0298363,12.9350069 L44.2932216,15.4609919 L46.4412656,15.4609919 Z M54.0718453,16.3938841 L53.129385,16.3938841 L53.129385,17.92 L52.0338347,17.92 L52.0338347,16.3938841 L48.8380809,16.3938841 L48.8380809,15.5279687 L52.0338347,10.9065644 L53.129385,10.9065644 L53.129385,15.4609919 L54.0718453,15.4609919 L54.0718453,16.3938841 Z M52.0338347,15.4609919 L52.0338347,13.7052409 C52.0338347,13.0801203 52.0497814,12.5682307 52.0816753,12.1695569 L52.0434028,12.1695569 C51.9540999,12.3800567 51.8137688,12.6352041 51.6224053,12.9350069 L49.8857906,15.4609919 L52.0338347,15.4609919 Z M59.6644144,16.3938841 L58.7219541,16.3938841 L58.7219541,17.92 L57.6264037,17.92 L57.6264037,16.3938841 L54.43065,16.3938841 L54.43065,15.5279687 L57.6264037,10.9065644 L58.7219541,10.9065644 L58.7219541,15.4609919 L59.6644144,15.4609919 L59.6644144,16.3938841 Z M57.6264038,15.4609919 L57.6264038,13.7052409 C57.6264038,13.0801203 57.6423505,12.5682307 57.6742444,12.1695569 L57.6359719,12.1695569 C57.5466689,12.3800567 57.4063378,12.6352041 57.2149744,12.9350069 L55.4783597,15.4609919 L57.6264038,15.4609919 Z M62.6401013,13.5521509 C63.3449566,13.5521509 63.9030917,13.7387275 64.3145231,14.1118862 C64.7259546,14.485045 64.9316672,14.9937452 64.9316672,15.6380022 C64.9316672,16.3843197 64.6980478,16.9671721 64.230802,17.386577 C63.7635563,17.8059819 63.0993756,18.0156813 62.23824,18.0156813 C61.4568392,18.0156813 60.8428907,17.8897022 60.3963759,17.6377403 L60.3963759,16.618735 C60.6547166,16.765447 60.9513255,16.8786687 61.2862116,16.9584034 C61.6210976,17.0381382 61.9320586,17.078005 62.2191038,17.078005 C62.7262169,17.078005 63.1121274,16.9647833 63.3768469,16.7383366 C63.6415663,16.5118898 63.7739241,16.1801981 63.7739241,15.7432516 C63.7739241,14.9076311 63.2413038,14.4898272 62.1760472,14.4898272 C62.0261458,14.4898272 61.8411639,14.5049766 61.6210959,14.5352758 C61.401028,14.565575 61.2080727,14.5998604 61.0422244,14.6381331 L60.5398978,14.3415212 L60.8078053,10.9257006 L64.4436928,10.9257006 L64.4436928,11.9255697 L61.7981063,11.9255697 L61.6402322,13.6574003 C61.7518609,13.638264 61.8882053,13.6159386 62.0492695,13.5904234 C62.2103338,13.5649083 62.4072757,13.5521509 62.6401013,13.5521509 Z M68.2326703,13.5521509 C68.9375257,13.5521509 69.4956608,13.7387275 69.9070922,14.1118862 C70.3185236,14.485045 70.5242363,14.9937452 70.5242363,15.6380022 C70.5242363,16.3843197 70.2906169,16.9671721 69.8233711,17.386577 C69.3561253,17.8059819 68.6919446,18.0156813 67.8308091,18.0156813 C67.0494083,18.0156813 66.4354597,17.8897022 65.988945,17.6377403 L65.988945,16.618735 C66.2472857,16.765447 66.5438946,16.8786687 66.8787806,16.9584034 C67.2136667,17.0381382 67.5246276,17.078005 67.8116728,17.078005 C68.318786,17.078005 68.7046965,16.9647833 68.9694159,16.7383366 C69.2341354,16.5118898 69.3664931,16.1801981 69.3664931,15.7432516 C69.3664931,14.9076311 68.8338728,14.4898272 67.7686162,14.4898272 C67.6187149,14.4898272 67.433733,14.5049766 67.213665,14.5352758 C66.993597,14.565575 66.8006418,14.5998604 66.6347934,14.6381331 L66.1324669,14.3415212 L66.4003744,10.9257006 L70.0362619,10.9257006 L70.0362619,11.9255697 L67.3906753,11.9255697 L67.2328012,13.6574003 C67.3444299,13.638264 67.4807744,13.6159386 67.6418386,13.5904234 C67.8029028,13.5649083 67.9998448,13.5521509 68.2326703,13.5521509 Z M73.8252394,13.5521509 C74.5300948,13.5521509 75.0882298,13.7387275 75.4996612,14.1118862 C75.9110927,14.485045 76.1168053,14.9937452 76.1168053,15.6380022 C76.1168053,16.3843197 75.8831859,16.9671721 75.4159402,17.386577 C74.9486944,17.8059819 74.2845137,18.0156813 73.4233781,18.0156813 C72.6419773,18.0156813 72.0280288,17.8897022 71.5815141,17.6377403 L71.5815141,16.618735 C71.8398547,16.765447 72.1364636,16.8786687 72.4713497,16.9584034 C72.8062357,17.0381382 73.1171967,17.078005 73.4042419,17.078005 C73.911355,17.078005 74.2972656,16.9647833 74.561985,16.7383366 C74.8267044,16.5118898 74.9590622,16.1801981 74.9590622,15.7432516 C74.9590622,14.9076311 74.4264419,14.4898272 73.3611853,14.4898272 C73.2112839,14.4898272 73.026302,14.5049766 72.8062341,14.5352758 C72.5861661,14.565575 72.3932108,14.5998604 72.2273625,14.6381331 L71.7250359,14.3415212 L71.9929434,10.9257006 L75.6288309,10.9257006 L75.6288309,11.9255697 L72.9832444,11.9255697 L72.8253703,13.6574003 C72.936999,13.638264 73.0733434,13.6159386 73.2344077,13.5904234 C73.3954719,13.5649083 73.5924138,13.5521509 73.8252394,13.5521509 Z M82.0346906,16.3938841 L81.0922303,16.3938841 L81.0922303,17.92 L79.99668,17.92 L79.99668,16.3938841 L76.8009262,16.3938841 L76.8009262,15.5279687 L79.99668,10.9065644 L81.0922303,10.9065644 L81.0922303,15.4609919 L82.0346906,15.4609919 L82.0346906,16.3938841 Z M79.99668,15.4609919 L79.99668,13.7052409 C79.99668,13.0801203 80.0126267,12.5682307 80.0445206,12.1695569 L80.0062481,12.1695569 C79.9169452,12.3800567 79.7766141,12.6352041 79.5852506,12.9350069 L77.8486359,15.4609919 L79.99668,15.4609919 Z M87.6272597,16.3938841 L86.6847994,16.3938841 L86.6847994,17.92 L85.5892491,17.92 L85.5892491,16.3938841 L82.3934953,16.3938841 L82.3934953,15.5279687 L85.5892491,10.9065644 L86.6847994,10.9065644 L86.6847994,15.4609919 L87.6272597,15.4609919 L87.6272597,16.3938841 Z M85.5892491,15.4609919 L85.5892491,13.7052409 C85.5892491,13.0801203 85.6051958,12.5682307 85.6370897,12.1695569 L85.5988172,12.1695569 C85.5095142,12.3800567 85.3691831,12.6352041 85.1778197,12.9350069 L83.441205,15.4609919 L85.5892491,15.4609919 Z M93.2198287,16.3938841 L92.2773684,16.3938841 L92.2773684,17.92 L91.1818181,17.92 L91.1818181,16.3938841 L87.9860644,16.3938841 L87.9860644,15.5279687 L91.1818181,10.9065644 L92.2773684,10.9065644 L92.2773684,15.4609919 L93.2198287,15.4609919 L93.2198287,16.3938841 Z M91.1818181,15.4609919 L91.1818181,13.7052409 C91.1818181,13.0801203 91.1977648,12.5682307 91.2296587,12.1695569 L91.1913862,12.1695569 C91.1020833,12.3800567 90.9617522,12.6352041 90.7703887,12.9350069 L89.0337741,15.4609919 L91.1818181,15.4609919 Z M98.8123978,16.3938841 L97.8699375,16.3938841 L97.8699375,17.92 L96.7743872,17.92 L96.7743872,16.3938841 L93.5786334,16.3938841 L93.5786334,15.5279687 L96.7743872,10.9065644 L97.8699375,10.9065644 L97.8699375,15.4609919 L98.8123978,15.4609919 L98.8123978,16.3938841 Z M96.7743872,15.4609919 L96.7743872,13.7052409 C96.7743872,13.0801203 96.7903339,12.5682307 96.8222278,12.1695569 L96.7839553,12.1695569 C96.6946524,12.3800567 96.5543213,12.6352041 96.3629578,12.9350069 L94.6263431,15.4609919 L96.7743872,15.4609919 Z" id="ACLS#4445554444" fill="#282E2E" fill-rule="nonzero"></path>
                    </g>
                    <rect id="Rectangle" fill="#E6E7E8" x="10.8" y="31.68" width="30.24" height="5.76"></rect>
                    <rect id="Rectangle" fill="#E6E7E8" x="45.36" y="31.68" width="63.36" height="5.76"></rect>
                    <rect id="Rectangle" fill="#E6E7E8" x="10.8" y="43.2" width="30.24" height="5.76"></rect>
                    <rect id="Rectangle" fill="#E6E7E8" x="45.36" y="43.2" width="34.56" height="5.76"></rect>
                </g>
                <g id="Group-31" transform="translate(26.640000, 154.080000)">
                    <g id="added-to-list-item">
                        <rect id="Rectangle" fill="#F9FAFC" x="0" y="0" width="254.88" height="61.92" rx="1.39968"></rect>
                        <g id="status/complete" transform="translate(225.000000, 20.000000)">
                            <g id="Group-2" fill="#FF0000" fill-opacity="0">
                                <rect id="Rectangle-7" x="0" y="0" width="21.34512" height="21.34512"></rect>
                            </g>
                            <polygon id="c" fill="#CFD5DF" fill-rule="nonzero" points="8.93867906 5.86596 14.0999991 11.02728 8.93867906 16.1886 7.72899469 14.9789156 11.6806303 11.02728 7.72899469 7.07564437"></polygon>
                        </g>
                        <path d="M16.0624688,17.92 L15.3639956,15.9776706 L12.6897047,15.9776706 L12.0055838,17.92 L10.8,17.92 L13.4168822,10.8969962 L14.6607384,10.8969962 L17.2776206,17.92 L16.0624688,17.92 Z M15.0625997,14.9921537 L14.4071831,13.0880969 C14.3593423,12.9605212 14.2931634,12.7595926 14.2086445,12.485305 C14.1241257,12.2110174 14.0659202,12.0100888 14.0340263,11.8825131 C13.9479127,12.2748082 13.8219336,12.7037749 13.6560853,13.1694259 L13.0245891,14.9921537 L15.0625997,14.9921537 Z M21.1766316,11.8059681 C20.519617,11.8059681 20.0029434,12.0387902 19.6265953,12.5044413 C19.2502472,12.9700923 19.0620759,13.612745 19.0620759,14.4324184 C19.0620759,15.2903646 19.2430712,15.9393959 19.605067,16.3795319 C19.9670629,16.8196678 20.4909125,17.0397325 21.1766316,17.0397325 C21.4732449,17.0397325 21.7602858,17.0102311 22.0377628,16.9512273 C22.3152398,16.8922236 22.6038754,16.8164767 22.9036781,16.7239844 L22.9036781,17.7047172 C22.3551029,17.9120276 21.733181,18.0156813 21.0378938,18.0156813 C20.0140993,18.0156813 19.2279262,17.7055176 18.6793509,17.0851811 C18.1307757,16.4648446 17.8564922,15.5774098 17.8564922,14.4228503 C17.8564922,13.6956692 17.9896473,13.0593952 18.2559614,12.5140094 C18.5222756,11.9686235 18.9073887,11.5508196 19.4113125,11.260585 C19.9152363,10.9703504 20.5068594,10.8252353 21.1861997,10.8252353 C21.9006233,10.8252353 22.5608173,10.9751344 23.1668016,11.2749372 L22.7553722,12.2269656 C22.5193573,12.1153369 22.2697912,12.0172646 22.0066664,11.9327458 C21.7435417,11.8482269 21.4668661,11.8059681 21.1766316,11.8059681 Z M24.4106578,17.92 L24.4106578,10.9257006 L25.5540487,10.9257006 L25.5540487,16.9392672 L28.5153834,16.9392672 L28.5153834,17.92 L24.4106578,17.92 Z M33.7539319,16.0207272 C33.7539319,16.6426584 33.5290832,17.1306279 33.0793791,17.4846503 C32.6296749,17.8386727 32.0093477,18.0156813 31.2183787,18.0156813 C30.4274098,18.0156813 29.7799731,17.8928915 29.2760494,17.6473084 L29.2760494,16.5661103 C29.5949885,16.7160117 29.9338562,16.8340174 30.2926627,16.9201309 C30.6514691,17.0062445 30.9855528,17.0493006 31.2949237,17.0493006 C31.7478173,17.0493006 32.081901,16.9631884 32.2971848,16.7909613 C32.5124687,16.6187341 32.6201091,16.3875068 32.6201091,16.0972722 C32.6201091,15.8357421 32.5212394,15.6140828 32.3234972,15.4322875 C32.1257549,15.2504922 31.717519,15.0352116 31.0987772,14.7864391 C30.460899,14.5280984 30.0112016,14.2330842 29.7496716,13.9013875 C29.4881415,13.5696908 29.3573784,13.171023 29.3573784,12.7053719 C29.3573784,12.1217133 29.5646857,11.6624479 29.9793066,11.3275619 C30.3939274,10.9926758 30.9504678,10.8252353 31.6489444,10.8252353 C32.3187165,10.8252353 32.9852892,10.9719451 33.6486825,11.2653691 L33.2850938,12.1982612 C32.6631625,11.9367312 32.1082168,11.8059681 31.62024,11.8059681 C31.2502707,11.8059681 30.9696085,11.886499 30.778245,12.0475633 C30.5868815,12.2086275 30.4912012,12.4215162 30.4912012,12.6862356 C30.4912012,12.8680309 30.5294734,13.0235114 30.6060188,13.1526817 C30.6825641,13.2818521 30.8085432,13.4038444 30.9839597,13.5186625 C31.1593762,13.6334806 31.4751212,13.7849744 31.9312041,13.9731484 C32.444696,14.1868376 32.8210385,14.3861716 33.0602428,14.5711562 C33.2994471,14.7561409 33.474861,14.9650429 33.5864897,15.1978684 C33.6981184,15.430694 33.7539319,15.7049775 33.7539319,16.0207272 Z M41.4610566,13.7578656 L41.1979331,15.1165394 L42.48963,15.1165394 L42.48963,15.9202619 L41.0400591,15.9202619 L40.6573341,17.92 L39.8057709,17.92 L40.1884959,15.9202619 L39.0020484,15.9202619 L38.6193234,17.92 L37.7868966,17.92 L38.1504853,15.9202619 L36.9544697,15.9202619 L36.9544697,15.1165394 L38.3083594,15.1165394 L38.5810509,13.7578656 L37.3180584,13.7578656 L37.3180584,12.9541431 L38.7197888,12.9541431 L39.1025137,10.9352688 L39.963645,10.9352688 L39.58092,12.9541431 L40.7865038,12.9541431 L41.1692288,10.9352688 L42.0016556,10.9352688 L41.6189306,12.9541431 L42.8245144,12.9541431 L42.8245144,13.7578656 L41.4610566,13.7578656 Z M39.1503544,15.1165394 L40.34637,15.1165394 L40.6190616,13.7578656 L39.4230459,13.7578656 L39.1503544,15.1165394 Z M48.4792763,16.3938841 L47.5368159,16.3938841 L47.5368159,17.92 L46.4412656,17.92 L46.4412656,16.3938841 L43.2455119,16.3938841 L43.2455119,15.5279687 L46.4412656,10.9065644 L47.5368159,10.9065644 L47.5368159,15.4609919 L48.4792763,15.4609919 L48.4792763,16.3938841 Z M46.4412656,15.4609919 L46.4412656,13.7052409 C46.4412656,13.0801203 46.4572123,12.5682307 46.4891063,12.1695569 L46.4508338,12.1695569 C46.3615308,12.3800567 46.2211997,12.6352041 46.0298363,12.9350069 L44.2932216,15.4609919 L46.4412656,15.4609919 Z M54.0718453,16.3938841 L53.129385,16.3938841 L53.129385,17.92 L52.0338347,17.92 L52.0338347,16.3938841 L48.8380809,16.3938841 L48.8380809,15.5279687 L52.0338347,10.9065644 L53.129385,10.9065644 L53.129385,15.4609919 L54.0718453,15.4609919 L54.0718453,16.3938841 Z M52.0338347,15.4609919 L52.0338347,13.7052409 C52.0338347,13.0801203 52.0497814,12.5682307 52.0816753,12.1695569 L52.0434028,12.1695569 C51.9540999,12.3800567 51.8137688,12.6352041 51.6224053,12.9350069 L49.8857906,15.4609919 L52.0338347,15.4609919 Z M59.6644144,16.3938841 L58.7219541,16.3938841 L58.7219541,17.92 L57.6264037,17.92 L57.6264037,16.3938841 L54.43065,16.3938841 L54.43065,15.5279687 L57.6264037,10.9065644 L58.7219541,10.9065644 L58.7219541,15.4609919 L59.6644144,15.4609919 L59.6644144,16.3938841 Z M57.6264038,15.4609919 L57.6264038,13.7052409 C57.6264038,13.0801203 57.6423505,12.5682307 57.6742444,12.1695569 L57.6359719,12.1695569 C57.5466689,12.3800567 57.4063378,12.6352041 57.2149744,12.9350069 L55.4783597,15.4609919 L57.6264038,15.4609919 Z M62.6401013,13.5521509 C63.3449566,13.5521509 63.9030917,13.7387275 64.3145231,14.1118862 C64.7259546,14.485045 64.9316672,14.9937452 64.9316672,15.6380022 C64.9316672,16.3843197 64.6980478,16.9671721 64.230802,17.386577 C63.7635563,17.8059819 63.0993756,18.0156813 62.23824,18.0156813 C61.4568392,18.0156813 60.8428907,17.8897022 60.3963759,17.6377403 L60.3963759,16.618735 C60.6547166,16.765447 60.9513255,16.8786687 61.2862116,16.9584034 C61.6210976,17.0381382 61.9320586,17.078005 62.2191038,17.078005 C62.7262169,17.078005 63.1121274,16.9647833 63.3768469,16.7383366 C63.6415663,16.5118898 63.7739241,16.1801981 63.7739241,15.7432516 C63.7739241,14.9076311 63.2413038,14.4898272 62.1760472,14.4898272 C62.0261458,14.4898272 61.8411639,14.5049766 61.6210959,14.5352758 C61.401028,14.565575 61.2080727,14.5998604 61.0422244,14.6381331 L60.5398978,14.3415212 L60.8078053,10.9257006 L64.4436928,10.9257006 L64.4436928,11.9255697 L61.7981063,11.9255697 L61.6402322,13.6574003 C61.7518609,13.638264 61.8882053,13.6159386 62.0492695,13.5904234 C62.2103338,13.5649083 62.4072757,13.5521509 62.6401013,13.5521509 Z M68.2326703,13.5521509 C68.9375257,13.5521509 69.4956608,13.7387275 69.9070922,14.1118862 C70.3185236,14.485045 70.5242363,14.9937452 70.5242363,15.6380022 C70.5242363,16.3843197 70.2906169,16.9671721 69.8233711,17.386577 C69.3561253,17.8059819 68.6919446,18.0156813 67.8308091,18.0156813 C67.0494083,18.0156813 66.4354597,17.8897022 65.988945,17.6377403 L65.988945,16.618735 C66.2472857,16.765447 66.5438946,16.8786687 66.8787806,16.9584034 C67.2136667,17.0381382 67.5246276,17.078005 67.8116728,17.078005 C68.318786,17.078005 68.7046965,16.9647833 68.9694159,16.7383366 C69.2341354,16.5118898 69.3664931,16.1801981 69.3664931,15.7432516 C69.3664931,14.9076311 68.8338728,14.4898272 67.7686162,14.4898272 C67.6187149,14.4898272 67.433733,14.5049766 67.213665,14.5352758 C66.993597,14.565575 66.8006418,14.5998604 66.6347934,14.6381331 L66.1324669,14.3415212 L66.4003744,10.9257006 L70.0362619,10.9257006 L70.0362619,11.9255697 L67.3906753,11.9255697 L67.2328012,13.6574003 C67.3444299,13.638264 67.4807744,13.6159386 67.6418386,13.5904234 C67.8029028,13.5649083 67.9998448,13.5521509 68.2326703,13.5521509 Z M73.8252394,13.5521509 C74.5300948,13.5521509 75.0882298,13.7387275 75.4996612,14.1118862 C75.9110927,14.485045 76.1168053,14.9937452 76.1168053,15.6380022 C76.1168053,16.3843197 75.8831859,16.9671721 75.4159402,17.386577 C74.9486944,17.8059819 74.2845137,18.0156813 73.4233781,18.0156813 C72.6419773,18.0156813 72.0280288,17.8897022 71.5815141,17.6377403 L71.5815141,16.618735 C71.8398547,16.765447 72.1364636,16.8786687 72.4713497,16.9584034 C72.8062357,17.0381382 73.1171967,17.078005 73.4042419,17.078005 C73.911355,17.078005 74.2972656,16.9647833 74.561985,16.7383366 C74.8267044,16.5118898 74.9590622,16.1801981 74.9590622,15.7432516 C74.9590622,14.9076311 74.4264419,14.4898272 73.3611853,14.4898272 C73.2112839,14.4898272 73.026302,14.5049766 72.8062341,14.5352758 C72.5861661,14.565575 72.3932108,14.5998604 72.2273625,14.6381331 L71.7250359,14.3415212 L71.9929434,10.9257006 L75.6288309,10.9257006 L75.6288309,11.9255697 L72.9832444,11.9255697 L72.8253703,13.6574003 C72.936999,13.638264 73.0733434,13.6159386 73.2344077,13.5904234 C73.3954719,13.5649083 73.5924138,13.5521509 73.8252394,13.5521509 Z M82.0346906,16.3938841 L81.0922303,16.3938841 L81.0922303,17.92 L79.99668,17.92 L79.99668,16.3938841 L76.8009262,16.3938841 L76.8009262,15.5279687 L79.99668,10.9065644 L81.0922303,10.9065644 L81.0922303,15.4609919 L82.0346906,15.4609919 L82.0346906,16.3938841 Z M79.99668,15.4609919 L79.99668,13.7052409 C79.99668,13.0801203 80.0126267,12.5682307 80.0445206,12.1695569 L80.0062481,12.1695569 C79.9169452,12.3800567 79.7766141,12.6352041 79.5852506,12.9350069 L77.8486359,15.4609919 L79.99668,15.4609919 Z M87.6272597,16.3938841 L86.6847994,16.3938841 L86.6847994,17.92 L85.5892491,17.92 L85.5892491,16.3938841 L82.3934953,16.3938841 L82.3934953,15.5279687 L85.5892491,10.9065644 L86.6847994,10.9065644 L86.6847994,15.4609919 L87.6272597,15.4609919 L87.6272597,16.3938841 Z M85.5892491,15.4609919 L85.5892491,13.7052409 C85.5892491,13.0801203 85.6051958,12.5682307 85.6370897,12.1695569 L85.5988172,12.1695569 C85.5095142,12.3800567 85.3691831,12.6352041 85.1778197,12.9350069 L83.441205,15.4609919 L85.5892491,15.4609919 Z M93.2198287,16.3938841 L92.2773684,16.3938841 L92.2773684,17.92 L91.1818181,17.92 L91.1818181,16.3938841 L87.9860644,16.3938841 L87.9860644,15.5279687 L91.1818181,10.9065644 L92.2773684,10.9065644 L92.2773684,15.4609919 L93.2198287,15.4609919 L93.2198287,16.3938841 Z M91.1818181,15.4609919 L91.1818181,13.7052409 C91.1818181,13.0801203 91.1977648,12.5682307 91.2296587,12.1695569 L91.1913862,12.1695569 C91.1020833,12.3800567 90.9617522,12.6352041 90.7703887,12.9350069 L89.0337741,15.4609919 L91.1818181,15.4609919 Z M98.8123978,16.3938841 L97.8699375,16.3938841 L97.8699375,17.92 L96.7743872,17.92 L96.7743872,16.3938841 L93.5786334,16.3938841 L93.5786334,15.5279687 L96.7743872,10.9065644 L97.8699375,10.9065644 L97.8699375,15.4609919 L98.8123978,15.4609919 L98.8123978,16.3938841 Z M96.7743872,15.4609919 L96.7743872,13.7052409 C96.7743872,13.0801203 96.7903339,12.5682307 96.8222278,12.1695569 L96.7839553,12.1695569 C96.6946524,12.3800567 96.5543213,12.6352041 96.3629578,12.9350069 L94.6263431,15.4609919 L96.7743872,15.4609919 Z" id="ACLS#4445554444" fill="#282E2E" fill-rule="nonzero"></path>
                    </g>
                    <rect id="Rectangle" fill="#E6E7E8" x="10.8" y="31.68" width="30.24" height="5.76"></rect>
                    <rect id="Rectangle" fill="#E6E7E8" x="45.36" y="31.68" width="63.36" height="5.76"></rect>
                    <rect id="Rectangle" fill="#E6E7E8" x="10.8" y="43.2" width="30.24" height="5.76"></rect>
                    <rect id="Rectangle" fill="#E6E7E8" x="45.36" y="43.2" width="34.56" height="5.76"></rect>
                </g>
            </g>
        </g>
    </g>
</svg>