<?xml version="1.0" encoding="UTF-8"?>
<svg width="262px" height="518px" viewBox="0 0 262 518" version="1.1" xmlns="http://www.w3.org/2000/svg" xmlns:xlink="http://www.w3.org/1999/xlink">
    <!-- Generator: Sketch 53.2 (72643) - https://sketchapp.com -->
    <title>port-phone</title>
    <desc>Created with Sketch.</desc>
    <defs>
        <rect id="path-1" x="0" y="0" width="253.53" height="510.3" rx="39.69"></rect>
        <filter x="-2.8%" y="-1.0%" width="105.5%" height="102.7%" filterUnits="objectBoundingBox" id="filter-2">
            <feOffset dx="0" dy="2" in="SourceAlpha" result="shadowOffsetOuter1"></feOffset>
            <feGaussianBlur stdDeviation="2" in="shadowOffsetOuter1" result="shadowBlurOuter1"></feGaussianBlur>
            <feColorMatrix values="0 0 0 0 0   0 0 0 0 0   0 0 0 0 0  0 0 0 0.158271416 0" type="matrix" in="shadowBlurOuter1"></feColorMatrix>
        </filter>
        <rect id="path-3" x="14" y="58" width="226.719" height="402.57" rx="4.86"></rect>
    </defs>
    <g id="final-graphics" stroke="none" stroke-width="1" fill="none" fill-rule="evenodd">
        <g id="port-phone" transform="translate(4.000000, 2.000000)">
            <g id="Group-23">
                <g id="Group-18">
                    <g id="Group-16">
                        <g id="Rectangle">
                            <use fill="black" fill-opacity="1" filter="url(#filter-2)" xlink:href="#path-1"></use>
                            <use fill="#2B2B2B" fill-rule="evenodd" xlink:href="#path-1"></use>
                        </g>
                    </g>
                    <g id="Group-15" transform="translate(100.440000, 28.350000)" fill="#DAE1E8">
                        <rect id="Rectangle" x="0" y="0" width="42.25" height="7.29" rx="3.564"></rect>
                        <ellipse id="Oval" cx="49.075" cy="3.645" rx="3.575" ry="3.645"></ellipse>
                    </g>
                </g>
                <mask id="mask-4" fill="white">
                    <use xlink:href="#path-3"></use>
                </mask>
                <use id="Mask" fill="#F3FBFF" xlink:href="#path-3"></use>
            </g>
            <g id="Group-49" opacity="0.854189918" transform="translate(21.000000, 59.000000)">
                <g id="Group-50">
                    <g id="Group-34">
                        <g id="Group-22">
                            <g id="Group-10">
                                <rect id="Mask" fill="#FFFFFF" x="0" y="0.0405504" width="210.760704" height="125.908992" rx="10.64448"></rect>
                                <polygon id="Line-9" fill="#E6E8EC" fill-rule="nonzero" points="15.0530512 30.8702768 15.0530512 30.3202768 180.798854 30.3202768 180.798854 30.8702768"></polygon>
                            </g>
                            <path d="M122.62441,94.6472032 C122.021154,94.6472032 121.532118,95.1362386 121.532118,95.7394944 L121.532118,110.520115 C121.532118,111.123371 122.021154,111.612406 122.62441,111.612406 L197.074944,111.612406 C197.6782,111.612406 198.167235,111.123371 198.167235,110.520115 L198.167235,95.7394944 C198.167235,95.1362386 197.6782,94.6472032 197.074944,94.6472032 L122.62441,94.6472032 Z M122.62441,94.0972032 L197.074944,94.0972032 C197.981956,94.0972032 198.717235,94.832482 198.717235,95.7394944 L198.717235,110.520115 C198.717235,111.427128 197.981956,112.162406 197.074944,112.162406 L122.62441,112.162406 C121.717397,112.162406 120.982118,111.427128 120.982118,110.520115 L120.982118,95.7394944 C120.982118,94.832482 121.717397,94.0972032 122.62441,94.0972032 Z" id="Rectangle" fill="#E9E9E9" fill-rule="nonzero"></path>
                            <path d="M130.434381,106.476646 L129.211216,102.490936 L129.179942,102.490936 C129.223958,103.30175 129.245965,103.842671 129.245965,104.113714 L129.245965,106.476646 L128.283418,106.476646 L128.283418,101.396343 L129.749826,101.396343 L130.952141,105.281281 L130.972991,105.281281 L132.248279,101.396343 L133.714687,101.396343 L133.714687,106.476646 L132.710441,106.476646 L132.710441,104.072016 C132.710441,103.958502 132.712178,103.827615 132.715653,103.679352 C132.719128,103.531089 132.734765,103.137271 132.762564,102.497886 L132.73129,102.497886 L131.421253,106.476646 L130.434381,106.476646 Z M137.919316,106.476646 L134.99345,106.476646 L134.99345,101.396343 L137.919316,101.396343 L137.919316,102.278967 L136.070669,102.278967 L136.070669,103.39441 L137.790744,103.39441 L137.790744,104.277035 L136.070669,104.277035 L136.070669,105.587072 L137.919316,105.587072 L137.919316,106.476646 Z M143.194214,103.887846 C143.194214,104.724143 142.956186,105.364676 142.480122,105.809466 C142.004058,106.254255 141.316614,106.476646 140.417769,106.476646 L138.97916,106.476646 L138.97916,101.396343 L140.574139,101.396343 C141.403486,101.396343 142.047495,101.615259 142.506184,102.053099 C142.964873,102.490938 143.194214,103.102515 143.194214,103.887846 Z M142.075296,103.915645 C142.075296,102.824521 141.593448,102.278967 140.629738,102.278967 L140.056379,102.278967 L140.056379,105.587072 L140.518541,105.587072 C141.556383,105.587072 142.075296,105.029935 142.075296,103.915645 Z M144.247108,106.476646 L144.247108,101.396343 L145.324328,101.396343 L145.324328,106.476646 L144.247108,106.476646 Z M148.761004,102.219894 C148.355597,102.219894 148.0417,102.372209 147.819306,102.676843 C147.596911,102.981478 147.485715,103.40599 147.485715,103.950394 C147.485715,105.083217 147.910807,105.64962 148.761004,105.64962 C149.117762,105.64962 149.549803,105.560432 150.057141,105.382053 L150.057141,106.285527 C149.640151,106.459273 149.174519,106.546144 148.660232,106.546144 C147.921232,106.546144 147.355988,106.322016 146.96448,105.873751 C146.572973,105.425487 146.377222,104.782058 146.377222,103.943444 C146.377222,103.415257 146.47336,102.952521 146.665639,102.555222 C146.857918,102.157923 147.134169,101.853293 147.494403,101.641323 C147.854636,101.429353 148.276832,101.32337 148.761004,101.32337 C149.254442,101.32337 149.750189,101.442673 150.248261,101.681284 L149.900771,102.556959 C149.710809,102.466611 149.519691,102.387848 149.327412,102.320666 C149.135134,102.253484 148.946333,102.219894 148.761004,102.219894 Z M154.247871,106.476646 L153.879531,105.267381 L152.02741,105.267381 L151.65907,106.476646 L150.498454,106.476646 L152.291502,101.375493 L153.608489,101.375493 L155.408487,106.476646 L154.247871,106.476646 Z M153.622389,104.363907 C153.281847,103.26815 153.09015,102.648466 153.047293,102.504836 C153.004435,102.361206 152.973741,102.247694 152.955208,102.164296 C152.87876,102.460822 152.659843,103.194018 152.298452,104.363907 L153.622389,104.363907 Z M156.047869,106.476646 L156.047869,101.396343 L157.125088,101.396343 L157.125088,105.587072 L159.185704,105.587072 L159.185704,106.476646 L156.047869,106.476646 Z M161.916975,106.476646 L161.916975,101.396343 L162.994194,101.396343 L162.994194,105.587072 L165.05481,105.587072 L165.05481,106.476646 L161.916975,106.476646 Z M165.937434,106.476646 L165.937434,101.396343 L167.014653,101.396343 L167.014653,106.476646 L165.937434,106.476646 Z M170.451329,102.219894 C170.045922,102.219894 169.732026,102.372209 169.509632,102.676843 C169.287237,102.981478 169.176041,103.40599 169.176041,103.950394 C169.176041,105.083217 169.601133,105.64962 170.451329,105.64962 C170.808088,105.64962 171.240129,105.560432 171.747467,105.382053 L171.747467,106.285527 C171.330477,106.459273 170.864845,106.546144 170.350557,106.546144 C169.611558,106.546144 169.046313,106.322016 168.654806,105.873751 C168.263299,105.425487 168.067548,104.782058 168.067548,103.943444 C168.067548,103.415257 168.163686,102.952521 168.355965,102.555222 C168.548243,102.157923 168.824495,101.853293 169.184728,101.641323 C169.544961,101.429353 169.967158,101.32337 170.451329,101.32337 C170.944768,101.32337 171.440515,101.442673 171.938587,101.681284 L171.591097,102.556959 C171.401134,102.466611 171.210017,102.387848 171.017738,102.320666 C170.825459,102.253484 170.636658,102.219894 170.451329,102.219894 Z M175.754027,106.476646 L172.828161,106.476646 L172.828161,101.396343 L175.754027,101.396343 L175.754027,102.278967 L173.90538,102.278967 L173.90538,103.39441 L175.625455,103.39441 L175.625455,104.277035 L173.90538,104.277035 L173.90538,105.587072 L175.754027,105.587072 L175.754027,106.476646 Z M181.320817,106.476646 L179.951706,106.476646 L177.74167,102.633407 L177.710396,102.633407 C177.754411,103.312174 177.776419,103.796339 177.776419,104.085915 L177.776419,106.476646 L176.813871,106.476646 L176.813871,101.396343 L178.172557,101.396343 L180.379119,105.201358 L180.403443,105.201358 C180.368694,104.541124 180.351319,104.074334 180.351319,103.800973 L180.351319,101.396343 L181.320817,101.396343 L181.320817,106.476646 Z M185.598419,105.065837 C185.598418,105.524526 185.433362,105.885912 185.103245,106.150006 C184.773128,106.4141 184.313867,106.546144 183.725447,106.546144 C183.18336,106.546144 182.703829,106.444215 182.286839,106.240353 L182.286839,105.239582 C182.629697,105.392478 182.919849,105.500199 183.157301,105.562748 C183.394754,105.625296 183.611933,105.65657 183.808845,105.65657 C184.045139,105.65657 184.226412,105.611397 184.352667,105.521049 C184.478922,105.430701 184.542049,105.29634 184.542049,105.117961 C184.542049,105.018346 184.51425,104.929737 184.458651,104.852131 C184.403053,104.774524 184.321393,104.699815 184.213671,104.628 C184.105948,104.556185 183.886453,104.441514 183.555177,104.283985 C183.244751,104.138038 183.011935,103.997885 182.856722,103.863522 C182.701509,103.729158 182.577573,103.572789 182.484908,103.39441 C182.392244,103.216031 182.345912,103.007539 182.345912,102.768928 C182.345912,102.319505 182.498227,101.966227 182.802861,101.709084 C183.107496,101.45194 183.528534,101.32337 184.065988,101.32337 C184.330081,101.32337 184.582009,101.354643 184.821778,101.417192 C185.061548,101.479741 185.312317,101.56777 185.574094,101.681284 L185.226604,102.518735 C184.955561,102.407538 184.731432,102.329933 184.554211,102.285917 C184.37699,102.241901 184.202668,102.219894 184.031239,102.219894 C183.827377,102.219894 183.671008,102.267384 183.562127,102.362365 C183.453246,102.457346 183.398807,102.581283 183.398807,102.734179 C183.398807,102.82916 183.420814,102.911978 183.46483,102.982634 C183.508846,103.053291 183.578922,103.12163 183.675061,103.187654 C183.771201,103.253677 183.998804,103.372402 184.357879,103.543831 C184.832785,103.770859 185.158264,103.998462 185.334326,104.226649 C185.510389,104.454835 185.598418,104.734562 185.598419,105.065837 Z M189.445133,106.476646 L186.519267,106.476646 L186.519267,101.396343 L189.445133,101.396343 L189.445133,102.278967 L187.596486,102.278967 L187.596486,103.39441 L189.316562,103.39441 L189.316562,104.277035 L187.596486,104.277035 L187.596486,105.587072 L189.445133,105.587072 L189.445133,106.476646 Z" id="MEDICALLICENSE" fill="#455959" fill-rule="nonzero"></path>
                        </g>
                        <rect id="Rectangle" fill="#E6E7E8" x="15.71328" y="97.32096" width="23.82336" height="4.05504"></rect>
                        <rect id="Rectangle" fill="#E6E7E8" x="47.13984" y="97.32096" width="62.34624" height="4.05504"></rect>
                        <rect id="Rectangle" fill="#E6E7E8" x="15.71328" y="104.92416" width="23.82336" height="4.05504"></rect>
                        <rect id="Rectangle" fill="#E6E7E8" x="47.13984" y="104.92416" width="37.50912" height="4.05504"></rect>
                    </g>
                    <rect id="Rectangle" fill="#FFAA00" x="21" y="12" width="23" height="8" rx="4"></rect>
                    <rect id="Rectangle" fill="#E6E7E8" x="16" y="40" width="134" height="8"></rect>
                    <rect id="Rectangle" fill="#E6E7E8" x="16" y="52" width="38" height="8"></rect>
                </g>
                <g id="Group-50" transform="translate(0.000000, 137.000000)">
                    <g id="Group-34">
                        <g id="Group-22">
                            <g id="Group-10">
                                <rect id="Mask" fill="#FFFFFF" x="0" y="0.0405504" width="210.760704" height="125.908992" rx="10.64448"></rect>
                                <polygon id="Line-9" fill="#E6E8EC" fill-rule="nonzero" points="15.0530512 30.8702768 15.0530512 30.3202768 180.798854 30.3202768 180.798854 30.8702768"></polygon>
                            </g>
                            <path d="M122.62441,94.6472032 C122.021154,94.6472032 121.532118,95.1362386 121.532118,95.7394944 L121.532118,110.520115 C121.532118,111.123371 122.021154,111.612406 122.62441,111.612406 L197.074944,111.612406 C197.6782,111.612406 198.167235,111.123371 198.167235,110.520115 L198.167235,95.7394944 C198.167235,95.1362386 197.6782,94.6472032 197.074944,94.6472032 L122.62441,94.6472032 Z M122.62441,94.0972032 L197.074944,94.0972032 C197.981956,94.0972032 198.717235,94.832482 198.717235,95.7394944 L198.717235,110.520115 C198.717235,111.427128 197.981956,112.162406 197.074944,112.162406 L122.62441,112.162406 C121.717397,112.162406 120.982118,111.427128 120.982118,110.520115 L120.982118,95.7394944 C120.982118,94.832482 121.717397,94.0972032 122.62441,94.0972032 Z" id="Rectangle" fill="#E9E9E9" fill-rule="nonzero"></path>
                            <path d="M142.342863,106.476646 L141.269119,106.476646 L141.269119,104.283985 L139.257152,104.283985 L139.257152,106.476646 L138.179933,106.476646 L138.179933,101.396343 L139.257152,101.396343 L139.257152,103.38746 L141.269119,103.38746 L141.269119,101.396343 L142.342863,101.396343 L142.342863,106.476646 Z M146.550967,106.476646 L143.625101,106.476646 L143.625101,101.396343 L146.550967,101.396343 L146.550967,102.278967 L144.70232,102.278967 L144.70232,103.39441 L146.422396,103.39441 L146.422396,104.277035 L144.70232,104.277035 L144.70232,105.587072 L146.550967,105.587072 L146.550967,106.476646 Z M150.720847,106.476646 L150.352508,105.267381 L148.500386,105.267381 L148.132047,106.476646 L146.97143,106.476646 L148.764478,101.375493 L150.081466,101.375493 L151.881464,106.476646 L150.720847,106.476646 Z M150.095365,104.363907 C149.754823,103.26815 149.563127,102.648466 149.520269,102.504836 C149.477412,102.361206 149.446717,102.247694 149.428184,102.164296 C149.351736,102.460822 149.13282,103.194018 148.771428,104.363907 L150.095365,104.363907 Z M153.598064,103.651553 L153.945554,103.651553 C154.286096,103.651553 154.537445,103.594797 154.699608,103.481283 C154.861771,103.367769 154.942851,103.189392 154.942851,102.946148 C154.942851,102.70522 154.860033,102.533794 154.694395,102.431863 C154.528758,102.329932 154.272197,102.278967 153.924705,102.278967 L153.598064,102.278967 L153.598064,103.651553 Z M153.598064,104.527228 L153.598064,106.476646 L152.520845,106.476646 L152.520845,101.396343 L154.001153,101.396343 C154.691503,101.396343 155.202308,101.522017 155.533584,101.773369 C155.864859,102.024722 156.030494,102.406378 156.030494,102.918349 C156.030494,103.217192 155.948256,103.483019 155.783777,103.715838 C155.619297,103.948658 155.386481,104.131088 155.085322,104.263135 C155.849803,105.405225 156.347867,106.143054 156.579529,106.476646 L155.384163,106.476646 L154.171423,104.527228 L153.598064,104.527228 Z M159.178754,106.476646 L158.101535,106.476646 L158.101535,102.292867 L156.722,102.292867 L156.722,101.396343 L160.558289,101.396343 L160.558289,102.292867 L159.178754,102.292867 L159.178754,106.476646 Z M163.355584,102.219894 C162.950177,102.219894 162.63628,102.372209 162.413886,102.676843 C162.191491,102.981478 162.080295,103.40599 162.080295,103.950394 C162.080295,105.083217 162.505387,105.64962 163.355584,105.64962 C163.712342,105.64962 164.144383,105.560432 164.651721,105.382053 L164.651721,106.285527 C164.234731,106.459273 163.769099,106.546144 163.254812,106.546144 C162.515812,106.546144 161.950568,106.322016 161.55906,105.873751 C161.167553,105.425487 160.971802,104.782058 160.971802,103.943444 C160.971802,103.415257 161.06794,102.952521 161.260219,102.555222 C161.452498,102.157923 161.728749,101.853293 162.088983,101.641323 C162.449216,101.429353 162.871412,101.32337 163.355584,101.32337 C163.849022,101.32337 164.344769,101.442673 164.842841,101.681284 L164.495351,102.556959 C164.305389,102.466611 164.114271,102.387848 163.921992,102.320666 C163.729714,102.253484 163.540913,102.219894 163.355584,102.219894 Z M168.842451,106.476646 L168.474111,105.267381 L166.62199,105.267381 L166.25365,106.476646 L165.093034,106.476646 L166.886082,101.375493 L168.203069,101.375493 L170.003067,106.476646 L168.842451,106.476646 Z M168.216969,104.363907 C167.876427,103.26815 167.68473,102.648466 167.641873,102.504836 C167.599015,102.361206 167.568321,102.247694 167.549788,102.164296 C167.47334,102.460822 167.254423,103.194018 166.893032,104.363907 L168.216969,104.363907 Z M171.719668,103.651553 L172.067158,103.651553 C172.4077,103.651553 172.659048,103.594797 172.821211,103.481283 C172.983374,103.367769 173.064454,103.189392 173.064454,102.946148 C173.064454,102.70522 172.981637,102.533794 172.815999,102.431863 C172.650361,102.329932 172.3938,102.278967 172.046309,102.278967 L171.719668,102.278967 L171.719668,103.651553 Z M171.719668,104.527228 L171.719668,106.476646 L170.642449,106.476646 L170.642449,101.396343 L172.122756,101.396343 C172.813107,101.396343 173.323912,101.522017 173.655187,101.773369 C173.986463,102.024722 174.152098,102.406378 174.152098,102.918349 C174.152098,103.217192 174.069859,103.483019 173.90538,103.715838 C173.740901,103.948658 173.508085,104.131088 173.206925,104.263135 C173.971407,105.405225 174.469471,106.143054 174.701132,106.476646 L173.505766,106.476646 L172.293026,104.527228 L171.719668,104.527228 Z M179.555567,103.887846 C179.555567,104.724143 179.317539,105.364676 178.841475,105.809466 C178.365412,106.254255 177.677968,106.476646 176.779122,106.476646 L175.340514,106.476646 L175.340514,101.396343 L176.935493,101.396343 C177.76484,101.396343 178.408848,101.615259 178.867537,102.053099 C179.326226,102.490938 179.555567,103.102515 179.555567,103.887846 Z M178.43665,103.915645 C178.43665,102.824521 177.954802,102.278967 176.991091,102.278967 L176.417733,102.278967 L176.417733,105.587072 L176.879894,105.587072 C177.917736,105.587072 178.43665,105.029935 178.43665,103.915645 Z" id="HEARTCARD" fill="#455959" fill-rule="nonzero"></path>
                        </g>
                        <rect id="Rectangle" fill="#E6E7E8" x="15.71328" y="97.32096" width="23.82336" height="4.05504"></rect>
                        <rect id="Rectangle" fill="#E6E7E8" x="47.13984" y="97.32096" width="62.34624" height="4.05504"></rect>
                        <rect id="Rectangle" fill="#E6E7E8" x="15.71328" y="104.92416" width="23.82336" height="4.05504"></rect>
                        <rect id="Rectangle" fill="#E6E7E8" x="47.13984" y="104.92416" width="37.50912" height="4.05504"></rect>
                    </g>
                    <rect id="Rectangle" fill="#00D779" x="21" y="12" width="23" height="8" rx="4"></rect>
                    <rect id="Rectangle" fill="#E6E7E8" x="16" y="40" width="134" height="8"></rect>
                    <rect id="Rectangle" fill="#E6E7E8" x="16" y="52" width="38" height="8"></rect>
                </g>
                <g id="Group-50" transform="translate(0.000000, 276.000000)">
                    <g id="Group-34">
                        <g id="Group-22">
                            <g id="Group-10">
                                <rect id="Mask" fill="#FFFFFF" x="0" y="0.0405504" width="210.760704" height="125.908992" rx="10.64448"></rect>
                                <polygon id="Line-9" fill="#E6E8EC" fill-rule="nonzero" points="15.0530512 30.8702768 15.0530512 30.3202768 180.798854 30.3202768 180.798854 30.8702768"></polygon>
                            </g>
                            <path d="M122.62441,94.6472032 C122.021154,94.6472032 121.532118,95.1362386 121.532118,95.7394944 L121.532118,110.520115 C121.532118,111.123371 122.021154,111.612406 122.62441,111.612406 L197.074944,111.612406 C197.6782,111.612406 198.167235,111.123371 198.167235,110.520115 L198.167235,95.7394944 C198.167235,95.1362386 197.6782,94.6472032 197.074944,94.6472032 L122.62441,94.6472032 Z M122.62441,94.0972032 L197.074944,94.0972032 C197.981956,94.0972032 198.717235,94.832482 198.717235,95.7394944 L198.717235,110.520115 C198.717235,111.427128 197.981956,112.162406 197.074944,112.162406 L122.62441,112.162406 C121.717397,112.162406 120.982118,111.427128 120.982118,110.520115 L120.982118,95.7394944 C120.982118,94.832482 121.717397,94.0972032 122.62441,94.0972032 Z" id="Rectangle" fill="#E9E9E9" fill-rule="nonzero"></path>
                            <path d="M135.135921,102.219894 C134.730514,102.219894 134.416618,102.372209 134.194223,102.676843 C133.971828,102.981478 133.860632,103.40599 133.860632,103.950394 C133.860632,105.083217 134.285724,105.64962 135.135921,105.64962 C135.492679,105.64962 135.92472,105.560432 136.432058,105.382053 L136.432058,106.285527 C136.015068,106.459273 135.549436,106.546144 135.035149,106.546144 C134.29615,106.546144 133.730905,106.322016 133.339397,105.873751 C132.94789,105.425487 132.752139,104.782058 132.752139,103.943444 C132.752139,103.415257 132.848277,102.952521 133.040556,102.555222 C133.232835,102.157923 133.509087,101.853293 133.86932,101.641323 C134.229553,101.429353 134.651749,101.32337 135.135921,101.32337 C135.629359,101.32337 136.125106,101.442673 136.623178,101.681284 L136.275688,102.556959 C136.085726,102.466611 135.894608,102.387848 135.702329,102.320666 C135.510051,102.253484 135.32125,102.219894 135.135921,102.219894 Z M140.438618,106.476646 L137.512752,106.476646 L137.512752,101.396343 L140.438618,101.396343 L140.438618,102.278967 L138.589971,102.278967 L138.589971,103.39441 L140.310047,103.39441 L140.310047,104.277035 L138.589971,104.277035 L138.589971,105.587072 L140.438618,105.587072 L140.438618,106.476646 Z M142.575682,103.651553 L142.923172,103.651553 C143.263714,103.651553 143.515062,103.594797 143.677225,103.481283 C143.839388,103.367769 143.920468,103.189392 143.920468,102.946148 C143.920468,102.70522 143.83765,102.533794 143.672013,102.431863 C143.506375,102.329932 143.249814,102.278967 142.902322,102.278967 L142.575682,102.278967 L142.575682,103.651553 Z M142.575682,104.527228 L142.575682,106.476646 L141.498463,106.476646 L141.498463,101.396343 L142.97877,101.396343 C143.66912,101.396343 144.179925,101.522017 144.511201,101.773369 C144.842476,102.024722 145.008112,102.406378 145.008112,102.918349 C145.008112,103.217192 144.925873,103.483019 144.761394,103.715838 C144.596914,103.948658 144.364098,104.131088 144.062939,104.263135 C144.827421,105.405225 145.325485,106.143054 145.557146,106.476646 L144.36178,106.476646 L143.14904,104.527228 L142.575682,104.527228 Z M148.156371,106.476646 L147.079152,106.476646 L147.079152,102.292867 L145.699617,102.292867 L145.699617,101.396343 L149.535906,101.396343 L149.535906,102.292867 L148.156371,102.292867 L148.156371,106.476646 Z M150.317759,106.476646 L150.317759,101.396343 L151.394978,101.396343 L151.394978,106.476646 L150.317759,106.476646 Z M153.733586,106.476646 L152.673741,106.476646 L152.673741,101.396343 L155.585707,101.396343 L155.585707,102.278967 L153.733586,102.278967 L153.733586,103.589005 L155.457136,103.589005 L155.457136,104.468154 L153.733586,104.468154 L153.733586,106.476646 Z M156.579529,106.476646 L156.579529,101.396343 L157.656748,101.396343 L157.656748,106.476646 L156.579529,106.476646 Z M161.093424,102.219894 C160.688017,102.219894 160.374121,102.372209 160.151726,102.676843 C159.929331,102.981478 159.818135,103.40599 159.818135,103.950394 C159.818135,105.083217 160.243227,105.64962 161.093424,105.64962 C161.450182,105.64962 161.882223,105.560432 162.389561,105.382053 L162.389561,106.285527 C161.972571,106.459273 161.506939,106.546144 160.992652,106.546144 C160.253653,106.546144 159.688408,106.322016 159.2969,105.873751 C158.905393,105.425487 158.709642,104.782058 158.709642,103.943444 C158.709642,103.415257 158.80578,102.952521 158.998059,102.555222 C159.190338,102.157923 159.46659,101.853293 159.826823,101.641323 C160.187056,101.429353 160.609252,101.32337 161.093424,101.32337 C161.586862,101.32337 162.082609,101.442673 162.580681,101.681284 L162.233191,102.556959 C162.043229,102.466611 161.852111,102.387848 161.659832,102.320666 C161.467554,102.253484 161.278753,102.219894 161.093424,102.219894 Z M166.580291,106.476646 L166.211951,105.267381 L164.35983,105.267381 L163.99149,106.476646 L162.830874,106.476646 L164.623922,101.375493 L165.940909,101.375493 L167.740907,106.476646 L166.580291,106.476646 Z M165.954809,104.363907 C165.614267,103.26815 165.42257,102.648466 165.379713,102.504836 C165.336856,102.361206 165.306161,102.247694 165.287628,102.164296 C165.21118,102.460822 164.992263,103.194018 164.630872,104.363907 L165.954809,104.363907 Z M169.843222,106.476646 L168.766003,106.476646 L168.766003,102.292867 L167.386468,102.292867 L167.386468,101.396343 L171.222757,101.396343 L171.222757,102.292867 L169.843222,102.292867 L169.843222,106.476646 Z M172.00461,106.476646 L172.00461,101.396343 L173.081829,101.396343 L173.081829,106.476646 L172.00461,106.476646 Z M178.971784,103.929545 C178.971784,104.770475 178.763292,105.4168 178.346302,105.868539 C177.929312,106.320278 177.331635,106.546144 176.553254,106.546144 C175.774872,106.546144 175.177195,106.320278 174.760205,105.868539 C174.343215,105.4168 174.134723,104.768158 174.134723,103.922595 C174.134723,103.077032 174.343794,102.431286 174.761943,101.985338 C175.180091,101.53939 175.779505,101.31642 176.560204,101.31642 C177.340902,101.31642 177.937999,101.541128 178.351515,101.990551 C178.76503,102.439973 178.971784,103.086298 178.971784,103.929545 Z M175.264066,103.929545 C175.264066,104.497115 175.371787,104.924523 175.587232,105.211783 C175.802676,105.499043 176.124681,105.64267 176.553254,105.64267 C177.412717,105.64267 177.842442,105.071634 177.842442,103.929545 C177.842442,102.785139 177.415033,102.212944 176.560204,102.212944 C176.13163,102.212944 175.808468,102.357151 175.590707,102.645569 C175.372945,102.933987 175.264066,103.361975 175.264066,103.929545 Z M184.531624,106.476646 L183.162514,106.476646 L180.952477,102.633407 L180.921203,102.633407 C180.965219,103.312174 180.987226,103.796339 180.987226,104.085915 L180.987226,106.476646 L180.024679,106.476646 L180.024679,101.396343 L181.383365,101.396343 L183.589926,105.201358 L183.614251,105.201358 C183.579501,104.541124 183.562127,104.074334 183.562127,103.800973 L183.562127,101.396343 L184.531624,101.396343 L184.531624,106.476646 Z" id="CERTIFICATION" fill="#455959" fill-rule="nonzero"></path>
                        </g>
                        <rect id="Rectangle" fill="#E6E7E8" x="15.71328" y="97.32096" width="23.82336" height="4.05504"></rect>
                        <rect id="Rectangle" fill="#E6E7E8" x="47.13984" y="97.32096" width="62.34624" height="4.05504"></rect>
                        <rect id="Rectangle" fill="#E6E7E8" x="15.71328" y="104.92416" width="23.82336" height="4.05504"></rect>
                        <rect id="Rectangle" fill="#E6E7E8" x="47.13984" y="104.92416" width="37.50912" height="4.05504"></rect>
                    </g>
                    <rect id="Rectangle" fill="#00D779" x="21" y="12" width="23" height="8" rx="4"></rect>
                    <rect id="Rectangle" fill="#E6E7E8" x="16" y="40" width="134" height="8"></rect>
                    <rect id="Rectangle" fill="#E6E7E8" x="16" y="52" width="38" height="8"></rect>
                </g>
            </g>
        </g>
    </g>
</svg>