<?xml version="1.0" encoding="UTF-8"?>
<svg width="2151px" height="1364px" viewBox="0 0 2151 1364" version="1.1" xmlns="http://www.w3.org/2000/svg" xmlns:xlink="http://www.w3.org/1999/xlink">
    <!-- Generator: Sketch 53.2 (72643) - https://sketchapp.com -->
    <title>Group 19</title>
    <desc>Created with Sketch.</desc>
    <defs>
        <linearGradient x1="50%" y1="0%" x2="50%" y2="100%" id="linearGradient-1">
            <stop stop-color="#FFFFFF" offset="0%"></stop>
            <stop stop-color="#F6FAFF" offset="100%"></stop>
        </linearGradient>
    </defs>
    <g id="Page-3" stroke="none" stroke-width="1" fill="none" fill-rule="evenodd">
        <g id="Group-19" transform="translate(-115.000000, -219.000000)" fill="url(#linearGradient-1)">
            <path d="M247.664493,984.91262 C172.876404,1217.92523 191.697725,1433.82275 323.230637,1557.90477 C450.774598,1683.55882 691.028885,1717.39629 966.962334,1622.59974 C1104.13519,1578.33349 1234.22712,1509.08325 1344.62353,1433.90917 C1455.26916,1358.39706 1546.22307,1276.96003 1610.86735,1200.5618 C1675.76087,1123.82664 1714.34603,1052.13137 1725.99661,988.360801 C1737.89767,924.255476 1722.86162,868.074841 1686.25891,814.613807 C1649.47276,761.026966 1594.95709,712.443927 1534.88245,661.546055 C1474.57503,610.97528 1408.70863,558.089671 1343.8518,503.409959 C1278.76219,449.058436 1214.68088,392.914996 1152.58962,343.326602 C1090.26685,294.065304 1029.93033,251.360145 966.962334,231.402919 C842.500227,186.155383 721.719645,249.674343 589.908404,391.638337 C461.825498,532.211901 322.7132,751.230499 247.664493,984.91262" id="Fill-1" transform="translate(967.000000, 947.000000) rotate(20.000000) translate(-967.000000, -947.000000) "></path>
            <path d="M695.511365,984.91262 C620.723276,1217.92523 639.544597,1433.82275 771.077509,1557.90477 C898.62147,1683.55882 1138.87576,1717.39629 1414.80921,1622.59974 C1551.98206,1578.33349 1682.07399,1509.08325 1792.4704,1433.90917 C1903.11603,1358.39706 1994.06994,1276.96003 2058.71423,1200.5618 C2123.60774,1123.82664 2162.19291,1052.13137 2173.84348,988.360801 C2185.74454,924.255476 2170.70849,868.074841 2134.10578,814.613807 C2097.31963,761.026966 2042.80397,712.443927 1982.72932,661.546055 C1922.4219,610.97528 1856.5555,558.089671 1791.69867,503.409959 C1726.60906,449.058436 1662.52775,392.914996 1600.4365,343.326602 C1538.11372,294.065304 1477.7772,251.360145 1414.80921,231.402919 C1290.3471,186.155383 1169.56652,249.674343 1037.75528,391.638337 C909.67237,532.211901 770.560071,751.230499 695.511365,984.91262" id="Fill-1" opacity="0.577264695" transform="translate(1414.846872, 947.000000) scale(-1, 1) rotate(20.000000) translate(-1414.846872, -947.000000) "></path>
        </g>
    </g>
</svg>