<?xml version="1.0" encoding="UTF-8"?>
<svg width="215px" height="22px" viewBox="0 0 215 22" version="1.1" xmlns="http://www.w3.org/2000/svg" xmlns:xlink="http://www.w3.org/1999/xlink">
    <!-- Generator: Sketch 53.2 (72643) - https://sketchapp.com -->
    <title>Group 6</title>
    <desc>Created with Sketch.</desc>
    <g id="Page-3" stroke="none" stroke-width="1" fill="none" fill-rule="evenodd">
        <g id="Home---slide-3" transform="translate(-154.000000, -4502.000000)">
            <g id="Group-44" transform="translate(0.000000, 4451.000000)">
                <g id="Group-6" transform="translate(154.000000, 51.000000)">
                    <g id="Group-2" transform="translate(0.862823, 0.858003)">
                        <g id="Group" fill="#FFFFFF">
                            <path d="M7.3109703,8.44259289 C5.57352117,8.44259289 4.44148391,9.68382544 4.1111336,11.5871408 L10.4278739,11.5871408 C10.1804567,9.71146982 9.07744602,8.44259289 7.3109703,8.44259289 Z M14.4570419,14.20921 L4.16642236,14.20921 C4.57832358,16.1125254 5.90387148,17.1063408 7.7795425,17.1063408 C9.18664131,17.1063408 10.2081011,16.6640308 11.3664005,15.5886645 L13.7673147,17.7131349 C12.3878602,19.4229396 10.4016117,20.4720438 7.72425374,20.4720438 C3.28318449,20.4720438 0.000414665663,17.3551402 0.000414665663,12.8297556 L0.000414665663,12.7744668 C0.000414665663,8.5531704 3.00674072,5.07688993 7.3109703,5.07688993 C12.2496383,5.07688993 14.5109484,8.91116509 14.5109484,13.1048172 L14.5109484,13.1614881 C14.5109484,13.5747716 14.4846863,13.8221888 14.4570419,14.20921 Z" id="Fill-1"></path>
                            <polygon id="Fill-3" points="24.1298096 20.2507505 20.3217966 20.2507505 14.5012729 5.35181326 18.9423421 5.35181326 22.2541386 15.2567937 25.5921971 5.35181326 29.9517155 5.35181326"></polygon>
                            <path d="M37.2129259,8.44259289 C35.4754768,8.44259289 34.3434395,9.68382544 34.0130892,11.5871408 L40.3312117,11.5871408 C40.0824123,9.71146982 38.9780194,8.44259289 37.2129259,8.44259289 M44.3589975,14.20921 L34.068378,14.20921 C34.4816614,16.1125254 35.8058271,17.1063408 37.6814981,17.1063408 C39.0885969,17.1063408 40.1100567,16.6640308 41.2697383,15.5886645 L43.6692703,17.7131349 C42.2898158,19.4229396 40.3021851,20.4720438 37.6262093,20.4720438 C33.1851401,20.4720438 29.900988,17.3551402 29.900988,12.8297556 L29.900988,12.7744668 C29.900988,8.5531704 32.9086963,5.07688993 37.2129259,5.07688993 C42.1515939,5.07688993 44.4142862,8.91116509 44.4142862,13.1048172 L44.4142862,13.1614881 C44.4142862,13.5747716 44.3866419,13.8221888 44.3589975,14.20921" id="Fill-5"></path>
                            <path d="M55.2540613,9.46363797 C52.4675081,9.46363797 50.7563211,11.1457983 50.7563211,14.6773676 L50.7563211,20.1412788 L46.562669,20.1412788 L46.562669,5.35153682 L50.7563211,5.35153682 L50.7563211,8.33298293 C51.6119146,6.29006344 52.991369,4.96589775 55.4752163,5.07647526 L55.4752163,9.46363797 L55.2540613,9.46363797 Z" id="Fill-7"></path>
                            <path d="M63.9421363,20.4714909 C59.4996848,20.4714909 56.2445594,17.0504992 56.2445594,12.8292027 L56.2445594,12.773914 C56.2445594,8.55261751 59.4734227,5.07633704 63.997425,5.07633704 C66.7839783,5.07633704 68.5214274,6.01486366 69.9022641,7.55880214 L67.3354836,10.317711 C66.396957,9.32527787 65.4598126,8.6908394 63.9697807,8.6908394 C61.8729546,8.6908394 60.3829227,10.538866 60.3829227,12.7200074 L60.3829227,12.773914 C60.3829227,15.035224 61.843928,16.8569885 64.1356469,16.8569885 C65.5427457,16.8569885 66.5075345,16.2501944 67.5289943,15.2840234 L69.9851972,17.7678708 C68.5490718,19.3408358 66.8945558,20.4714909 63.9421363,20.4714909" id="Fill-9"></path>
                            <path d="M80.9904239,20.1408641 L80.9904239,11.8917819 C80.9904239,9.90415113 80.0518973,8.8840736 78.45267,8.8840736 C76.8506784,8.8840736 75.8306008,9.90415113 75.8306008,11.8917819 L75.8306008,20.1408641 L71.6369488,20.1408641 L71.6369488,0.00055288755 L75.8306008,0.00055288755 L75.8306008,7.44933041 C76.7967718,6.20671564 78.0380044,5.07744282 80.1624748,5.07744282 C83.3360493,5.07744282 85.184076,7.17426885 85.184076,10.566234 L85.184076,20.1408641 L80.9904239,20.1408641 Z" id="Fill-11"></path>
                            <path d="M94.5419742,8.44259289 C92.8045251,8.44259289 91.67387,9.68382544 91.3407553,11.5871408 L97.6588778,11.5871408 C97.4114606,9.71146982 96.3070677,8.44259289 94.5419742,8.44259289 M101.688046,14.20921 L91.3974263,14.20921 C91.8107097,16.1125254 93.1348754,17.1063408 95.0119286,17.1063408 C96.4190274,17.1063408 97.439105,16.6640308 98.5974044,15.5886645 L100.998319,17.7131349 C99.6188641,19.4229396 97.6326156,20.4720438 94.9552576,20.4720438 C90.5128062,20.4720438 87.2300363,17.3551402 87.2300363,12.8297556 L87.2300363,12.7744668 C87.2300363,8.5531704 90.2377446,5.07688993 94.5419742,5.07688993 C99.4806422,5.07688993 101.743335,8.91116509 101.743335,13.1048172 L101.743335,13.1614881 C101.743335,13.5747716 101.714308,13.8221888 101.688046,14.20921" id="Fill-13"></path>
                            <path d="M110.812073,20.4714909 C106.371003,20.4714909 103.114496,17.0504992 103.114496,12.8292027 L103.114496,12.773914 C103.114496,8.55261751 106.341977,5.07633704 110.867361,5.07633704 C113.653915,5.07633704 115.391364,6.01486366 116.7722,7.55880214 L114.20542,10.317711 C113.268276,9.32527787 112.329749,8.6908394 110.839717,8.6908394 C108.742891,8.6908394 107.252859,10.538866 107.252859,12.7200074 L107.252859,12.773914 C107.252859,15.035224 108.715247,16.8569885 111.005583,16.8569885 C112.412682,16.8569885 113.377471,16.2501944 114.397548,15.2840234 L116.855134,17.7678708 C115.419008,19.3408358 113.764492,20.4714909 110.812073,20.4714909" id="Fill-15"></path>
                            <polygon id="Fill-17" points="128.025674 20.1408641 124.163754 14.0978032 122.699984 15.6431239 122.699984 20.1408641 118.507714 20.1408641 118.507714 0.00055288755 122.699984 0.00055288755 122.699984 10.7321002 127.61239 5.35112215 132.633991 5.35112215 127.004214 11.1744103 132.82612 20.1408641"></polygon>
                        </g>
                        <path d="M134,1.76819407 L138.227632,1.76819407 L141.942824,13.9056604 L145.96548,1.71698113 L149.347586,1.71698113 L153.370242,13.9056604 L157.085434,1.76819407 L161.210578,1.76819407 L155.086917,19.8207547 L151.653567,19.8207547 L147.605289,8.09299191 L143.557011,19.8207547 L140.123661,19.8207547 L134,1.76819407 Z M163.97937,19.9487871 C163.330276,19.9487871 162.719624,19.8591653 162.147396,19.6799191 C161.575169,19.500673 161.075544,19.2318077 160.648509,18.8733154 C160.221473,18.514823 159.88412,18.0752497 159.636439,17.5545822 C159.388758,17.0339147 159.26492,16.4321687 159.26492,15.7493261 L159.26492,15.6981132 C159.26492,14.9469864 159.401569,14.2982956 159.674872,13.7520216 C159.948175,13.2057475 160.328231,12.7533711 160.815052,12.3948787 C161.301872,12.0363863 161.882632,11.7675211 162.557349,11.5882749 C163.232065,11.4090288 163.979366,11.319407 164.799275,11.319407 C165.499613,11.319407 166.110265,11.3706194 166.631249,11.4730458 C167.152232,11.5754722 167.660397,11.7120387 168.155759,11.8827493 L168.155759,11.6522911 C168.155759,10.83288 167.908082,10.2097955 167.41272,9.78301887 C166.917359,9.35624225 166.182868,9.14285714 165.209227,9.14285714 C164.457644,9.14285714 163.795749,9.20687268 163.223521,9.33490566 C162.651293,9.46293865 162.049182,9.64644984 161.417169,9.88544474 L160.443533,6.91509434 C161.195115,6.57367305 161.980849,6.30480781 162.800758,6.10849057 C163.620666,5.91217332 164.611374,5.81401617 165.772911,5.81401617 C166.849041,5.81401617 167.767154,5.94631494 168.527278,6.21091644 C169.287401,6.47551794 169.915134,6.85534344 170.410496,7.35040431 C170.922939,7.86253625 171.298724,8.48988847 171.537864,9.23247978 C171.777004,9.9750711 171.896573,10.807273 171.896573,11.7291105 L171.896573,19.6927224 L168.130137,19.6927224 L168.130137,18.2075472 C167.651857,18.7367502 167.079637,19.1592527 166.413462,19.4750674 C165.747286,19.7908821 164.93593,19.9487871 163.97937,19.9487871 Z M165.157983,17.2601078 C166.08038,17.2601078 166.819141,17.0381873 167.374287,16.5943396 C167.929434,16.1504919 168.207003,15.5700844 168.207003,14.8530997 L168.207003,14.1617251 C167.865374,14.0080855 167.485318,13.8843221 167.066823,13.7904313 C166.648328,13.6965404 166.199947,13.6495957 165.721667,13.6495957 C164.884677,13.6495957 164.227052,13.8117684 163.748772,14.1361186 C163.270492,14.4604688 163.031356,14.9299161 163.031356,15.5444744 L163.031356,15.5956873 C163.031356,16.1248903 163.227789,16.5345897 163.620662,16.8247978 C164.013535,17.1150059 164.52597,17.2601078 165.157983,17.2601078 Z M175.382781,1 L179.277327,1 L179.277327,19.6927224 L175.382781,19.6927224 L175.382781,1 Z M183.071,1 L186.965546,1 L186.965546,19.6927224 L183.071,19.6927224 L183.071,1 Z M197.087856,20 C196.062971,20 195.110695,19.8292919 194.231002,19.4878706 C193.351308,19.1464493 192.591196,18.6599313 191.950643,18.0283019 C191.310089,17.3966725 190.810465,16.6455569 190.451755,15.7749326 C190.093045,14.9043083 189.913693,13.948343 189.913693,12.9070081 L189.913693,12.8557951 C189.913693,11.8827445 190.080234,10.9609208 190.413322,10.0902965 C190.74641,9.2196722 191.211872,8.46002121 191.809722,7.81132075 C192.407572,7.1626203 193.124981,6.65049604 193.961971,6.27493261 C194.798961,5.89936919 195.712803,5.7115903 196.703526,5.7115903 C197.847982,5.7115903 198.83869,5.91644 199.67568,6.32614555 C200.51267,6.73585111 201.208727,7.28638468 201.763874,7.9777628 C202.31902,8.66914092 202.728968,9.46293352 202.99373,10.3591644 C203.258493,11.2553953 203.390872,12.1900221 203.390872,13.1630728 C203.390872,13.3167124 203.386601,13.478885 203.378061,13.6495957 C203.36952,13.8203063 203.356709,13.9995498 203.339628,14.1873315 L193.782617,14.1873315 C193.970512,15.0750269 194.359109,15.7450561 194.948418,16.1974394 C195.537727,16.6498226 196.267948,16.8760108 197.1391,16.8760108 C197.788195,16.8760108 198.368954,16.7650505 198.881397,16.5431267 C199.39384,16.3212028 199.923356,15.9627159 200.469962,15.467655 L202.699077,17.4393531 C202.049983,18.2416931 201.264249,18.8690454 200.341852,19.3214286 C199.419455,19.7738118 198.334801,20 197.087856,20 Z M199.598814,11.754717 C199.479244,10.8840927 199.171783,10.1799218 198.676421,9.64218329 C198.18106,9.10444475 197.523435,8.83557951 196.703526,8.83557951 C195.883618,8.83557951 195.221722,9.10017705 194.71782,9.62938005 C194.213918,10.1585831 193.885105,10.8670216 193.731373,11.754717 L199.598814,11.754717 Z M210.874114,19.9231806 C210.276264,19.9231806 209.733937,19.8591651 209.247117,19.7311321 C208.760296,19.6030991 208.341807,19.3769109 207.991638,19.0525606 C207.641469,18.7282104 207.36817,18.3014402 207.171733,17.7722372 C206.975297,17.2430342 206.87708,16.5858081 206.87708,15.8005391 L206.87708,9.29649596 L205.237271,9.29649596 L205.237271,5.96765499 L206.87708,5.96765499 L206.87708,2.45956873 L210.771626,2.45956873 L210.771626,5.96765499 L214,5.96765499 L214,9.29649596 L210.771626,9.29649596 L210.771626,15.1603774 C210.771626,16.0480727 211.190115,16.4919137 212.027105,16.4919137 C212.710362,16.4919137 213.350906,16.3297411 213.948756,16.0053908 L213.948756,19.1293801 C213.538802,19.368375 213.086151,19.5604216 212.590789,19.7055256 C212.095428,19.8506297 211.523209,19.9231806 210.874114,19.9231806 Z" id="Wallet" fill="#00CA93"></path>
                    </g>
                </g>
            </g>
        </g>
    </g>
</svg>