<?xml version="1.0" encoding="UTF-8"?>
<svg width="354px" height="286px" viewBox="0 0 354 286" version="1.1" xmlns="http://www.w3.org/2000/svg" xmlns:xlink="http://www.w3.org/1999/xlink">
    <!-- Generator: Sketch 53.2 (72643) - https://sketchapp.com -->
    <title>port-card-3</title>
    <desc>Created with Sketch.</desc>
    <defs>
        <rect id="path-1" x="0.576" y="0" width="305.1" height="234" rx="2.88"></rect>
        <filter x="-24.4%" y="-10.9%" width="132.8%" height="143.6%" filterUnits="objectBoundingBox" id="filter-2">
            <feOffset dx="-36" dy="38" in="SourceAlpha" result="shadowOffsetOuter1"></feOffset>
            <feGaussianBlur stdDeviation="6.5" in="shadowOffsetOuter1" result="shadowBlurOuter1"></feGaussianBlur>
            <feColorMatrix values="0 0 0 0 0   0 0 0 0 0   0 0 0 0 0  0 0 0 0.121530813 0" type="matrix" in="shadowBlurOuter1"></feColorMatrix>
        </filter>
    </defs>
    <g id="final-graphics" stroke="none" stroke-width="1" fill="none" fill-rule="evenodd">
        <g id="port-card-3" transform="translate(48.000000, 0.000000)">
            <g id="Group-33" transform="translate(0.000000, 0.800000)">
                <g id="Mask">
                    <use fill="black" fill-opacity="1" filter="url(#filter-2)" xlink:href="#path-1"></use>
                    <use fill="#FFFFFF" fill-rule="evenodd" xlink:href="#path-1"></use>
                </g>
                <g id="Group-32" transform="translate(33.840000, 19.440000)">
                    <rect id="Rectangle" fill="#FDB833" opacity="0.144159226" x="0" y="13.787234" width="53.28" height="25.7361702"></rect>
                    <path d="M35.6705439,9.65106383 L30.8647431,9.65106383 L30.8647431,4.85106383 L21.204842,4.85106383 L21.204842,9.65106383 L16.3507417,9.65106383 L16.3507417,4.85106383 L21.1806923,0 L30.8405934,0 L35.6705439,4.85106383 L35.6705439,9.65106383 Z" id="Combined-Shape" fill="#FFD991" fill-rule="nonzero"></path>
                    <path d="M45.2593548,26.699109 L45.2593548,38.592 C45.2593548,41.1369281 43.196283,43.2 40.6513548,43.2 L11.4828387,43.2 C8.93791058,43.2 6.87483871,41.1369281 6.87483871,38.592 L6.87483871,26.9347101 C5.54881009,26.5342243 4.58322581,25.3030743 4.58322581,23.8464 L4.58322581,13.0176 C4.58322581,11.2361503 6.02737612,9.792 7.80882581,9.792 L43.7524645,9.792 C45.5339142,9.792 46.9780645,11.2361503 46.9780645,13.0176 L46.9780645,23.8464 C46.9780645,25.0835396 46.2815941,26.1580098 45.2593548,26.699109 Z" id="Combined-Shape" fill="#FDB833"></path>
                    <polygon id="Line-3" fill="#FFFFFF" fill-rule="nonzero" points="45.3776516 25.9641191 45.3776516 27.3465191 6.75654194 27.3465191 6.75654194 25.9641191"></polygon>
                    <path d="M20.0323134,32.1677617 L31.9889722,32.1677617 L31.9889722,20.2237277 L20.0323134,20.2237277 L20.0323134,32.1677617 Z M19.1107134,19.3021277 L32.9105722,19.3021277 L32.9105722,33.0893617 L19.1107134,33.0893617 L19.1107134,19.3021277 Z" id="Rectangle" fill="#FFFFFF" fill-rule="nonzero"></path>
                    <polygon id="+" fill="#FFFFFF" fill-rule="nonzero" points="25.1771035 26.731683 23.2506711 26.731683 23.2506711 25.8709009 25.1771035 25.8709009 25.1771035 23.8978723 26.0483543 23.8978723 26.0483543 25.8709009 27.979627 25.8709009 27.979627 26.731683 26.0483543 26.731683 26.0483543 28.6950399 25.1771035 28.6950399"></polygon>
                </g>
                <path d="M109.97685,48.72 L105.455227,48.72 L105.455227,40.726515 L109.97685,40.726515 L109.97685,41.83095 L106.76196,41.83095 L106.76196,44.007015 L109.774552,44.007015 L109.774552,45.100515 L106.76196,45.100515 L106.76196,47.6100975 L109.97685,47.6100975 L109.97685,48.72 Z M116.663602,48.72 L115.373272,48.72 L115.373272,44.991165 C115.373272,44.5282477 115.285793,44.1828874 115.110832,43.9550738 C114.935872,43.7272601 114.662499,43.613355 114.290707,43.613355 C113.794985,43.613355 113.4314,43.7746446 113.199941,44.0972288 C112.968483,44.4198129 112.852755,44.9565337 112.852755,45.7074075 L112.852755,48.72 L111.567892,48.72 L111.567892,42.672945 L112.573912,42.672945 L112.75434,43.4657325 L112.81995,43.4657325 C112.987621,43.1777761 113.230922,42.9554333 113.549861,42.7986975 C113.8688,42.6419617 114.219628,42.563595 114.602355,42.563595 C115.531835,42.563595 116.147833,42.8807068 116.45037,43.51494 L116.53785,43.51494 C116.716456,43.2160485 116.967958,42.9827708 117.292365,42.8151 C117.616772,42.6474292 117.988558,42.563595 118.407735,42.563595 C119.129449,42.563595 119.655235,42.7458432 119.985109,43.110345 C120.314983,43.4748468 120.479917,44.0307038 120.479917,44.7779325 L120.479917,48.72 L119.195055,48.72 L119.195055,44.991165 C119.195055,44.5282477 119.106665,44.1828874 118.929881,43.9550738 C118.753098,43.7272601 118.478814,43.613355 118.107022,43.613355 C117.607655,43.613355 117.242247,43.7691772 117.010789,44.0808263 C116.77933,44.3924753 116.663602,44.8708768 116.663602,45.516045 L116.663602,48.72 Z M125.340525,48.82935 C124.575071,48.82935 123.980942,48.5541553 123.55812,48.0037575 L123.481575,48.0037575 C123.532605,48.5140601 123.55812,48.823882 123.55812,48.9332325 L123.55812,51.41001 L122.273257,51.41001 L122.273257,42.672945 L123.312082,42.672945 C123.341243,42.7859406 123.401385,43.0556679 123.49251,43.482135 L123.55812,43.482135 C123.959072,42.8697719 124.560491,42.563595 125.362395,42.563595 C126.116914,42.563595 126.704664,42.8369673 127.125664,43.38372 C127.546663,43.9304727 127.75716,44.6977376 127.75716,45.6855375 C127.75716,46.6733374 127.543018,47.4442472 127.114729,47.99829 C126.686439,48.5523328 126.095044,48.82935 125.340525,48.82935 Z M125.028877,43.613355 C124.518575,43.613355 124.145877,43.7627985 123.910774,44.06169 C123.67567,44.3605815 123.55812,44.8380717 123.55812,45.494175 L123.55812,45.6855375 C123.55812,46.4218312 123.674759,46.9549071 123.90804,47.2847813 C124.141321,47.6146554 124.52222,47.77959 125.050747,47.77959 C125.49544,47.77959 125.838066,47.5973418 126.078637,47.23284 C126.319209,46.8683382 126.439492,46.3489309 126.439492,45.6746025 C126.439492,44.9966291 126.32012,44.4836005 126.081371,44.1355013 C125.842623,43.787402 125.491795,43.613355 125.028877,43.613355 Z M130.53465,48.72 L129.249787,48.72 L129.249787,40.21257 L130.53465,40.21257 L130.53465,48.72 Z M137.735347,45.6855375 C137.735347,46.6733374 137.482023,47.4442472 136.975365,47.99829 C136.468707,48.5523328 135.763407,48.82935 134.859442,48.82935 C134.294465,48.82935 133.795105,48.7017763 133.361347,48.446625 C132.92759,48.1914737 132.594076,47.8251549 132.360795,47.3476575 C132.127514,46.8701601 132.010875,46.3161257 132.010875,45.6855375 C132.010875,44.7050276 132.262377,43.9395853 132.76539,43.3891875 C133.268403,42.8387897 133.977348,42.563595 134.892247,42.563595 C135.767052,42.563595 136.459595,42.8451684 136.969897,43.4083238 C137.4802,43.9714791 137.735347,44.7305427 137.735347,45.6855375 Z M133.33401,45.6855375 C133.33401,47.0815795 133.849772,47.77959 134.881312,47.77959 C135.901918,47.77959 136.412212,47.0815795 136.412212,45.6855375 C136.412212,44.3040756 135.898273,43.613355 134.870377,43.613355 C134.330915,43.613355 133.939992,43.7919582 133.697599,44.14917 C133.455205,44.5063818 133.33401,45.0184992 133.33401,45.6855375 Z M138.068865,42.672945 L139.468545,42.672945 L140.698732,46.1010675 C140.884628,46.5894999 141.008557,47.0487653 141.070522,47.4788775 L141.114262,47.4788775 C141.147068,47.2784015 141.20721,47.0351002 141.29469,46.7489663 C141.38217,46.4628323 141.845081,45.1041722 142.683435,42.672945 L144.07218,42.672945 L141.486052,49.5237225 C141.015845,50.7812538 140.232178,51.41001 139.135027,51.41001 C138.850716,51.41001 138.573699,51.3790278 138.303967,51.3170625 L138.303967,50.3001075 C138.497153,50.3438477 138.717674,50.3657175 138.965535,50.3657175 C139.585188,50.3657175 140.020761,50.0066886 140.272267,49.28862 L140.496435,48.72 L138.068865,42.672945 Z M150.08643,48.72 L148.7961,48.72 L148.7961,44.991165 C148.7961,44.5282477 148.708621,44.1828874 148.53366,43.9550738 C148.358699,43.7272601 148.085327,43.613355 147.713535,43.613355 C147.217813,43.613355 146.854227,43.7746446 146.622769,44.0972288 C146.39131,44.4198129 146.275582,44.9565337 146.275582,45.7074075 L146.275582,48.72 L144.99072,48.72 L144.99072,42.672945 L145.99674,42.672945 L146.177167,43.4657325 L146.242777,43.4657325 C146.410448,43.1777761 146.65375,42.9554333 146.972689,42.7986975 C147.291628,42.6419617 147.642456,42.563595 148.025182,42.563595 C148.954662,42.563595 149.570661,42.8807068 149.873197,43.51494 L149.960677,43.51494 C150.139283,43.2160485 150.390786,42.9827708 150.715192,42.8151 C151.039599,42.6474292 151.411385,42.563595 151.830562,42.563595 C152.552276,42.563595 153.078062,42.7458432 153.407936,43.110345 C153.73781,43.4748468 153.902745,44.0307038 153.902745,44.7779325 L153.902745,48.72 L152.617882,48.72 L152.617882,44.991165 C152.617882,44.5282477 152.529492,44.1828874 152.352709,43.9550738 C152.175925,43.7272601 151.901642,43.613355 151.52985,43.613355 C151.030483,43.613355 150.665075,43.7691772 150.433616,44.0808263 C150.202158,44.3924753 150.08643,44.8708768 150.08643,45.516045 L150.08643,48.72 Z M158.336887,48.82935 C157.396473,48.82935 156.661101,48.5550665 156.130751,48.0064913 C155.600401,47.457916 155.33523,46.7024973 155.33523,45.7402125 C155.33523,44.7524126 155.581265,43.9760353 156.073342,43.4110575 C156.56542,42.8460797 157.241561,42.563595 158.101785,42.563595 C158.900044,42.563595 159.530623,42.8059851 159.99354,43.2907725 C160.456457,43.7755599 160.687912,44.4425883 160.687912,45.2918775 L160.687912,45.98625 L156.658365,45.98625 C156.67659,46.5730979 156.835146,47.0241622 157.134037,47.3394563 C157.432929,47.6547503 157.853922,47.812395 158.39703,47.812395 C158.754242,47.812395 159.086845,47.7786791 159.394849,47.7112463 C159.702853,47.6438134 160.033633,47.5317308 160.3872,47.374995 L160.3872,48.4192875 C160.073728,48.5687332 159.756617,48.6744372 159.435855,48.7364025 C159.115093,48.7983678 158.748775,48.82935 158.336887,48.82935 Z M158.101785,43.53681 C157.693543,43.53681 157.366407,43.6662062 157.120369,43.9250025 C156.87433,44.1837988 156.72762,44.5610525 156.680235,45.056775 L159.42492,45.056775 C159.41763,44.5574075 159.297346,44.1792425 159.064065,43.9222688 C158.830784,43.665295 158.510027,43.53681 158.101785,43.53681 Z M167.467612,48.72 L166.177282,48.72 L166.177282,45.0021 C166.177282,44.5355377 166.083425,44.1874436 165.895706,43.9578075 C165.707988,43.7281714 165.410012,43.613355 165.00177,43.613355 C164.458662,43.613355 164.061361,43.7737334 163.809855,44.094495 C163.558349,44.4152566 163.432597,44.9528887 163.432597,45.7074075 L163.432597,48.72 L162.147735,48.72 L162.147735,42.672945 L163.153755,42.672945 L163.334182,43.4657325 L163.399792,43.4657325 C163.582043,43.1777761 163.840836,42.9554333 164.176177,42.7986975 C164.511519,42.6419617 164.883305,42.563595 165.291547,42.563595 C166.742265,42.563595 167.467612,43.3017001 167.467612,44.7779325 L167.467612,48.72 Z M171.508095,47.790525 C171.821567,47.790525 172.135033,47.741318 172.448505,47.6429025 L172.448505,48.61065 C172.306349,48.6726153 172.12319,48.724556 171.899021,48.7664738 C171.674853,48.8083915 171.442486,48.82935 171.201915,48.82935 C169.984479,48.82935 169.37577,48.1878364 169.37577,46.90479 L169.37577,43.64616 L168.550177,43.64616 L168.550177,43.07754 L169.435912,42.607335 L169.873312,41.32794 L170.6661,41.32794 L170.6661,42.672945 L172.388362,42.672945 L172.388362,43.64616 L170.6661,43.64616 L170.6661,46.88292 C170.6661,47.1927465 170.743555,47.421468 170.898469,47.5690913 C171.053382,47.7167145 171.256589,47.790525 171.508095,47.790525 Z M181.88541,48.72 L180.59508,48.72 L180.59508,45.0021 C180.59508,44.5355377 180.501222,44.1874436 180.313504,43.9578075 C180.125785,43.7281714 179.82781,43.613355 179.419567,43.613355 C178.880105,43.613355 178.483715,43.7746446 178.230386,44.0972288 C177.977057,44.4198129 177.850395,44.9601787 177.850395,45.7183425 L177.850395,48.72 L176.565532,48.72 L176.565532,40.21257 L177.850395,40.21257 L177.850395,42.3722325 C177.850395,42.7185092 177.828525,43.088473 177.784785,43.482135 L177.866797,43.482135 C178.041758,43.1905335 178.28506,42.9645458 178.596709,42.804165 C178.908358,42.6437842 179.271943,42.563595 179.687475,42.563595 C181.152772,42.563595 181.88541,43.3017001 181.88541,44.7779325 L181.88541,48.72 Z M184.958145,48.72 L183.673282,48.72 L183.673282,42.672945 L184.958145,42.672945 L184.958145,48.72 Z M183.596737,41.0709675 C183.596737,40.8413314 183.659613,40.6645506 183.785366,40.54062 C183.911119,40.4166894 184.090634,40.354725 184.323915,40.354725 C184.549906,40.354725 184.725776,40.4166894 184.851529,40.54062 C184.977282,40.6645506 185.040157,40.8413314 185.040157,41.0709675 C185.040157,41.2896686 184.977282,41.4618931 184.851529,41.5876463 C184.725776,41.7133994 184.549906,41.776275 184.323915,41.776275 C184.090634,41.776275 183.911119,41.7133994 183.785366,41.5876463 C183.659613,41.4618931 183.596737,41.2896686 183.596737,41.0709675 Z M190.857577,46.9977375 C190.857577,47.5882305 190.642525,48.0411172 190.212412,48.3564113 C189.7823,48.6717053 189.166302,48.82935 188.364397,48.82935 C187.558848,48.82935 186.911867,48.7072437 186.423435,48.4630275 L186.423435,47.353125 C187.134214,47.6811766 187.795774,47.8452 188.408137,47.8452 C189.199106,47.8452 189.594585,47.6064549 189.594585,47.1289575 C189.594585,46.9758667 189.550845,46.848293 189.463365,46.7462325 C189.375885,46.644172 189.231909,46.538468 189.031432,46.4291175 C188.830956,46.319767 188.552117,46.1958382 188.194905,46.0573275 C187.498707,45.7875962 187.027595,45.5178688 186.781556,45.2481375 C186.535518,44.9784062 186.4125,44.6284897 186.4125,44.1983775 C186.4125,43.6807849 186.621174,43.2789277 187.038529,42.9927938 C187.455883,42.7066598 188.023586,42.563595 188.741655,42.563595 C189.452434,42.563595 190.124929,42.7075711 190.759162,42.9955275 L190.343632,43.963275 C189.691174,43.6935437 189.142607,43.55868 188.697915,43.55868 C188.019942,43.55868 187.68096,43.7518631 187.68096,44.138235 C187.68096,44.3277759 187.76935,44.4881543 187.946134,44.619375 C188.122917,44.7505957 188.508372,44.9310214 189.10251,45.1606575 C189.601877,45.3538435 189.964551,45.5306242 190.190542,45.691005 C190.416534,45.8513858 190.584202,46.0363677 190.693552,46.2459563 C190.802903,46.4555448 190.857577,46.706136 190.857577,46.9977375 Z M194.498932,47.790525 C194.812404,47.790525 195.125871,47.741318 195.439342,47.6429025 L195.439342,48.61065 C195.297187,48.6726153 195.114027,48.724556 194.889859,48.7664738 C194.66569,48.8083915 194.433324,48.82935 194.192752,48.82935 C192.975316,48.82935 192.366607,48.1878364 192.366607,46.90479 L192.366607,43.64616 L191.541015,43.64616 L191.541015,43.07754 L192.42675,42.607335 L192.86415,41.32794 L193.656937,41.32794 L193.656937,42.672945 L195.3792,42.672945 L195.3792,43.64616 L193.656937,43.64616 L193.656937,46.88292 C193.656937,47.1927465 193.734393,47.421468 193.889306,47.5690913 C194.04422,47.7167145 194.247426,47.790525 194.498932,47.790525 Z M202.011277,45.6855375 C202.011277,46.6733374 201.757953,47.4442472 201.251295,47.99829 C200.744637,48.5523328 200.039337,48.82935 199.135372,48.82935 C198.570395,48.82935 198.071035,48.7017763 197.637277,48.446625 C197.20352,48.1914737 196.870006,47.8251549 196.636725,47.3476575 C196.403444,46.8701601 196.286805,46.3161257 196.286805,45.6855375 C196.286805,44.7050276 196.538307,43.9395853 197.04132,43.3891875 C197.544333,42.8387897 198.253278,42.563595 199.168177,42.563595 C200.042982,42.563595 200.735525,42.8451684 201.245827,43.4083238 C201.75613,43.9714791 202.011277,44.7305427 202.011277,45.6855375 Z M197.60994,45.6855375 C197.60994,47.0815795 198.125702,47.77959 199.157242,47.77959 C200.177848,47.77959 200.688142,47.0815795 200.688142,45.6855375 C200.688142,44.3040756 200.174203,43.613355 199.146307,43.613355 C198.606845,43.613355 198.215922,43.7919582 197.973529,44.14917 C197.731135,44.5063818 197.60994,45.0184992 197.60994,45.6855375 Z M206.55477,42.563595 C206.813566,42.563595 207.026797,42.5818198 207.194467,42.61827 L207.068715,43.8156525 C206.886464,43.7719123 206.696926,43.7500425 206.500095,43.7500425 C205.986147,43.7500425 205.56971,43.9177108 205.250771,44.2530525 C204.931832,44.5883942 204.772365,45.0239673 204.772365,45.559785 L204.772365,48.72 L203.487502,48.72 L203.487502,42.672945 L204.493522,42.672945 L204.663015,43.7391075 L204.728625,43.7391075 C204.929101,43.3782507 205.190627,43.0921211 205.513211,42.88071 C205.835795,42.6692989 206.182978,42.563595 206.55477,42.563595 Z M207.396765,42.672945 L208.796445,42.672945 L210.026632,46.1010675 C210.212528,46.5894999 210.336457,47.0487653 210.398422,47.4788775 L210.442162,47.4788775 C210.474968,47.2784015 210.53511,47.0351002 210.62259,46.7489663 C210.71007,46.4628323 211.172981,45.1041722 212.011335,42.672945 L213.40008,42.672945 L210.813952,49.5237225 C210.343745,50.7812538 209.560078,51.41001 208.462927,51.41001 C208.178616,51.41001 207.901599,51.3790278 207.631867,51.3170625 L207.631867,50.3001075 C207.825053,50.3438477 208.045574,50.3657175 208.293435,50.3657175 C208.913088,50.3657175 209.348661,50.0066886 209.600167,49.28862 L209.824335,48.72 L207.396765,42.672945 Z" id="Employmenthistory" fill="#282E2E" fill-rule="nonzero"></path>
                <g id="Group-31" transform="translate(26.640000, 82.800000)">
                    <g id="added-to-list-item">
                        <rect id="Rectangle" fill="#F9FAFC" x="0" y="0" width="254.88" height="61.92" rx="1.39968"></rect>
                        <g id="status/complete" transform="translate(225.000000, 20.000000)">
                            <g id="Group-2" fill="#FF0000" fill-opacity="0">
                                <rect id="Rectangle-7" x="0" y="0" width="21.34512" height="21.34512"></rect>
                            </g>
                            <polygon id="c" fill="#CFD5DF" fill-rule="nonzero" points="8.93867906 5.86596 14.0999991 11.02728 8.93867906 16.1886 7.72899469 14.9789156 11.6806303 11.02728 7.72899469 7.07564437"></polygon>
                        </g>
                        <path d="M11.7233241,10.9257006 L13.7996072,10.9257006 C14.7628033,10.9257006 15.4588774,11.0660317 15.8878505,11.3466981 C16.3168236,11.6273645 16.5313069,12.0706832 16.5313069,12.6766675 C16.5313069,13.0849095 16.4260586,13.4245746 16.2155587,13.6956728 C16.0050589,13.966771 15.7020714,14.1374009 15.3065869,14.2075675 L15.3065869,14.2554081 C15.7977531,14.3479005 16.1589462,14.5304904 16.390177,14.8031833 C16.6214079,15.0758762 16.7370216,15.4450427 16.7370216,15.9106937 C16.7370216,16.5390038 16.5177542,17.0309599 16.079213,17.386577 C15.6406717,17.7421941 15.0307098,17.92 14.2493091,17.92 L11.7233241,17.92 L11.7233241,10.9257006 Z M12.866715,13.8152744 L13.9670494,13.8152744 C14.445458,13.8152744 14.7946911,13.7395275 15.0147591,13.5880314 C15.234827,13.4365353 15.3448594,13.1789959 15.3448594,12.8154053 C15.3448594,12.486898 15.2260563,12.249292 14.9884467,12.10258 C14.7508371,11.955868 14.3736973,11.8825131 13.8570159,11.8825131 L12.866715,11.8825131 L12.866715,13.8152744 Z M12.866715,14.7433825 L12.866715,16.9584034 L14.0818669,16.9584034 C14.5602755,16.9584034 14.9214686,16.8667098 15.165457,16.6833198 C15.4094454,16.4999299 15.5314378,16.210497 15.5314378,15.8150125 C15.5314378,15.4514219 15.4070534,15.1819224 15.1582809,15.0065059 C14.9095084,14.8310894 14.5315713,14.7433825 14.0244581,14.7433825 L12.866715,14.7433825 Z M19.1960297,17.92 L18.071775,17.92 L18.071775,12.6288269 L19.1960297,12.6288269 L19.1960297,17.92 Z M18.0047981,11.2270966 C18.0047981,11.0261649 18.0598143,10.8714818 18.1698483,10.7630425 C18.2798823,10.6546032 18.4369574,10.6003844 18.6410784,10.6003844 C18.8388207,10.6003844 18.9927065,10.6546032 19.1027405,10.7630425 C19.2127745,10.8714818 19.2677906,11.0261649 19.2677906,11.2270966 C19.2677906,11.41846 19.2127745,11.5691565 19.1027405,11.6791905 C18.9927065,11.7892245 18.8388207,11.8442406 18.6410784,11.8442406 C18.4369574,11.8442406 18.2798823,11.7892245 18.1698483,11.6791905 C18.0598143,11.5691565 18.0047981,11.41846 18.0047981,11.2270966 Z M21.2786106,17.5167391 C21.1301812,17.452851 21.0076842,17.3504612 20.9111161,17.2095667 C20.8138397,17.0676388 20.7652022,16.918537 20.7652022,16.7622569 C20.7652022,16.5645146 20.8210157,16.3970741 20.9326444,16.2599303 C21.0442731,16.1227865 21.2101189,15.9872394 21.4301869,15.853285 C21.1558993,15.7352775 20.9334426,15.5431196 20.7628102,15.2768055 C20.5921777,15.0104913 20.5068628,14.698733 20.5068628,14.3415212 C20.5068628,13.7674309 20.687858,13.3225175 21.0498539,13.0067678 C21.4118498,12.6910181 21.927726,12.5331456 22.5974981,12.5331456 C22.7473995,12.5331456 22.9044746,12.543511 23.0687283,12.564242 C23.2329819,12.5849731 23.356569,12.6065011 23.4394931,12.6288269 L25.2717891,12.6288269 L25.2717891,13.2459709 L24.3676012,13.4134131 C24.4505254,13.5250418 24.5190963,13.6621836 24.5733159,13.8248425 C24.6275356,13.9875014 24.654645,14.159726 24.654645,14.3415212 C24.654645,14.8869071 24.4664738,15.3158737 24.0901256,15.6284341 C23.7137775,15.9409944 23.1955092,16.0972722 22.5353053,16.0972722 C22.3662676,16.0972722 22.2131791,16.0845148 22.0760353,16.0589997 C21.8336416,16.2089011 21.7124466,16.3843149 21.7124466,16.5852466 C21.7124466,16.7064434 21.7690574,16.7973397 21.8822808,16.8579381 C21.9955042,16.9185366 22.2036088,16.9488353 22.5066009,16.9488353 L23.429925,16.9488353 C24.0135835,16.9488353 24.4569022,17.0732197 24.7598944,17.3219922 C25.0628865,17.5707647 25.2143803,17.9295658 25.2143803,18.3984063 C25.2143803,18.9980117 24.9672062,19.4604665 24.4728506,19.7857844 C23.978495,20.1111023 23.2640822,20.2737587 22.3295906,20.2737587 C21.6087883,20.2737587 21.0586266,20.146185 20.6790891,19.8910337 C20.2995515,19.6358825 20.1097856,19.2722974 20.1097856,18.8002675 C20.1097856,18.4749496 20.2126419,18.2014635 20.4183577,17.9798008 C20.6240719,17.7581397 20.9119074,17.6042545 21.2818729,17.5181406 L21.2786106,17.5167391 Z M21.1144387,18.7428587 C21.1144387,18.9852525 21.2236738,19.171829 21.442147,19.3025941 C21.6606203,19.4333591 21.9675946,19.4987406 22.3630791,19.4987406 C22.9754421,19.4987406 23.4315182,19.4110337 23.7313209,19.2356172 C24.0311237,19.0602007 24.1810228,18.8273786 24.1810228,18.5371441 C24.1810228,18.3075079 24.0988972,18.1440541 23.9346436,18.0467777 C23.77039,17.9495012 23.4650104,17.9008637 23.0184956,17.9008637 L22.1669325,17.9008637 C21.844804,17.9008637 21.5888592,17.9766106 21.3990905,18.1281067 C21.2093217,18.2796028 21.1144387,18.4845181 21.1144387,18.7428587 Z M21.5976291,14.3415212 C21.5976291,14.6732179 21.682944,14.9283654 21.8535764,15.1069712 C22.0242088,15.2855771 22.2689909,15.3748787 22.58793,15.3748787 C23.2385658,15.3748787 23.5638788,15.0272404 23.5638788,14.3319531 C23.5638788,13.9874989 23.4833478,13.7219861 23.3222836,13.5354067 C23.1612194,13.3488273 22.9164373,13.2555391 22.58793,13.2555391 C22.2626121,13.2555391 22.0162354,13.34803 21.8487923,13.5330147 C21.6813493,13.7179994 21.5976291,13.9874989 21.5976291,14.3415212 Z M34.4332687,17.92 L33.2850938,17.92 L33.2850938,14.7673028 L30.0606356,14.7673028 L30.0606356,17.92 L28.9172447,17.92 L28.9172447,10.9257006 L30.0606356,10.9257006 L30.0606356,13.78657 L33.2850938,13.78657 L33.2850938,10.9257006 L34.4332687,10.9257006 L34.4332687,17.92 Z M40.8486966,15.2648453 C40.8486966,16.1291703 40.6270372,16.8037163 40.1837119,17.2885037 C39.7403865,17.7732912 39.1232486,18.0156813 38.3322797,18.0156813 C37.8379241,18.0156813 37.4009841,17.9040542 37.0214466,17.6807969 C36.641909,17.4575395 36.3500841,17.1370105 36.1459631,16.7192003 C35.9418421,16.3013901 35.8397831,15.8166099 35.8397831,15.2648453 C35.8397831,14.4068991 36.0598478,13.7371371 36.4999837,13.2555391 C36.9401197,12.773941 37.5604469,12.5331456 38.3609841,12.5331456 C39.1264379,12.5331456 39.7324131,12.7795224 40.1789278,13.2722833 C40.6254425,13.7650442 40.8486966,14.4292249 40.8486966,15.2648453 Z M36.9975262,15.2648453 C36.9975263,16.486382 37.4488183,17.0971412 38.3514159,17.0971412 C39.2444454,17.0971412 39.6909534,16.486382 39.6909534,15.2648453 C39.6909534,14.0560661 39.2412561,13.4516856 38.3418478,13.4516856 C37.869818,13.4516856 37.5277609,13.6079634 37.3156664,13.9205237 C37.1035719,14.2330841 36.9975263,14.6811868 36.9975262,15.2648453 Z M45.6949519,16.4130203 C45.6949519,16.9297016 45.5067806,17.3259775 45.1304325,17.6018598 C44.7540844,17.8777422 44.2150854,18.0156813 43.5134194,18.0156813 C42.808564,18.0156813 42.2424556,17.9088383 41.8150772,17.6951491 L41.8150772,16.7239844 C42.4370084,17.0110296 43.0158742,17.15455 43.5516919,17.15455 C44.2437897,17.15455 44.5898334,16.945648 44.5898334,16.5278378 C44.5898334,16.3938834 44.5515613,16.2822564 44.4750159,16.1929534 C44.3984706,16.1036505 44.2724915,16.0111595 44.097075,15.9154778 C43.9216585,15.8197961 43.6776738,15.7113584 43.3651134,15.5901616 C42.7559398,15.3541466 42.3437172,15.1181352 42.1284333,14.8821203 C41.9131494,14.6461054 41.8055091,14.3399284 41.8055091,13.9635803 C41.8055091,13.5106868 41.988099,13.1590617 42.3532842,12.9086945 C42.7184695,12.6583273 43.2152097,12.5331456 43.8435197,12.5331456 C44.4654509,12.5331456 45.0538847,12.6591247 45.6088388,12.9110866 L45.24525,13.7578656 C44.674349,13.5218507 44.1943529,13.403845 43.8052472,13.403845 C43.2120205,13.403845 42.9154116,13.5728802 42.9154116,13.9109556 C42.9154116,14.076804 42.9927531,14.2171351 43.1474386,14.3319531 C43.3021241,14.4467712 43.6393971,14.6046437 44.1592678,14.8055753 C44.5962144,14.974613 44.913554,15.1292962 45.1112962,15.2696294 C45.3090385,15.4099626 45.4557483,15.5718217 45.55143,15.7552117 C45.6471117,15.9386017 45.6949519,16.157869 45.6949519,16.4130203 Z M49.5939628,18.0156813 C48.9241907,18.0156813 48.4043278,17.7748858 48.0343584,17.2932878 L47.9673816,17.2932878 C48.012033,17.7398025 48.0343584,18.0108967 48.0343584,18.1065784 L48.0343584,20.2737587 L46.9101038,20.2737587 L46.9101038,12.6288269 L47.8190756,12.6288269 C47.8445908,12.727698 47.8972149,12.9637094 47.9769497,13.3368681 L48.0343584,13.3368681 C48.3851914,12.8010504 48.9114331,12.5331456 49.6130991,12.5331456 C50.273303,12.5331456 50.7875846,12.7723464 51.1559592,13.250755 C51.5243339,13.7291636 51.7085184,14.4005204 51.7085184,15.2648453 C51.7085184,16.1291703 51.5211445,16.8037163 51.1463911,17.2885037 C50.7716377,17.7732912 50.2541667,18.0156813 49.5939628,18.0156813 Z M49.3212713,13.4516856 C48.8747565,13.4516856 48.5486462,13.5824487 48.3429305,13.8439787 C48.1372148,14.1055088 48.0343584,14.5233128 48.0343584,15.0974031 L48.0343584,15.2648453 C48.0343584,15.9091023 48.1364174,16.3755437 48.3405384,16.6641836 C48.5446595,16.9528235 48.8779458,17.0971412 49.3404075,17.0971412 C49.7295132,17.0971412 50.0293114,16.9376741 50.2398113,16.618735 C50.4503111,16.2997959 50.5555594,15.8453145 50.5555594,15.2552772 C50.5555594,14.6620505 50.4511084,14.2131504 50.2422033,13.9085636 C50.0332982,13.6039768 49.7263239,13.4516856 49.3212713,13.4516856 Z M54.1388222,17.92 L53.0145675,17.92 L53.0145675,12.6288269 L54.1388222,12.6288269 L54.1388222,17.92 Z M52.9475906,11.2270966 C52.9475906,11.0261649 53.0026068,10.8714818 53.1126408,10.7630425 C53.2226748,10.6546032 53.3797499,10.6003844 53.5838709,10.6003844 C53.7816132,10.6003844 53.935499,10.6546032 54.045533,10.7630425 C54.155567,10.8714818 54.2105831,11.0261649 54.2105831,11.2270966 C54.2105831,11.41846 54.155567,11.5691565 54.045533,11.6791905 C53.935499,11.7892245 53.7816132,11.8442406 53.5838709,11.8442406 C53.3797499,11.8442406 53.2226748,11.7892245 53.1126408,11.6791905 C53.0026068,11.5691565 52.9475906,11.41846 52.9475906,11.2270966 Z M57.7173009,17.1067094 C57.9915886,17.1067094 58.2658721,17.0636532 58.5401597,16.9775397 L58.5401597,17.8243187 C58.4157734,17.8785384 58.2555089,17.9239865 58.0593614,17.9606645 C57.8632139,17.9973425 57.6598932,18.0156813 57.4493934,18.0156813 C56.3841369,18.0156813 55.8515166,17.4543569 55.8515166,16.3316912 L55.8515166,13.48039 L55.1291231,13.48039 L55.1291231,12.9828475 L55.9041412,12.5714181 L56.2868663,11.4519475 L56.9805553,11.4519475 L56.9805553,12.6288269 L58.487535,12.6288269 L58.487535,13.48039 L56.9805553,13.48039 L56.9805553,16.312555 C56.9805553,16.5836532 57.0483289,16.7837845 57.183878,16.9129548 C57.3194271,17.0421252 57.497233,17.1067094 57.7173009,17.1067094 Z M62.9080088,17.92 L62.6831578,17.1832544 L62.6448853,17.1832544 C62.389734,17.5053829 62.1329919,17.7246502 61.8746512,17.841063 C61.6163106,17.9574757 61.2846189,18.0156813 60.8795662,18.0156813 C60.3596955,18.0156813 59.9538516,17.8753502 59.6620223,17.5946838 C59.3701931,17.3140173 59.2242806,16.9169441 59.2242806,16.4034522 C59.2242806,15.8580663 59.4268039,15.4466411 59.8318566,15.1691641 C60.2369092,14.8916871 60.8540471,14.7401933 61.6832888,14.7146781 L62.5970447,14.6859738 L62.5970447,14.4037141 C62.5970447,14.0656386 62.5181084,13.8128832 62.3602336,13.6454402 C62.2023587,13.4779971 61.9575767,13.3942769 61.62588,13.3942769 C61.3547818,13.3942769 61.0948503,13.4341437 60.8460778,13.5138784 C60.5973053,13.5936132 60.3581046,13.6876988 60.1284684,13.7961381 L59.7648797,12.9924156 C60.0519249,12.8425143 60.3660752,12.7284952 60.70734,12.6503552 C61.0486048,12.5722151 61.3707285,12.5331456 61.6737206,12.5331456 C62.3466821,12.5331456 62.854585,12.6798554 63.1974445,12.9732794 C63.5403041,13.2667033 63.7117312,13.7275634 63.7117312,14.3558734 L63.7117312,17.92 L62.9080088,17.92 Z M61.2335869,17.15455 C61.6418289,17.15455 61.9695339,17.040531 62.2167117,16.8124895 C62.4638895,16.5844481 62.5874766,16.2647164 62.5874766,15.853285 L62.5874766,15.394015 L61.9081397,15.4227194 C61.3787008,15.4418557 60.9935876,15.53036 60.7527886,15.6882348 C60.5119896,15.8461097 60.3915919,16.0877024 60.3915919,16.4130203 C60.3915919,16.6490352 60.4617574,16.8316251 60.6020906,16.9607955 C60.7424238,17.0899658 60.9529205,17.15455 61.2335869,17.15455 Z M66.4051584,17.92 L65.2809038,17.92 L65.2809038,10.4759988 L66.4051584,10.4759988 L66.4051584,17.92 Z M77.1310266,17.92 L75.8871703,17.92 L74.7007228,13.7482975 C74.6496926,13.5665022 74.5859057,13.3041787 74.5093603,12.9613192 C74.4328149,12.6184597 74.3865695,12.3800563 74.3706225,12.2461019 C74.3387286,12.4502229 74.2869018,12.7149384 74.2151405,13.0402562 C74.1433792,13.3655741 74.083579,13.6079642 74.0357381,13.7674337 L72.877995,17.92 L71.6341388,17.92 L70.7299509,14.4180662 L69.8114109,10.9257006 L70.9787222,10.9257006 L71.9785913,15.0017219 C72.1348714,15.655547 72.2464984,16.2328181 72.3134756,16.7335525 C72.3485589,16.4624543 72.4011831,16.1594667 72.4713497,15.8245806 C72.5415163,15.4896946 72.6053032,15.2186004 72.6627122,15.01129 L73.8013191,10.9257006 L74.9351419,10.9257006 L76.1024531,15.0304262 C76.2140818,15.4099638 76.3320875,15.9776668 76.4564738,16.7335525 C76.5043146,16.2774696 76.619131,15.6970091 76.8009263,14.9921537 L77.7960113,10.9257006 L78.9537544,10.9257006 L77.1310266,17.92 Z M84.5176191,15.2648453 C84.5176191,16.1291703 84.2959597,16.8037163 83.8526344,17.2885037 C83.409309,17.7732912 82.7921711,18.0156813 82.0012022,18.0156813 C81.5068466,18.0156813 81.0699066,17.9040542 80.6903691,17.6807969 C80.3108315,17.4575395 80.0190066,17.1370105 79.8148856,16.7192003 C79.6107646,16.3013901 79.5087056,15.8166099 79.5087056,15.2648453 C79.5087056,14.4068991 79.7287703,13.7371371 80.1689062,13.2555391 C80.6090422,12.773941 81.2293694,12.5331456 82.0299066,12.5331456 C82.7953604,12.5331456 83.4013356,12.7795224 83.8478503,13.2722833 C84.294365,13.7650442 84.5176191,14.4292249 84.5176191,15.2648453 Z M80.6664488,15.2648453 C80.6664488,16.486382 81.1177408,17.0971412 82.0203384,17.0971412 C82.9133679,17.0971412 83.3598759,16.486382 83.3598759,15.2648453 C83.3598759,14.0560661 82.9101786,13.4516856 82.0107703,13.4516856 C81.5387405,13.4516856 81.1966834,13.6079634 80.9845889,13.9205237 C80.7724944,14.2330841 80.6664488,14.6811868 80.6664488,15.2648453 Z M88.493175,12.5331456 C88.7196218,12.5331456 88.9061983,12.5490923 89.0529103,12.5809863 L88.9428769,13.6286959 C88.7834073,13.5904232 88.6175615,13.5712872 88.4453344,13.5712872 C87.9956303,13.5712872 87.6312478,13.717997 87.3521761,14.0114209 C87.0731044,14.3048449 86.9335706,14.6859714 86.9335706,15.1548119 L86.9335706,17.92 L85.8093159,17.92 L85.8093159,12.6288269 L86.6895834,12.6288269 L86.8378894,13.5617191 L86.8952981,13.5617191 C87.0707146,13.2459694 87.29955,12.9956059 87.5818111,12.8106212 C87.8640722,12.6256366 88.1678571,12.5331456 88.493175,12.5331456 Z M91.1578978,17.92 L90.0336431,17.92 L90.0336431,10.4759988 L91.1578978,10.4759988 L91.1578978,17.92 Z M94.5497981,18.0156813 C93.8895942,18.0156813 93.3745153,17.7764805 93.0045459,17.2980719 C92.6345766,16.8196632 92.4495947,16.1483065 92.4495947,15.2839816 C92.4495947,14.4164672 92.6369686,13.7411238 93.011722,13.2579311 C93.3864755,12.7747384 93.9055411,12.5331456 94.5689344,12.5331456 C95.2642216,12.5331456 95.7936526,12.7898877 96.1572431,13.3033797 L96.2146519,13.3033797 C96.1604322,12.9238422 96.1333228,12.6240439 96.1333228,12.4039759 L96.1333228,10.4759988 L97.2623616,10.4759988 L97.2623616,17.92 L96.3820941,17.92 L96.1859475,17.2263109 L96.1333228,17.2263109 C95.7729216,17.7525604 95.2450854,18.0156813 94.5497981,18.0156813 Z M94.8511941,17.1067094 C95.3136557,17.1067094 95.6501314,16.9767436 95.8606312,16.7168083 C96.0711311,16.4568729 96.1795687,16.0350823 96.1859475,15.4514237 L96.1859475,15.2935497 C96.1859475,14.626967 96.0775098,14.1533495 95.8606312,13.8726831 C95.6437527,13.5920167 95.3040876,13.4516856 94.8416259,13.4516856 C94.4461415,13.4516856 94.1415592,13.6119501 93.92787,13.9324839 C93.7141808,14.2530177 93.6073378,14.7098911 93.6073378,15.3031178 C93.6073378,15.8899657 93.7109915,16.3372711 93.9183019,16.6450473 C94.1256123,16.9528236 94.4365732,17.1067094 94.8511941,17.1067094 Z M103.208951,17.92 L102.52483,15.4514237 C102.441906,15.1898937 102.292007,14.5823238 102.075128,13.6286959 L102.032072,13.6286959 C101.847087,14.4898315 101.700377,15.1005907 101.591938,15.4609919 L100.888681,17.92 L99.6448247,17.92 L98.1617653,12.6288269 L99.3099403,12.6288269 L99.9844931,15.2361409 C100.137584,15.8803979 100.246022,16.4321543 100.309809,16.8914266 L100.338514,16.8914266 C100.370408,16.658601 100.419045,16.3914935 100.484428,16.0900961 C100.54981,15.7886986 100.606421,15.5630526 100.654262,15.4131513 L101.457984,12.6288269 L102.692272,12.6288269 L103.472075,15.4131513 C103.519916,15.5694314 103.579716,15.8086321 103.651477,16.1307606 C103.723238,16.4528891 103.765497,16.7032525 103.778255,16.8818584 L103.816527,16.8818584 C103.864368,16.4895634 103.975995,15.9409963 104.151412,15.2361409 L104.835532,12.6288269 L105.964571,12.6288269 L104.471944,17.92 L103.208951,17.92 Z M107.997798,17.92 L106.873543,17.92 L106.873543,12.6288269 L107.997798,12.6288269 L107.997798,17.92 Z M106.806566,11.2270966 C106.806566,11.0261649 106.861582,10.8714818 106.971616,10.7630425 C107.08165,10.6546032 107.238726,10.6003844 107.442847,10.6003844 C107.640589,10.6003844 107.794475,10.6546032 107.904509,10.7630425 C108.014543,10.8714818 108.069559,11.0261649 108.069559,11.2270966 C108.069559,11.41846 108.014543,11.5691565 107.904509,11.6791905 C107.794475,11.7892245 107.640589,11.8442406 107.442847,11.8442406 C107.238726,11.8442406 107.08165,11.7892245 106.971616,11.6791905 C106.861582,11.5691565 106.806566,11.41846 106.806566,11.2270966 Z M111.389698,18.0156813 C110.729494,18.0156813 110.214415,17.7764805 109.844446,17.2980719 C109.474477,16.8196632 109.289495,16.1483065 109.289495,15.2839816 C109.289495,14.4164672 109.476869,13.7411238 109.851622,13.2579311 C110.226375,12.7747384 110.745441,12.5331456 111.408834,12.5331456 C112.104122,12.5331456 112.633553,12.7898877 112.997143,13.3033797 L113.054552,13.3033797 C113.000332,12.9238422 112.973223,12.6240439 112.973223,12.4039759 L112.973223,10.4759988 L114.102262,10.4759988 L114.102262,17.92 L113.221994,17.92 L113.025847,17.2263109 L112.973223,17.2263109 C112.612822,17.7525604 112.084985,18.0156813 111.389698,18.0156813 Z M111.691094,17.1067094 C112.153556,17.1067094 112.490031,16.9767436 112.700531,16.7168083 C112.911031,16.4568729 113.019469,16.0350823 113.025847,15.4514237 L113.025847,15.2935497 C113.025847,14.626967 112.91741,14.1533495 112.700531,13.8726831 C112.483653,13.5920167 112.143988,13.4516856 111.681526,13.4516856 C111.286041,13.4516856 110.981459,13.6119501 110.76777,13.9324839 C110.554081,14.2530177 110.447238,14.7098911 110.447238,15.3031178 C110.447238,15.8899657 110.550891,16.3372711 110.758202,16.6450473 C110.965512,16.9528236 111.276473,17.1067094 111.691094,17.1067094 Z M118.020409,18.0156813 C117.197546,18.0156813 116.554096,17.7756832 116.09004,17.2956798 C115.625983,16.8156765 115.393958,16.1546851 115.393958,15.3126859 C115.393958,14.448361 115.609239,13.7690309 116.039807,13.2746753 C116.470375,12.7803197 117.061998,12.5331456 117.814694,12.5331456 C118.513171,12.5331456 119.064927,12.7452369 119.46998,13.1694259 C119.875032,13.5936149 120.077556,14.1772647 120.077556,14.9203928 L120.077556,15.5279687 L116.551702,15.5279687 C116.567649,16.0414607 116.706385,16.4361419 116.967915,16.7120242 C117.229445,16.9879065 117.597814,17.1258456 118.073033,17.1258456 C118.385594,17.1258456 118.676621,17.0963442 118.946125,17.0373405 C119.215628,16.9783367 119.505061,16.8802644 119.814432,16.7431206 L119.814432,17.6568766 C119.540145,17.7876416 119.262672,17.8801325 118.982005,17.9343522 C118.701339,17.9885718 118.38081,18.0156813 118.020409,18.0156813 Z M117.814694,13.3847087 C117.457482,13.3847087 117.171239,13.4979304 116.955955,13.7243772 C116.740671,13.9508239 116.6123,14.280921 116.570838,14.7146781 L118.972437,14.7146781 C118.966058,14.2777316 118.86081,13.9468372 118.656689,13.7219852 C118.452568,13.4971331 118.171906,13.3847087 117.814694,13.3847087 Z" id="BigHospitalWorldwide" fill="#282E2E" fill-rule="nonzero"></path>
                    </g>
                    <rect id="Rectangle" fill="#E6E7E8" x="10.8" y="31.68" width="131.04" height="5.76"></rect>
                    <rect id="Rectangle" fill="#E6E7E8" x="10.8" y="43.2" width="63.36" height="5.76"></rect>
                </g>
                <g id="Group-31" transform="translate(26.640000, 152.640000)">
                    <g id="added-to-list-item">
                        <rect id="Rectangle" fill="#F9FAFC" x="0" y="0" width="254.88" height="61.92" rx="1.39968"></rect>
                        <g id="status/complete" transform="translate(225.000000, 20.000000)">
                            <g id="Group-2" fill="#FF0000" fill-opacity="0">
                                <rect id="Rectangle-7" x="0" y="0" width="21.34512" height="21.34512"></rect>
                            </g>
                            <polygon id="c" fill="#CFD5DF" fill-rule="nonzero" points="8.93867906 5.86596 14.0999991 11.02728 8.93867906 16.1886 7.72899469 14.9789156 11.6806303 11.02728 7.72899469 7.07564437"></polygon>
                        </g>
                        <path d="M16.3542966,13.0402562 C16.3542966,13.7706268 16.1150958,14.3303565 15.6366872,14.7194622 C15.1582785,15.1085679 14.4773538,15.3031178 13.5938925,15.3031178 L12.866715,15.3031178 L12.866715,17.92 L11.7233241,17.92 L11.7233241,10.9257006 L13.7374144,10.9257006 C14.6113075,10.9257006 15.2659202,11.1043038 15.701272,11.4615156 C16.1366239,11.8187274 16.3542966,12.344969 16.3542966,13.0402562 Z M12.866715,14.3415212 L13.4742909,14.3415212 C14.0611389,14.3415212 14.4917002,14.2394623 14.7659878,14.0353413 C15.0402754,13.8312202 15.1774172,13.5122859 15.1774172,13.0785287 C15.1774172,12.6766655 15.0546275,12.3768672 14.8090444,12.179125 C14.5634613,11.9813828 14.1807401,11.8825131 13.6608694,11.8825131 L12.866715,11.8825131 L12.866715,14.3415212 Z M22.3248066,15.2648453 C22.3248066,16.1291703 22.1031472,16.8037163 21.6598219,17.2885037 C21.2164965,17.7732912 20.5993586,18.0156813 19.8083897,18.0156813 C19.3140341,18.0156813 18.8770941,17.9040542 18.4975566,17.6807969 C18.118019,17.4575395 17.8261941,17.1370105 17.6220731,16.7192003 C17.4179521,16.3013901 17.3158931,15.8166099 17.3158931,15.2648453 C17.3158931,14.4068991 17.5359578,13.7371371 17.9760937,13.2555391 C18.4162297,12.773941 19.0365569,12.5331456 19.8370941,12.5331456 C20.6025479,12.5331456 21.2085231,12.7795224 21.6550378,13.2722833 C22.1015525,13.7650442 22.3248066,14.4292249 22.3248066,15.2648453 Z M18.4736362,15.2648453 C18.4736362,16.486382 18.9249283,17.0971412 19.8275259,17.0971412 C20.7205554,17.0971412 21.1670634,16.486382 21.1670634,15.2648453 C21.1670634,14.0560661 20.7173661,13.4516856 19.8179578,13.4516856 C19.345928,13.4516856 19.0038709,13.6079634 18.7917764,13.9205237 C18.5796819,14.2330841 18.4736362,14.6811868 18.4736362,15.2648453 Z M27.3480722,17.92 L27.1901981,17.2263109 L27.1327894,17.2263109 C26.9765092,17.471894 26.7540525,17.6648493 26.4654127,17.8051825 C26.1767728,17.9455157 25.8474731,18.0156813 25.4775037,18.0156813 C24.8364362,18.0156813 24.3580347,17.8562141 24.042285,17.537275 C23.7265353,17.2183359 23.5686628,16.7351504 23.5686628,16.0877041 L23.5686628,12.6288269 L24.7024856,12.6288269 L24.7024856,15.8915575 C24.7024856,16.2966102 24.7854085,16.6003951 24.9512569,16.8029214 C25.1171052,17.0054477 25.3770367,17.1067094 25.7310591,17.1067094 C26.2030889,17.1067094 26.54993,16.9655809 26.7715927,16.6833198 C26.9932553,16.4010587 27.104085,15.9282386 27.104085,15.2648453 L27.104085,12.6288269 L28.2331237,12.6288269 L28.2331237,17.92 L27.3480722,17.92 Z M31.62024,18.0156813 C30.9600361,18.0156813 30.4449572,17.7764805 30.0749878,17.2980719 C29.7050185,16.8196632 29.5200366,16.1483065 29.5200366,15.2839816 C29.5200366,14.4164672 29.7074105,13.7411238 30.0821639,13.2579311 C30.4569173,12.7747384 30.9759829,12.5331456 31.6393762,12.5331456 C32.3346635,12.5331456 32.8640944,12.7898877 33.227685,13.3033797 L33.2850938,13.3033797 C33.2308741,12.9238422 33.2037647,12.6240439 33.2037647,12.4039759 L33.2037647,10.4759988 L34.3328034,10.4759988 L34.3328034,17.92 L33.4525359,17.92 L33.2563894,17.2263109 L33.2037647,17.2263109 C32.8433635,17.7525604 32.3155272,18.0156813 31.62024,18.0156813 Z M31.9216359,17.1067094 C32.3840976,17.1067094 32.7205733,16.9767436 32.9310731,16.7168083 C33.1415729,16.4568729 33.2500106,16.0350823 33.2563894,15.4514237 L33.2563894,15.2935497 C33.2563894,14.626967 33.1479517,14.1533495 32.9310731,13.8726831 C32.7141945,13.5920167 32.3745295,13.4516856 31.9120678,13.4516856 C31.5165833,13.4516856 31.2120011,13.6119501 30.9983119,13.9324839 C30.7846227,14.2530177 30.6777797,14.7098911 30.6777797,15.3031178 C30.6777797,15.8899657 30.7814333,16.3372711 30.9887438,16.6450473 C31.1960542,16.9528236 31.5070151,17.1067094 31.9216359,17.1067094 Z M38.6241075,12.5331456 C38.8505543,12.5331456 39.0371308,12.5490923 39.1838428,12.5809863 L39.0738094,13.6286959 C38.9143398,13.5904232 38.748494,13.5712872 38.5762669,13.5712872 C38.1265628,13.5712872 37.7621803,13.717997 37.4831086,14.0114209 C37.2040369,14.3048449 37.0645031,14.6859714 37.0645031,15.1548119 L37.0645031,17.92 L35.9402484,17.92 L35.9402484,12.6288269 L36.8205159,12.6288269 L36.9688219,13.5617191 L37.0262306,13.5617191 C37.2016471,13.2459694 37.4304825,12.9956059 37.7127436,12.8106212 C37.9950047,12.6256366 38.2987896,12.5331456 38.6241075,12.5331456 Z M42.4752778,18.0156813 C41.6524149,18.0156813 41.008965,17.7756832 40.5449086,17.2956798 C40.0808522,16.8156765 39.8488275,16.1546851 39.8488275,15.3126859 C39.8488275,14.448361 40.0641082,13.7690309 40.4946759,13.2746753 C40.9252437,12.7803197 41.5168669,12.5331456 42.2695631,12.5331456 C42.9680397,12.5331456 43.5197961,12.7452369 43.9248487,13.1694259 C44.3299014,13.5936149 44.5324247,14.1772647 44.5324247,14.9203928 L44.5324247,15.5279687 L41.0065706,15.5279687 C41.0225176,16.0414607 41.161254,16.4361419 41.4227841,16.7120242 C41.6843141,16.9879065 42.0526832,17.1258456 42.5279025,17.1258456 C42.8404628,17.1258456 43.1314904,17.0963442 43.4009939,17.0373405 C43.6704974,16.9783367 43.9599303,16.8802644 44.2693012,16.7431206 L44.2693012,17.6568766 C43.9950136,17.7876416 43.7175408,17.8801325 43.4368744,17.9343522 C43.156208,17.9885718 42.835679,18.0156813 42.4752778,18.0156813 Z M42.2695631,13.3847087 C41.9123513,13.3847087 41.6261078,13.4979304 41.4108239,13.7243772 C41.19554,13.9508239 41.067169,14.280921 41.0257069,14.7146781 L43.4273063,14.7146781 C43.4209275,14.2777316 43.3156791,13.9468372 43.1115581,13.7219852 C42.9074371,13.4971331 42.6267749,13.3847087 42.2695631,13.3847087 Z M52.4596163,10.9257006 L53.6460638,10.9257006 L51.1966238,17.92 L49.99104,17.92 L47.5511681,10.9257006 L48.7280475,10.9257006 L50.1871866,15.2744134 C50.2637319,15.4817238 50.3450602,15.7488313 50.4311738,16.0757439 C50.5172873,16.4026565 50.5731008,16.6458439 50.5986159,16.8053134 C50.640078,16.5629197 50.7038649,16.2822575 50.7899784,15.9633184 C50.876092,15.6443793 50.9462575,15.408368 51.0004772,15.2552772 L52.4596163,10.9257006 Z M57.7603575,17.92 L57.5355066,17.1832544 L57.4972341,17.1832544 C57.2420828,17.5053829 56.9853407,17.7246502 56.727,17.841063 C56.4686593,17.9574757 56.1369677,18.0156813 55.731915,18.0156813 C55.2120443,18.0156813 54.8062004,17.8753502 54.5143711,17.5946838 C54.2225418,17.3140173 54.0766294,16.9169441 54.0766294,16.4034522 C54.0766294,15.8580663 54.2791527,15.4466411 54.6842053,15.1691641 C55.089258,14.8916871 55.7063959,14.7401933 56.5356375,14.7146781 L57.4493934,14.6859738 L57.4493934,14.4037141 C57.4493934,14.0656386 57.3704572,13.8128832 57.2125823,13.6454402 C57.0547075,13.4779971 56.8099254,13.3942769 56.4782287,13.3942769 C56.2071305,13.3942769 55.9471991,13.4341437 55.6984266,13.5138784 C55.4496541,13.5936132 55.2104533,13.6876988 54.9808172,13.7961381 L54.6172284,12.9924156 C54.9042736,12.8425143 55.2184239,12.7284952 55.5596888,12.6503552 C55.9009536,12.5722151 56.2230772,12.5331456 56.5260694,12.5331456 C57.1990309,12.5331456 57.7069338,12.6798554 58.0497933,12.9732794 C58.3926528,13.2667033 58.56408,13.7275634 58.56408,14.3558734 L58.56408,17.92 L57.7603575,17.92 Z M56.0859356,17.15455 C56.4941777,17.15455 56.8218827,17.040531 57.0690605,16.8124895 C57.3162383,16.5844481 57.4398253,16.2647164 57.4398253,15.853285 L57.4398253,15.394015 L56.7604884,15.4227194 C56.2310495,15.4418557 55.8459364,15.53036 55.6051373,15.6882348 C55.3643383,15.8461097 55.2439406,16.0877024 55.2439406,16.4130203 C55.2439406,16.6490352 55.3141062,16.8316251 55.4544394,16.9607955 C55.5947726,17.0899658 55.8052692,17.15455 56.0859356,17.15455 Z M61.2575072,17.92 L60.1332525,17.92 L60.1332525,10.4759988 L61.2575072,10.4759988 L61.2575072,17.92 Z M63.9892069,17.92 L62.8649522,17.92 L62.8649522,10.4759988 L63.9892069,10.4759988 L63.9892069,17.92 Z M67.9073541,18.0156813 C67.0844912,18.0156813 66.4410412,17.7756832 65.9769848,17.2956798 C65.5129285,16.8156765 65.2809038,16.1546851 65.2809038,15.3126859 C65.2809038,14.448361 65.4961844,13.7690309 65.9267522,13.2746753 C66.35732,12.7803197 66.9489431,12.5331456 67.7016394,12.5331456 C68.400116,12.5331456 68.9518723,12.7452369 69.356925,13.1694259 C69.7619777,13.5936149 69.9645009,14.1772647 69.9645009,14.9203928 L69.9645009,15.5279687 L66.4386469,15.5279687 C66.4545938,16.0414607 66.5933303,16.4361419 66.8548603,16.7120242 C67.1163904,16.9879065 67.4847595,17.1258456 67.9599788,17.1258456 C68.2725391,17.1258456 68.5635666,17.0963442 68.8330702,17.0373405 C69.1025737,16.9783367 69.3920066,16.8802644 69.7013775,16.7431206 L69.7013775,17.6568766 C69.4270899,17.7876416 69.149617,17.8801325 68.8689506,17.9343522 C68.5882842,17.9885718 68.2677552,18.0156813 67.9073541,18.0156813 Z M67.7016394,13.3847087 C67.3444276,13.3847087 67.058184,13.4979304 66.8429002,13.7243772 C66.6276163,13.9508239 66.4992452,14.280921 66.4577831,14.7146781 L68.8593825,14.7146781 C68.8530037,14.2777316 68.7477554,13.9468372 68.5436344,13.7219852 C68.3395134,13.4971331 68.0588512,13.3847087 67.7016394,13.3847087 Z M70.4381231,12.6288269 L71.6628431,12.6288269 L72.7392572,15.6284341 C72.9019161,16.0558124 73.0103538,16.4576697 73.0645734,16.8340178 L73.1028459,16.8340178 C73.1315505,16.6586013 73.1841746,16.4457127 73.26072,16.1953455 C73.3372654,15.9449783 73.742312,14.7561506 74.4758719,12.6288269 L75.6910237,12.6288269 L73.4281622,18.6232572 C73.0167308,19.7235971 72.331022,20.2737587 71.3710153,20.2737587 C71.1222428,20.2737587 70.8798527,20.2466493 70.6438378,20.1924297 L70.6438378,19.3025941 C70.8128755,19.3408668 71.0058308,19.3600028 71.2227094,19.3600028 C71.7649058,19.3600028 72.1460323,19.0458525 72.3661003,18.4175425 L72.5622469,17.92 L70.4381231,12.6288269 Z M84.6754931,17.92 L83.5273181,17.92 L83.5273181,14.7673028 L80.30286,14.7673028 L80.30286,17.92 L79.1594691,17.92 L79.1594691,10.9257006 L80.30286,10.9257006 L80.30286,13.78657 L83.5273181,13.78657 L83.5273181,10.9257006 L84.6754931,10.9257006 L84.6754931,17.92 Z M91.0909209,15.2648453 C91.0909209,16.1291703 90.8692616,16.8037163 90.4259362,17.2885037 C89.9826109,17.7732912 89.365473,18.0156813 88.5745041,18.0156813 C88.0801485,18.0156813 87.6432085,17.9040542 87.2636709,17.6807969 C86.8841334,17.4575395 86.5923085,17.1370105 86.3881875,16.7192003 C86.1840665,16.3013901 86.0820075,15.8166099 86.0820075,15.2648453 C86.0820075,14.4068991 86.3020722,13.7371371 86.7422081,13.2555391 C87.1823441,12.773941 87.8026713,12.5331456 88.6032084,12.5331456 C89.3686623,12.5331456 89.9746375,12.7795224 90.4211522,13.2722833 C90.8676669,13.7650442 91.0909209,14.4292249 91.0909209,15.2648453 Z M87.2397506,15.2648453 C87.2397506,16.486382 87.6910427,17.0971412 88.5936403,17.0971412 C89.4866698,17.0971412 89.9331778,16.486382 89.9331778,15.2648453 C89.9331778,14.0560661 89.4834804,13.4516856 88.5840722,13.4516856 C88.1120423,13.4516856 87.7699853,13.6079634 87.5578908,13.9205237 C87.3457963,14.2330841 87.2397506,14.6811868 87.2397506,15.2648453 Z M95.9371762,16.4130203 C95.9371762,16.9297016 95.749005,17.3259775 95.3726569,17.6018598 C94.9963087,17.8777422 94.4573098,18.0156813 93.7556437,18.0156813 C93.0507884,18.0156813 92.4846799,17.9088383 92.0573016,17.6951491 L92.0573016,16.7239844 C92.6792328,17.0110296 93.2580986,17.15455 93.7939162,17.15455 C94.4860141,17.15455 94.8320578,16.945648 94.8320578,16.5278378 C94.8320578,16.3938834 94.7937857,16.2822564 94.7172403,16.1929534 C94.6406949,16.1036505 94.5147159,16.0111595 94.3392994,15.9154778 C94.1638829,15.8197961 93.9198981,15.7113584 93.6073378,15.5901616 C92.9981641,15.3541466 92.5859415,15.1181352 92.3706577,14.8821203 C92.1553738,14.6461054 92.0477334,14.3399284 92.0477334,13.9635803 C92.0477334,13.5106868 92.2303233,13.1590617 92.5955086,12.9086945 C92.9606939,12.6583273 93.457434,12.5331456 94.0857441,12.5331456 C94.7076753,12.5331456 95.2961091,12.6591247 95.8510631,12.9110866 L95.4874744,13.7578656 C94.9165734,13.5218507 94.4365773,13.403845 94.0474716,13.403845 C93.4542448,13.403845 93.1576359,13.5728802 93.1576359,13.9109556 C93.1576359,14.076804 93.2349775,14.2171351 93.389663,14.3319531 C93.5443484,14.4467712 93.8816215,14.6046437 94.4014922,14.8055753 C94.8384387,14.974613 95.1557784,15.1292962 95.3535206,15.2696294 C95.5512629,15.4099626 95.6979726,15.5718217 95.7936544,15.7552117 C95.8893361,15.9386017 95.9371762,16.157869 95.9371762,16.4130203 Z M99.8361872,18.0156813 C99.1664151,18.0156813 98.6465522,17.7748858 98.2765828,17.2932878 L98.2096059,17.2932878 C98.2542574,17.7398025 98.2765828,18.0108967 98.2765828,18.1065784 L98.2765828,20.2737587 L97.1523281,20.2737587 L97.1523281,12.6288269 L98.0613,12.6288269 C98.0868151,12.727698 98.1394393,12.9637094 98.2191741,13.3368681 L98.2765828,13.3368681 C98.6274158,12.8010504 99.1536574,12.5331456 99.8553234,12.5331456 C100.515527,12.5331456 101.029809,12.7723464 101.398184,13.250755 C101.766558,13.7291636 101.950743,14.4005204 101.950743,15.2648453 C101.950743,16.1291703 101.763369,16.8037163 101.388615,17.2885037 C101.013862,17.7732912 100.496391,18.0156813 99.8361872,18.0156813 Z M99.5634956,13.4516856 C99.1169809,13.4516856 98.7908706,13.5824487 98.5851548,13.8439787 C98.3794391,14.1055088 98.2765828,14.5233128 98.2765828,15.0974031 L98.2765828,15.2648453 C98.2765828,15.9091023 98.3786418,16.3755437 98.5827628,16.6641836 C98.7868838,16.9528235 99.1201702,17.0971412 99.5826319,17.0971412 C99.9717376,17.0971412 100.271536,16.9376741 100.482036,16.618735 C100.692535,16.2997959 100.797784,15.8453145 100.797784,15.2552772 C100.797784,14.6620505 100.693333,14.2131504 100.484428,13.9085636 C100.275523,13.6039768 99.9685483,13.4516856 99.5634956,13.4516856 Z M104.381047,17.92 L103.256792,17.92 L103.256792,12.6288269 L104.381047,12.6288269 L104.381047,17.92 Z M103.189815,11.2270966 C103.189815,11.0261649 103.244831,10.8714818 103.354865,10.7630425 C103.464899,10.6546032 103.621974,10.6003844 103.826095,10.6003844 C104.023838,10.6003844 104.177723,10.6546032 104.287757,10.7630425 C104.397791,10.8714818 104.452807,11.0261649 104.452807,11.2270966 C104.452807,11.41846 104.397791,11.5691565 104.287757,11.6791905 C104.177723,11.7892245 104.023838,11.8442406 103.826095,11.8442406 C103.621974,11.8442406 103.464899,11.7892245 103.354865,11.6791905 C103.244831,11.5691565 103.189815,11.41846 103.189815,11.2270966 Z M107.959525,17.1067094 C108.233813,17.1067094 108.508096,17.0636532 108.782384,16.9775397 L108.782384,17.8243187 C108.657998,17.8785384 108.497733,17.9239865 108.301586,17.9606645 C108.105438,17.9973425 107.902118,18.0156813 107.691618,18.0156813 C106.626361,18.0156813 106.093741,17.4543569 106.093741,16.3316912 L106.093741,13.48039 L105.371347,13.48039 L105.371347,12.9828475 L106.146366,12.5714181 L106.529091,11.4519475 L107.22278,11.4519475 L107.22278,12.6288269 L108.729759,12.6288269 L108.729759,13.48039 L107.22278,13.48039 L107.22278,16.312555 C107.22278,16.5836532 107.290553,16.7837845 107.426102,16.9129548 C107.561651,17.0421252 107.739457,17.1067094 107.959525,17.1067094 Z M113.150233,17.92 L112.925382,17.1832544 L112.88711,17.1832544 C112.631958,17.5053829 112.375216,17.7246502 112.116876,17.841063 C111.858535,17.9574757 111.526843,18.0156813 111.121791,18.0156813 C110.60192,18.0156813 110.196076,17.8753502 109.904247,17.5946838 C109.612417,17.3140173 109.466505,16.9169441 109.466505,16.4034522 C109.466505,15.8580663 109.669028,15.4466411 110.074081,15.1691641 C110.479134,14.8916871 111.096271,14.7401933 111.925513,14.7146781 L112.839269,14.6859738 L112.839269,14.4037141 C112.839269,14.0656386 112.760333,13.8128832 112.602458,13.6454402 C112.444583,13.4779971 112.199801,13.3942769 111.868104,13.3942769 C111.597006,13.3942769 111.337075,13.4341437 111.088302,13.5138784 C110.83953,13.5936132 110.600329,13.6876988 110.370693,13.7961381 L110.007104,12.9924156 C110.294149,12.8425143 110.6083,12.7284952 110.949564,12.6503552 C111.290829,12.5722151 111.612953,12.5331456 111.915945,12.5331456 C112.588906,12.5331456 113.096809,12.6798554 113.439669,12.9732794 C113.782528,13.2667033 113.953956,13.7275634 113.953956,14.3558734 L113.953956,17.92 L113.150233,17.92 Z M111.475811,17.15455 C111.884053,17.15455 112.211758,17.040531 112.458936,16.8124895 C112.706114,16.5844481 112.829701,16.2647164 112.829701,15.853285 L112.829701,15.394015 L112.150364,15.4227194 C111.620925,15.4418557 111.235812,15.53036 110.995013,15.6882348 C110.754214,15.8461097 110.633816,16.0877024 110.633816,16.4130203 C110.633816,16.6490352 110.703982,16.8316251 110.844315,16.9607955 C110.984648,17.0899658 111.195145,17.15455 111.475811,17.15455 Z M116.647383,17.92 L115.523128,17.92 L115.523128,10.4759988 L116.647383,10.4759988 L116.647383,17.92 Z" id="PoudreValleyHospital" fill="#282E2E" fill-rule="nonzero"></path>
                    </g>
                    <rect id="Rectangle" fill="#E6E7E8" x="10.8" y="31.68" width="131.04" height="5.76"></rect>
                    <rect id="Rectangle" fill="#E6E7E8" x="10.8" y="43.2" width="63.36" height="5.76"></rect>
                </g>
            </g>
        </g>
    </g>
</svg>