<?xml version="1.0" encoding="UTF-8"?>
<svg width="349px" height="230px" viewBox="0 0 349 230" version="1.1" xmlns="http://www.w3.org/2000/svg" xmlns:xlink="http://www.w3.org/1999/xlink">
    <!-- Generator: Sketch 53.2 (72643) - https://sketchapp.com -->
    <title>port-card-1</title>
    <desc>Created with Sketch.</desc>
    <defs>
        <rect id="path-1" x="0" y="0.0576" width="299.376" height="178.848" rx="15.12"></rect>
        <filter x="-24.9%" y="-14.3%" width="133.4%" height="157.0%" filterUnits="objectBoundingBox" id="filter-2">
            <feOffset dx="-36" dy="38" in="SourceAlpha" result="shadowOffsetOuter1"></feOffset>
            <feGaussianBlur stdDeviation="6.5" in="shadowOffsetOuter1" result="shadowBlurOuter1"></feGaussianBlur>
            <feColorMatrix values="0 0 0 0 0   0 0 0 0 0   0 0 0 0 0  0 0 0 0.121530813 0" type="matrix" in="shadowBlurOuter1"></feColorMatrix>
        </filter>
    </defs>
    <g id="final-graphics" stroke="none" stroke-width="1" fill="none" fill-rule="evenodd">
        <g id="port-card-1" transform="translate(48.900000, 0.000000)">
            <g id="Group-34" transform="translate(0.000000, 0.200000)">
                <g id="Group-22">
                    <g id="Group-10">
                        <g id="Mask">
                            <use fill="black" fill-opacity="1" filter="url(#filter-2)" xlink:href="#path-1"></use>
                            <use fill="#FFFFFF" fill-rule="evenodd" xlink:href="#path-1"></use>
                        </g>
                        <path d="M25.1244117,16.1265039 C24.1878836,16.1265039 23.4627541,16.4783656 22.9490016,17.1820996 C22.435249,17.8858336 22.1783766,18.8664976 22.1783766,20.1241211 C22.1783766,22.7410482 23.1603785,24.0494922 25.1244117,24.0494922 C25.9485565,24.0494922 26.9466129,23.8434591 28.1186109,23.4313867 L28.1186109,25.5184961 C27.1553249,25.9198653 26.0796716,26.1205469 24.8916187,26.1205469 C23.1844618,26.1205469 21.8786936,25.6027884 20.974275,24.5672559 C20.0698564,23.5317233 19.6176539,22.0453417 19.6176539,20.1080664 C19.6176539,18.8879041 19.8397415,17.8189401 20.2839234,16.9011426 C20.7281053,15.983345 21.3662728,15.2796216 22.1984449,14.7899512 C23.0306171,14.3002808 24.0059296,14.0554492 25.1244117,14.0554492 C26.2643002,14.0554492 27.4095232,14.3310519 28.5601148,14.8822656 L27.7573805,16.9051563 C27.3185501,16.6964443 26.8770507,16.514493 26.4328687,16.3592969 C25.9886868,16.2041008 25.5525389,16.1265039 25.1244117,16.1265039 Z M36.7801148,25.96 L36.4509937,24.8120898 L36.3225562,24.8120898 C36.0603284,25.2295138 35.6883985,25.5519422 35.2067555,25.7793848 C34.7251124,26.0068273 34.1765828,26.1205469 33.56115,26.1205469 C32.5068869,26.1205469 31.7121878,25.8382548 31.1770289,25.2736621 C30.64187,24.7090694 30.3742945,23.896978 30.3742945,22.8373633 L30.3742945,16.9854297 L32.8226344,16.9854297 L32.8226344,22.2272852 C32.8226344,22.8748275 32.9376918,23.3604769 33.1678102,23.684248 C33.3979285,24.0080192 33.7645069,24.1699023 34.2675562,24.1699023 C34.9525597,24.1699023 35.4475743,23.9411253 35.7526148,23.4835645 C36.0576554,23.0260036 36.2101734,22.2674272 36.2101734,21.2078125 L36.2101734,16.9854297 L38.6585133,16.9854297 L38.6585133,25.96 L36.7801148,25.96 Z M46.2363258,16.8168555 C46.5681243,16.8168555 46.843727,16.8409373 47.0631422,16.8891016 L46.8785133,19.1849219 C46.6805045,19.131406 46.4396866,19.1046484 46.1560523,19.1046484 C45.3747203,19.1046484 44.7659862,19.30533 44.3298316,19.7066992 C43.8936771,20.1080684 43.6756031,20.6699769 43.6756031,21.3924414 L43.6756031,25.96 L41.2272633,25.96 L41.2272633,16.9854297 L43.0815797,16.9854297 L43.4428102,18.4945703 L43.5632203,18.4945703 C43.841503,17.9915209 44.2174465,17.5861441 44.6910621,17.2784277 C45.1646778,16.9707114 45.6797605,16.8168555 46.2363258,16.8168555 Z M53.7017555,16.8168555 C54.033554,16.8168555 54.3091567,16.8409373 54.5285719,16.8891016 L54.343943,19.1849219 C54.1459342,19.131406 53.9051163,19.1046484 53.621482,19.1046484 C52.84015,19.1046484 52.2314159,19.30533 51.7952613,19.7066992 C51.3591068,20.1080684 51.1410328,20.6699769 51.1410328,21.3924414 L51.1410328,25.96 L48.692693,25.96 L48.692693,16.9854297 L50.5470094,16.9854297 L50.9082398,18.4945703 L51.02865,18.4945703 C51.3069326,17.9915209 51.6828761,17.5861441 52.1564918,17.2784277 C52.6301074,16.9707114 53.1451902,16.8168555 53.7017555,16.8168555 Z M59.5456617,18.5587891 C59.0265576,18.5587891 58.6198429,18.723348 58.3255055,19.0524707 C58.0311681,19.3815934 57.8625955,19.8485126 57.8197828,20.4532422 L61.2554859,20.4532422 C61.2447828,19.8485126 61.0869132,19.3815934 60.7818727,19.0524707 C60.4768321,18.723348 60.0647659,18.5587891 59.5456617,18.5587891 Z M59.8908375,26.1205469 C58.4459084,26.1205469 57.31674,25.7218595 56.5032984,24.9244727 C55.6898569,24.1270859 55.2831422,22.9979175 55.2831422,21.5369336 C55.2831422,20.033137 55.6590857,18.8705217 56.410984,18.0490527 C57.1628823,17.2275838 58.2024129,16.8168555 59.529607,16.8168555 C60.7979337,16.8168555 61.7852871,17.1780823 62.4916969,17.9005469 C63.1981067,18.6230114 63.5513062,19.6210679 63.5513062,20.8947461 L63.5513062,22.082793 L57.7635914,22.082793 C57.7903494,22.7784996 57.9963824,23.3216777 58.3816969,23.7123438 C58.7670113,24.1030098 59.3075137,24.2983398 60.0032203,24.2983398 C60.5437308,24.2983398 61.0547999,24.242149 61.536443,24.1297656 C62.018086,24.0173823 62.5211278,23.8381067 63.0455836,23.5919336 L63.0455836,25.4863867 C62.6174565,25.7004503 62.1599024,25.8596577 61.6729078,25.9640137 C61.1859132,26.0683697 60.5918957,26.1205469 59.8908375,26.1205469 Z M73.8263062,25.96 L71.3779664,25.96 L71.3779664,20.7181445 C71.3779664,20.0706022 71.262909,19.5849528 71.0327906,19.2611816 C70.8026723,18.9374105 70.4360939,18.7755273 69.9330445,18.7755273 C69.2480411,18.7755273 68.7530265,19.0043044 68.4479859,19.4618652 C68.1429453,19.9194261 67.9904273,20.6780025 67.9904273,21.7376172 L67.9904273,25.96 L65.5420875,25.96 L65.5420875,16.9854297 L67.4124586,16.9854297 L67.7415797,18.1333398 L67.8780445,18.1333398 C68.1509756,17.6998611 68.5269191,17.3720812 69.0058863,17.1499902 C69.4848536,16.9278993 70.0293696,16.8168555 70.6394508,16.8168555 C71.6830107,16.8168555 72.475034,17.0991476 73.0155445,17.6637402 C73.556055,18.2283329 73.8263062,19.0431001 73.8263062,20.1080664 L73.8263062,25.96 Z M80.1277711,24.1699023 C80.5558982,24.1699023 81.0696431,24.0762509 81.6690211,23.8889453 L81.6690211,25.7111523 C81.0589399,25.9840834 80.3097287,26.1205469 79.4213648,26.1205469 C78.442024,26.1205469 77.7289354,25.8730396 77.2820777,25.3780176 C76.83522,24.8829956 76.6117945,24.1404737 76.6117945,23.1504297 L76.6117945,18.8236914 L75.4398023,18.8236914 L75.4398023,17.7881641 L76.7883961,16.969375 L77.4948023,15.0749219 L79.0601344,15.0749219 L79.0601344,16.9854297 L81.572693,16.9854297 L81.572693,18.8236914 L79.0601344,18.8236914 L79.0601344,23.1504297 C79.0601344,23.498283 79.1577994,23.7551554 79.3531324,23.9210547 C79.5484654,24.086954 79.8066757,24.1699023 80.1277711,24.1699023 Z" id="Current" fill="#00D779" fill-rule="nonzero"></path>
                        <path d="M21.450825,63.1876344 L22.5223031,63.1876344 C23.2409286,63.1876344 23.7616015,63.0542388 24.0843375,62.7874438 C24.4070735,62.5206487 24.5684391,62.1247651 24.5684391,61.5997813 C24.5684391,61.0661911 24.3941642,60.6832168 24.0456094,60.4508469 C23.6970545,60.218477 23.1720785,60.1022938 22.4706656,60.1022938 L21.450825,60.1022938 L21.450825,63.1876344 Z M21.450825,64.4656625 L21.450825,68.2352 L19.9081547,68.2352 L19.9081547,58.7984469 L22.5739406,58.7984469 C23.7917311,58.7984469 24.6932268,59.0265102 25.2784547,59.4826438 C25.8636826,59.9387773 26.1562922,60.6272704 26.1562922,61.5481438 C26.1562922,62.7229027 25.5452545,63.5598522 24.3231609,64.0590172 L26.9889469,68.2352 L25.2332719,68.2352 L22.9741313,64.4656625 L21.450825,64.4656625 Z M31.3135875,68.3642938 C30.2033757,68.3642938 29.3352289,68.0404868 28.7091211,67.3928633 C28.0830133,66.7452397 27.7699641,65.853426 27.7699641,64.7173953 C27.7699641,63.5512426 28.0604221,62.6346861 28.6413469,61.9676984 C29.2222717,61.3007107 30.0204934,60.9672219 31.0360359,60.9672219 C31.978425,60.9672219 32.7228582,61.2533768 33.2693578,61.8256953 C33.8158574,62.3980138 34.0891031,63.1854778 34.0891031,64.1881109 L34.0891031,65.0078563 L29.3319984,65.0078563 C29.3535142,65.7006628 29.5406982,66.2331692 29.8935563,66.6053914 C30.2464143,66.9776136 30.7434202,67.1637219 31.3845891,67.1637219 C31.8062974,67.1637219 32.1989537,67.1239184 32.5625695,67.0443102 C32.9261854,66.9647019 33.3166901,66.8323822 33.7340953,66.6473469 L33.7340953,67.8801922 C33.3640247,68.0566212 32.9896566,68.1814106 32.6109797,68.2545641 C32.2323028,68.3277176 31.7998431,68.3642938 31.3135875,68.3642938 Z M31.0360359,62.1161563 C30.5540835,62.1161563 30.1678819,62.2689157 29.8774195,62.5744391 C29.5869571,62.8799625 29.4137581,63.3253314 29.3578172,63.9105594 L32.5980703,63.9105594 C32.589464,63.3210283 32.4474623,62.8745835 32.1720609,62.5712117 C31.8966596,62.2678399 31.5179883,62.1161563 31.0360359,62.1161563 Z M41.8411828,61.0963156 L41.8411828,61.9289703 L40.6212469,62.1548844 C40.7331287,62.3054945 40.8256449,62.490527 40.8987984,62.7099875 C40.9719519,62.929448 41.0085281,63.1618144 41.0085281,63.4070938 C41.0085281,64.1429318 40.7546463,64.7216963 40.246875,65.1434047 C39.7391037,65.565113 39.0398529,65.7759641 38.1491016,65.7759641 C37.9210348,65.7759641 37.7144869,65.7587517 37.5294516,65.7243266 C37.2024124,65.9265744 37.0388953,66.163244 37.0388953,66.4343422 C37.0388953,66.5978618 37.115275,66.7204996 37.2680367,66.8022594 C37.4207984,66.8840192 37.7015745,66.9248984 38.1103734,66.9248984 L39.3561281,66.9248984 C40.1436039,66.9248984 40.7417323,67.0927186 41.1505313,67.4283641 C41.5593302,67.7640095 41.7637266,68.2481062 41.7637266,68.8806688 C41.7637266,69.6896603 41.4302377,70.3136072 40.76325,70.7525281 C40.0962623,71.1914491 39.1323719,71.4109063 37.87155,71.4109063 C36.8990389,71.4109063 36.1567572,71.238783 35.6446828,70.8945313 C35.1326084,70.5502795 34.876575,70.0597282 34.876575,69.4228625 C34.876575,68.9839416 35.0153494,68.6149523 35.2929023,68.3158836 C35.5704553,68.0168149 35.9588084,67.8091912 36.4579734,67.6930063 C36.2557256,67.6069433 36.0889811,67.4681689 35.9577352,67.2766789 C35.8264892,67.0851889 35.7608672,66.8840198 35.7608672,66.6731656 C35.7608672,66.4063705 35.8361711,66.1804587 35.9867813,65.9954234 C36.1373914,65.8103881 36.3611516,65.6275072 36.6580688,65.446775 C36.2879981,65.2875586 35.9878582,65.0282979 35.7576398,64.6689852 C35.5274215,64.3096724 35.4123141,63.8890462 35.4123141,63.4070938 C35.4123141,62.6325274 35.656514,62.0322474 36.1449211,61.6062359 C36.6333282,61.1802244 37.3293517,60.9672219 38.2330125,60.9672219 C38.4352604,60.9672219 38.6471872,60.9812069 38.8687992,61.0091773 C39.0904113,61.0371478 39.2571557,61.0661936 39.3690375,61.0963156 L41.8411828,61.0963156 Z M36.2320594,69.3454063 C36.2320594,69.6724454 36.3794399,69.9241757 36.6742055,70.1006047 C36.968971,70.2770337 37.3831426,70.3652469 37.9167328,70.3652469 C38.7429369,70.3652469 39.3582777,70.2469121 39.7627734,70.0102391 C40.1672692,69.773566 40.3695141,69.459441 40.3695141,69.0678547 C40.3695141,68.7580281 40.2587097,68.5374952 40.0370977,68.4062492 C39.8154856,68.2750033 39.4034655,68.2093813 38.801025,68.2093813 L37.6520906,68.2093813 C37.2174728,68.2093813 36.8721505,68.3115794 36.6161133,68.5159789 C36.3600761,68.7203784 36.2320594,68.9968514 36.2320594,69.3454063 Z M36.8839828,63.4070938 C36.8839828,63.854621 36.9990903,64.1988675 37.2293086,64.4398438 C37.4595269,64.68082 37.7897885,64.8013063 38.2201031,64.8013063 C39.097945,64.8013063 39.5368594,64.3322703 39.5368594,63.3941844 C39.5368594,62.9294446 39.4282066,62.571213 39.2108977,62.3194789 C38.9935888,62.0677448 38.6633272,61.9418797 38.2201031,61.9418797 C37.7811822,61.9418797 37.4487691,62.0666691 37.2228539,62.3162516 C36.9969387,62.5658341 36.8839828,62.9294445 36.8839828,63.4070938 Z M44.6812453,68.2352 L43.1643938,68.2352 L43.1643938,61.0963156 L44.6812453,61.0963156 L44.6812453,68.2352 Z M43.0740281,59.2050922 C43.0740281,58.933994 43.1482563,58.7252945 43.2967148,58.5789875 C43.4451734,58.4326805 43.6571002,58.3595281 43.9325016,58.3595281 C44.1992966,58.3595281 44.4069204,58.4326805 44.5553789,58.5789875 C44.7038375,58.7252945 44.7780656,58.933994 44.7780656,59.2050922 C44.7780656,59.463281 44.7038375,59.6666016 44.5553789,59.8150602 C44.4069204,59.9635187 44.1992966,60.0377469 43.9325016,60.0377469 C43.6571002,60.0377469 43.4451734,59.9635187 43.2967148,59.8150602 C43.1482563,59.6666016 43.0740281,59.463281 43.0740281,59.2050922 Z M51.6458531,66.2019734 C51.6458531,66.8990832 51.3919713,67.4337411 50.8842,67.8059633 C50.3764287,68.1781855 49.6492079,68.3642938 48.7025156,68.3642938 C47.7515202,68.3642938 46.9877232,68.2201405 46.4111016,67.9318297 L46.4111016,66.6215281 C47.2502151,67.0088113 48.0312245,67.20245 48.7541531,67.20245 C49.6879359,67.20245 50.1548203,66.9205981 50.1548203,66.3568859 C50.1548203,66.1761538 50.1031833,66.0255459 49.9999078,65.9050578 C49.8966323,65.7845697 49.7266606,65.6597803 49.4899875,65.5306859 C49.2533144,65.4015915 48.9241287,65.2552868 48.5024203,65.0917672 C47.6805193,64.7733343 47.124346,64.4549063 46.8338836,64.1364734 C46.5434212,63.8180406 46.3981922,63.4049447 46.3981922,62.8971734 C46.3981922,62.2861266 46.6445436,61.8117118 47.1372539,61.4739148 C47.6299642,61.1361178 48.3001692,60.9672219 49.1478891,60.9672219 C49.9870026,60.9672219 50.7809213,61.1371936 51.5296688,61.4771422 L51.0391125,62.6196219 C50.2688493,62.301189 49.6212354,62.141975 49.0962516,62.141975 C48.2958663,62.141975 47.8956797,62.3700383 47.8956797,62.8261719 C47.8956797,63.0499355 48.0000294,63.2392711 48.208732,63.3941844 C48.4174346,63.5490976 48.8724856,63.7621002 49.5738984,64.0331984 C50.1634295,64.2612652 50.5915862,64.4699647 50.8583813,64.6593031 C51.1251763,64.8486416 51.3231181,65.067023 51.4522125,65.3144539 C51.5813069,65.5618848 51.6458531,65.8577217 51.6458531,66.2019734 Z M55.944675,67.1379031 C56.3147456,67.1379031 56.6848106,67.0798115 57.0548813,66.9636266 L57.0548813,68.1061063 C56.8870585,68.1792597 56.6708287,68.2405787 56.4061852,68.2900648 C56.1415416,68.339551 55.8672202,68.3642938 55.5832125,68.3642938 C54.1459616,68.3642938 53.4273469,67.6069513 53.4273469,66.0922438 L53.4273469,62.24525 L52.4526891,62.24525 L52.4526891,61.5739625 L53.4983484,61.0188594 L54.0147234,59.5084625 L54.9506531,59.5084625 L54.9506531,61.0963156 L56.9838797,61.0963156 L56.9838797,62.24525 L54.9506531,62.24525 L54.9506531,66.066425 C54.9506531,66.4321925 55.0420936,66.7022108 55.2249773,66.8764883 C55.4078611,67.0507657 55.6477579,67.1379031 55.944675,67.1379031 Z M61.5989813,68.3642938 C60.4887694,68.3642938 59.6206227,68.0404868 58.9945148,67.3928633 C58.368407,66.7452397 58.0553578,65.853426 58.0553578,64.7173953 C58.0553578,63.5512426 58.3458158,62.6346861 58.9267406,61.9676984 C59.5076654,61.3007107 60.3058871,60.9672219 61.3214297,60.9672219 C62.2638188,60.9672219 63.008252,61.2533768 63.5547516,61.8256953 C64.1012512,62.3980138 64.3744969,63.1854778 64.3744969,64.1881109 L64.3744969,65.0078563 L59.6173922,65.0078563 C59.6389079,65.7006628 59.826092,66.2331692 60.17895,66.6053914 C60.531808,66.9776136 61.028814,67.1637219 61.6699828,67.1637219 C62.0916912,67.1637219 62.4843474,67.1239184 62.8479633,67.0443102 C63.2115792,66.9647019 63.6020839,66.8323822 64.0194891,66.6473469 L64.0194891,67.8801922 C63.6494185,68.0566212 63.2750503,68.1814106 62.8963734,68.2545641 C62.5176965,68.3277176 62.0852368,68.3642938 61.5989813,68.3642938 Z M61.3214297,62.1161563 C60.8394773,62.1161563 60.4532757,62.2689157 60.1628133,62.5744391 C59.8723509,62.8799625 59.6991518,63.3253314 59.6432109,63.9105594 L62.8834641,63.9105594 C62.8748578,63.3210283 62.7328561,62.8745835 62.4574547,62.5712117 C62.1820533,62.2678399 61.8033821,62.1161563 61.3214297,62.1161563 Z M69.7189781,60.9672219 C70.0245015,60.9672219 70.2762318,60.9887373 70.4741766,61.0317688 L70.3257188,62.4453453 C70.1105614,62.3937076 69.8868012,62.3678891 69.6544313,62.3678891 C69.0476876,62.3678891 68.5560605,62.5658308 68.1795352,62.9617203 C67.8030098,63.3576098 67.61475,63.8718281 67.61475,64.5043906 L67.61475,68.2352 L66.0978984,68.2352 L66.0978984,61.0963156 L67.2855609,61.0963156 L67.4856563,62.3549797 L67.5631125,62.3549797 C67.7997856,61.9289682 68.1085317,61.5911762 68.4893602,61.3415938 C68.8701886,61.0920113 69.2800572,60.9672219 69.7189781,60.9672219 Z M74.6503594,68.3642938 C73.5401476,68.3642938 72.6720008,68.0404868 72.045893,67.3928633 C71.4197852,66.7452397 71.1067359,65.853426 71.1067359,64.7173953 C71.1067359,63.5512426 71.397194,62.6346861 71.9781188,61.9676984 C72.5590435,61.3007107 73.3572652,60.9672219 74.3728078,60.9672219 C75.3151969,60.9672219 76.0596301,61.2533768 76.6061297,61.8256953 C77.1526293,62.3980138 77.425875,63.1854778 77.425875,64.1881109 L77.425875,65.0078563 L72.6687703,65.0078563 C72.690286,65.7006628 72.8774701,66.2331692 73.2303281,66.6053914 C73.5831861,66.9776136 74.0801921,67.1637219 74.7213609,67.1637219 C75.1430693,67.1637219 75.5357255,67.1239184 75.8993414,67.0443102 C76.2629573,66.9647019 76.653462,66.8323822 77.0708672,66.6473469 L77.0708672,67.8801922 C76.7007966,68.0566212 76.3264285,68.1814106 75.9477516,68.2545641 C75.5690747,68.3277176 75.1366149,68.3642938 74.6503594,68.3642938 Z M74.3728078,62.1161563 C73.8908554,62.1161563 73.5046538,62.2689157 73.2141914,62.5744391 C72.923729,62.8799625 72.75053,63.3253314 72.6945891,63.9105594 L75.9348422,63.9105594 C75.9262359,63.3210283 75.7842342,62.8745835 75.5088328,62.5712117 C75.2334314,62.2678399 74.8547602,62.1161563 74.3728078,62.1161563 Z M81.556875,68.3642938 C80.6661237,68.3642938 79.9711759,68.0415626 79.4720109,67.3960906 C78.9728459,66.7506186 78.7232672,65.8448199 78.7232672,64.6786672 C78.7232672,63.5082113 78.9760733,62.5970337 79.481693,61.945107 C79.9873127,61.2931803 80.6876393,60.9672219 81.5826938,60.9672219 C82.5207797,60.9672219 83.2350913,61.31362 83.72565,62.0064266 L83.8031063,62.0064266 C83.7299528,61.4943521 83.6933766,61.0898624 83.6933766,60.7929453 L83.6933766,58.1917063 L85.2166828,58.1917063 L85.2166828,68.2352 L84.0290203,68.2352 L83.7643781,67.2992703 L83.6933766,67.2992703 C83.207121,68.0092895 82.4949609,68.3642938 81.556875,68.3642938 Z M81.9635203,67.1379031 C82.5874766,67.1379031 83.0414517,66.9625525 83.3254594,66.6118461 C83.609467,66.2611397 83.7557718,65.6920571 83.7643781,64.9045813 L83.7643781,64.6915766 C83.7643781,63.7922189 83.6180733,63.1532113 83.3254594,62.7745344 C83.0328454,62.3958575 82.5745672,62.2065219 81.9506109,62.2065219 C81.4170208,62.2065219 81.0060764,62.4227517 80.7177656,62.855218 C80.4294548,63.2876842 80.2853016,63.9041007 80.2853016,64.7044859 C80.2853016,65.4962649 80.4251517,66.0997721 80.7048563,66.5150258 C80.9845608,66.9302794 81.4041113,67.1379031 81.9635203,67.1379031 Z M92.5233891,63.1876344 L93.5948672,63.1876344 C94.3134927,63.1876344 94.8341656,63.0542388 95.1569016,62.7874438 C95.4796376,62.5206487 95.6410031,62.1247651 95.6410031,61.5997813 C95.6410031,61.0661911 95.4667283,60.6832168 95.1181734,60.4508469 C94.7696186,60.218477 94.2446426,60.1022938 93.5432297,60.1022938 L92.5233891,60.1022938 L92.5233891,63.1876344 Z M92.5233891,64.4656625 L92.5233891,68.2352 L90.9807188,68.2352 L90.9807188,58.7984469 L93.6465047,58.7984469 C94.8642952,58.7984469 95.7657908,59.0265102 96.3510188,59.4826438 C96.9362467,59.9387773 97.2288563,60.6272704 97.2288563,61.5481438 C97.2288563,62.7229027 96.6178186,63.5598522 95.395725,64.0590172 L98.0615109,68.2352 L96.3058359,68.2352 L94.0466953,64.4656625 L92.5233891,64.4656625 Z M102.386152,68.3642938 C101.27594,68.3642938 100.407793,68.0404868 99.7816852,67.3928633 C99.1555773,66.7452397 98.8425281,65.853426 98.8425281,64.7173953 C98.8425281,63.5512426 99.1329862,62.6346861 99.7139109,61.9676984 C100.294836,61.3007107 101.093057,60.9672219 102.1086,60.9672219 C103.050989,60.9672219 103.795422,61.2533768 104.341922,61.8256953 C104.888421,62.3980138 105.161667,63.1854778 105.161667,64.1881109 L105.161667,65.0078563 L100.404563,65.0078563 C100.426078,65.7006628 100.613262,66.2331692 100.96612,66.6053914 C101.318978,66.9776136 101.815984,67.1637219 102.457153,67.1637219 C102.878861,67.1637219 103.271518,67.1239184 103.635134,67.0443102 C103.998749,66.9647019 104.389254,66.8323822 104.806659,66.6473469 L104.806659,67.8801922 C104.436589,68.0566212 104.062221,68.1814106 103.683544,68.2545641 C103.304867,68.3277176 102.872407,68.3642938 102.386152,68.3642938 Z M102.1086,62.1161563 C101.626648,62.1161563 101.240446,62.2689157 100.949984,62.5744391 C100.659521,62.8799625 100.486322,63.3253314 100.430381,63.9105594 L103.670634,63.9105594 C103.662028,63.3210283 103.520026,62.8745835 103.244625,62.5712117 C102.969224,62.2678399 102.590552,62.1161563 102.1086,62.1161563 Z M111.680902,66.2019734 C111.680902,66.8990832 111.42702,67.4337411 110.919248,67.8059633 C110.411477,68.1781855 109.684256,68.3642938 108.737564,68.3642938 C107.786569,68.3642938 107.022772,68.2201405 106.44615,67.9318297 L106.44615,66.6215281 C107.285264,67.0088113 108.066273,67.20245 108.789202,67.20245 C109.722984,67.20245 110.189869,66.9205981 110.189869,66.3568859 C110.189869,66.1761538 110.138232,66.0255459 110.034956,65.9050578 C109.931681,65.7845697 109.761709,65.6597803 109.525036,65.5306859 C109.288363,65.4015915 108.959177,65.2552868 108.537469,65.0917672 C107.715568,64.7733343 107.159394,64.4549063 106.868932,64.1364734 C106.57847,63.8180406 106.433241,63.4049447 106.433241,62.8971734 C106.433241,62.2861266 106.679592,61.8117118 107.172302,61.4739148 C107.665013,61.1361178 108.335218,60.9672219 109.182938,60.9672219 C110.022051,60.9672219 110.81597,61.1371936 111.564717,61.4771422 L111.074161,62.6196219 C110.303898,62.301189 109.656284,62.141975 109.1313,62.141975 C108.330915,62.141975 107.930728,62.3700383 107.930728,62.8261719 C107.930728,63.0499355 108.035078,63.2392711 108.24378,63.3941844 C108.452483,63.5490976 108.907534,63.7621002 109.608947,64.0331984 C110.198478,64.2612652 110.626635,64.4699647 110.89343,64.6593031 C111.160225,64.8486416 111.358167,65.067023 111.487261,65.3144539 C111.616355,65.5618848 111.680902,65.8577217 111.680902,66.2019734 Z M116.941472,68.3642938 C116.037811,68.3642938 115.336409,68.0394111 114.837244,67.3896359 L114.746878,67.3896359 C114.807122,67.9920764 114.837244,68.3578384 114.837244,68.4869328 L114.837244,71.4109063 L113.320392,71.4109063 L113.320392,61.0963156 L114.546783,61.0963156 C114.581208,61.2297132 114.652209,61.5481412 114.759788,62.0516094 L114.837244,62.0516094 C115.31059,61.3286808 116.020598,60.9672219 116.967291,60.9672219 C117.858042,60.9672219 118.551914,61.289953 119.048927,61.935425 C119.545941,62.580897 119.794444,63.4866957 119.794444,64.6528484 C119.794444,65.8190011 119.541638,66.729103 119.036018,67.3831813 C118.530398,68.0372595 117.832223,68.3642938 116.941472,68.3642938 Z M116.573555,62.2065219 C115.971114,62.2065219 115.531124,62.3829482 115.253571,62.7358063 C114.976018,63.0886643 114.837244,63.652368 114.837244,64.4269344 L114.837244,64.6528484 C114.837244,65.522084 114.974942,66.1514098 115.250344,66.5408445 C115.525745,66.9302793 115.975417,67.1249938 116.599373,67.1249938 C117.124357,67.1249938 117.528847,66.9098397 117.812855,66.479525 C118.096862,66.0492103 118.238864,65.4360212 118.238864,64.6399391 C118.238864,63.8395538 118.097938,63.233895 117.816082,62.8229445 C117.534226,62.411994 117.120054,62.2065219 116.573555,62.2065219 Z M123.073425,68.2352 L121.556573,68.2352 L121.556573,61.0963156 L123.073425,61.0963156 L123.073425,68.2352 Z M121.466208,59.2050922 C121.466208,58.933994 121.540436,58.7252945 121.688895,58.5789875 C121.837353,58.4326805 122.04928,58.3595281 122.324681,58.3595281 C122.591476,58.3595281 122.7991,58.4326805 122.947559,58.5789875 C123.096017,58.7252945 123.170245,58.933994 123.170245,59.2050922 C123.170245,59.463281 123.096017,59.6666016 122.947559,59.8150602 C122.7991,59.9635187 122.591476,60.0377469 122.324681,60.0377469 C122.04928,60.0377469 121.837353,59.9635187 121.688895,59.8150602 C121.540436,59.6666016 121.466208,59.463281 121.466208,59.2050922 Z M128.86328,60.9672219 C129.168803,60.9672219 129.420533,60.9887373 129.618478,61.0317688 L129.47002,62.4453453 C129.254863,62.3937076 129.031103,62.3678891 128.798733,62.3678891 C128.191989,62.3678891 127.700362,62.5658308 127.323837,62.9617203 C126.947311,63.3576098 126.759052,63.8718281 126.759052,64.5043906 L126.759052,68.2352 L125.2422,68.2352 L125.2422,61.0963156 L126.429863,61.0963156 L126.629958,62.3549797 L126.707414,62.3549797 C126.944087,61.9289682 127.252833,61.5911762 127.633662,61.3415938 C128.01449,61.0920113 128.424359,60.9672219 128.86328,60.9672219 Z M135.143691,68.2352 L134.84032,67.2411781 L134.788683,67.2411781 C134.444431,67.6757959 134.098033,67.9716328 133.749478,68.1286977 C133.400923,68.2857625 132.953403,68.3642938 132.406903,68.3642938 C131.70549,68.3642938 131.157923,68.1749581 130.764185,67.7962813 C130.370447,67.4176044 130.173581,66.8818707 130.173581,66.1890641 C130.173581,65.453226 130.446827,64.8981284 130.993327,64.5237547 C131.539826,64.1493809 132.372473,63.9449845 133.491291,63.9105594 L134.724136,63.8718313 L134.724136,63.4910047 C134.724136,63.0348712 134.617635,62.6938519 134.404629,62.4679367 C134.191623,62.2420215 133.861362,62.1290656 133.413834,62.1290656 C133.048067,62.1290656 132.697366,62.1828541 132.36172,62.2904328 C132.026075,62.3980115 131.703344,62.5249524 131.393517,62.6712594 L130.902961,61.5868719 C131.290244,61.384624 131.714098,61.2307888 132.174534,61.1253617 C132.634971,61.0199346 133.069582,60.9672219 133.478381,60.9672219 C134.386345,60.9672219 135.071611,61.1651636 135.534199,61.5610531 C135.996787,61.9569426 136.228078,62.5787379 136.228078,63.4264578 L136.228078,68.2352 L135.143691,68.2352 Z M132.88455,67.20245 C133.435353,67.20245 133.877494,67.0486148 134.210988,66.7409398 C134.544482,66.4332649 134.711227,66.0018809 134.711227,65.446775 L134.711227,64.827125 L133.794661,64.8658531 C133.080339,64.891672 132.560741,65.0110825 132.235854,65.2240883 C131.910966,65.437094 131.748525,65.7630525 131.748525,66.2019734 C131.748525,66.5204063 131.843193,66.7667577 132.032531,66.9410352 C132.22187,67.1153126 132.505873,67.20245 132.88455,67.20245 Z M141.004547,67.1379031 C141.374617,67.1379031 141.744683,67.0798115 142.114753,66.9636266 L142.114753,68.1061063 C141.94693,68.1792597 141.730701,68.2405787 141.466057,68.2900648 C141.201414,68.339551 140.927092,68.3642938 140.643084,68.3642938 C139.205833,68.3642938 138.487219,67.6069513 138.487219,66.0922438 L138.487219,62.24525 L137.512561,62.24525 L137.512561,61.5739625 L138.55822,61.0188594 L139.074595,59.5084625 L140.010525,59.5084625 L140.010525,61.0963156 L142.043752,61.0963156 L142.043752,62.24525 L140.010525,62.24525 L140.010525,66.066425 C140.010525,66.4321925 140.101965,66.7022108 140.284849,66.8764883 C140.467733,67.0507657 140.70763,67.1379031 141.004547,67.1379031 Z M149.873288,64.6528484 C149.873288,65.8190011 149.574223,66.729103 148.976086,67.3831813 C148.377949,68.0372595 147.545302,68.3642938 146.478122,68.3642938 C145.811134,68.3642938 145.221612,68.2136859 144.709538,67.9124656 C144.197463,67.6112454 143.803731,67.1787856 143.52833,66.6150734 C143.252928,66.0513612 143.11523,65.3972928 143.11523,64.6528484 C143.11523,63.495302 143.412142,62.5916548 144.005977,61.9418797 C144.599811,61.2921046 145.43676,60.9672219 146.51685,60.9672219 C147.549605,60.9672219 148.367191,61.299635 148.969631,61.9644711 C149.572072,62.6293072 149.873288,63.5254241 149.873288,64.6528484 Z M144.677264,64.6528484 C144.677264,66.3009536 145.28615,67.1249938 146.503941,67.1249938 C147.708822,67.1249938 148.311253,66.3009536 148.311253,64.6528484 C148.311253,63.0219559 147.704519,62.2065219 146.491031,62.2065219 C145.854166,62.2065219 145.39266,62.4173729 145.106501,62.8390813 C144.820342,63.2607896 144.677264,63.8653726 144.677264,64.6528484 Z M155.237133,60.9672219 C155.542656,60.9672219 155.794387,60.9887373 155.992331,61.0317688 L155.843873,62.4453453 C155.628716,62.3937076 155.404956,62.3678891 155.172586,62.3678891 C154.565842,62.3678891 154.074215,62.5658308 153.69769,62.9617203 C153.321165,63.3576098 153.132905,63.8718281 153.132905,64.5043906 L153.132905,68.2352 L151.616053,68.2352 L151.616053,61.0963156 L152.803716,61.0963156 L153.003811,62.3549797 L153.081267,62.3549797 C153.31794,61.9289682 153.626686,61.5911762 154.007515,61.3415938 C154.388343,61.0920113 154.798212,60.9672219 155.237133,60.9672219 Z M156.231155,61.0963156 L157.883555,61.0963156 L159.335859,65.1434047 C159.55532,65.7200263 159.701625,66.2622146 159.774778,66.7699859 L159.826416,66.7699859 C159.865144,66.5333129 159.936145,66.2460822 160.03942,65.9082852 C160.142696,65.5704882 160.689187,63.9665144 161.678911,61.0963156 L163.318402,61.0963156 L160.265334,69.1840391 C159.710228,70.6686246 158.785066,71.4109063 157.489819,71.4109063 C157.154173,71.4109063 156.827139,71.3743301 156.508706,71.3011766 L156.508706,70.1006047 C156.736773,70.1522424 156.997109,70.1780609 157.289723,70.1780609 C158.021258,70.1780609 158.535477,69.7542074 158.832394,68.9064875 L159.097036,68.2352 L156.231155,61.0963156 Z M171.257667,68.2352 L169.714997,68.2352 L169.714997,60.1216578 L166.939481,60.1216578 L166.939481,58.7984469 L174.033183,58.7984469 L174.033183,60.1216578 L171.257667,60.1216578 L171.257667,68.2352 Z M181.598077,68.2352 L180.07477,68.2352 L180.07477,63.8460125 C180.07477,63.2952097 179.963966,62.8842654 179.742354,62.6131672 C179.520742,62.342069 179.168965,62.2065219 178.687013,62.2065219 C178.050147,62.2065219 177.582187,62.3969333 177.283118,62.7777617 C176.984049,63.1585902 176.834517,63.7965221 176.834517,64.6915766 L176.834517,68.2352 L175.317666,68.2352 L175.317666,58.1917063 L176.834517,58.1917063 L176.834517,60.7413078 C176.834517,61.1501067 176.808699,61.5868696 176.757061,62.0516094 L176.853881,62.0516094 C177.060432,61.7073577 177.347663,61.4405666 177.715582,61.2512281 C178.083501,61.0618897 178.512733,60.9672219 179.003292,60.9672219 C180.733157,60.9672219 181.598077,61.838596 181.598077,63.5813703 L181.598077,68.2352 Z M186.826373,68.3642938 C185.716162,68.3642938 184.848015,68.0404868 184.221907,67.3928633 C183.595799,66.7452397 183.28275,65.853426 183.28275,64.7173953 C183.28275,63.5512426 183.573208,62.6346861 184.154133,61.9676984 C184.735058,61.3007107 185.533279,60.9672219 186.548822,60.9672219 C187.491211,60.9672219 188.235644,61.2533768 188.782144,61.8256953 C189.328643,62.3980138 189.601889,63.1854778 189.601889,64.1881109 L189.601889,65.0078563 L184.844784,65.0078563 C184.8663,65.7006628 185.053484,66.2331692 185.406342,66.6053914 C185.7592,66.9776136 186.256206,67.1637219 186.897375,67.1637219 C187.319083,67.1637219 187.71174,67.1239184 188.075355,67.0443102 C188.438971,66.9647019 188.829476,66.8323822 189.246881,66.6473469 L189.246881,67.8801922 C188.876811,68.0566212 188.502443,68.1814106 188.123766,68.2545641 C187.745089,68.3277176 187.312629,68.3642938 186.826373,68.3642938 Z M186.548822,62.1161563 C186.066869,62.1161563 185.680668,62.2689157 185.390205,62.5744391 C185.099743,62.8799625 184.926544,63.3253314 184.870603,63.9105594 L188.110856,63.9105594 C188.10225,63.3210283 187.960248,62.8745835 187.684847,62.5712117 C187.409445,62.2678399 187.030774,62.1161563 186.548822,62.1161563 Z M194.94637,60.9672219 C195.251894,60.9672219 195.503624,60.9887373 195.701569,61.0317688 L195.553111,62.4453453 C195.337954,62.3937076 195.114193,62.3678891 194.881823,62.3678891 C194.27508,62.3678891 193.783453,62.5658308 193.406927,62.9617203 C193.030402,63.3576098 192.842142,63.8718281 192.842142,64.5043906 L192.842142,68.2352 L191.325291,68.2352 L191.325291,61.0963156 L192.512953,61.0963156 L192.713048,62.3549797 L192.790505,62.3549797 C193.027178,61.9289682 193.335924,61.5911762 193.716752,61.3415938 C194.097581,61.0920113 194.507449,60.9672219 194.94637,60.9672219 Z M201.226781,68.2352 L200.923411,67.2411781 L200.871773,67.2411781 C200.527522,67.6757959 200.181124,67.9716328 199.832569,68.1286977 C199.484014,68.2857625 199.036493,68.3642938 198.489994,68.3642938 C197.788581,68.3642938 197.241014,68.1749581 196.847276,67.7962813 C196.453538,67.4176044 196.256672,66.8818707 196.256672,66.1890641 C196.256672,65.453226 196.529918,64.8981284 197.076417,64.5237547 C197.622917,64.1493809 198.455563,63.9449845 199.574381,63.9105594 L200.807227,63.8718313 L200.807227,63.4910047 C200.807227,63.0348712 200.700725,62.6938519 200.48772,62.4679367 C200.274714,62.2420215 199.944452,62.1290656 199.496925,62.1290656 C199.131158,62.1290656 198.780456,62.1828541 198.444811,62.2904328 C198.109166,62.3980115 197.786434,62.5249524 197.476608,62.6712594 L196.986052,61.5868719 C197.373335,61.384624 197.797188,61.2307888 198.257625,61.1253617 C198.718062,61.0199346 199.152673,60.9672219 199.561472,60.9672219 C200.469436,60.9672219 201.154702,61.1651636 201.61729,61.5610531 C202.079878,61.9569426 202.311169,62.5787379 202.311169,63.4264578 L202.311169,68.2352 L201.226781,68.2352 Z M198.967641,67.20245 C199.518443,67.20245 199.960585,67.0486148 200.294079,66.7409398 C200.627573,66.4332649 200.794317,66.0018809 200.794317,65.446775 L200.794317,64.827125 L199.877752,64.8658531 C199.163429,64.891672 198.643832,65.0110825 198.318945,65.2240883 C197.994057,65.437094 197.831616,65.7630525 197.831616,66.2019734 C197.831616,66.5204063 197.926283,66.7667577 198.115622,66.9410352 C198.30496,67.1153126 198.588964,67.20245 198.967641,67.20245 Z M208.049386,68.3642938 C207.145725,68.3642938 206.444323,68.0394111 205.945158,67.3896359 L205.854792,67.3896359 C205.915036,67.9920764 205.945158,68.3578384 205.945158,68.4869328 L205.945158,71.4109063 L204.428306,71.4109063 L204.428306,61.0963156 L205.654697,61.0963156 C205.689122,61.2297132 205.760123,61.5481412 205.867702,62.0516094 L205.945158,62.0516094 C206.418504,61.3286808 207.128512,60.9672219 208.075205,60.9672219 C208.965956,60.9672219 209.659828,61.289953 210.156841,61.935425 C210.653855,62.580897 210.902358,63.4866957 210.902358,64.6528484 C210.902358,65.8190011 210.649552,66.729103 210.143932,67.3831813 C209.638312,68.0372595 208.940137,68.3642938 208.049386,68.3642938 Z M207.681469,62.2065219 C207.079028,62.2065219 206.639038,62.3829482 206.361485,62.7358063 C206.083932,63.0886643 205.945158,63.652368 205.945158,64.4269344 L205.945158,64.6528484 C205.945158,65.522084 206.082856,66.1514098 206.358258,66.5408445 C206.633659,66.9302793 207.083331,67.1249938 207.707288,67.1249938 C208.232271,67.1249938 208.636761,66.9098397 208.920769,66.479525 C209.204776,66.0492103 209.346778,65.4360212 209.346778,64.6399391 C209.346778,63.8395538 209.205852,63.233895 208.923996,62.8229445 C208.64214,62.411994 208.227968,62.2065219 207.681469,62.2065219 Z M214.181339,68.2352 L212.664488,68.2352 L212.664488,61.0963156 L214.181339,61.0963156 L214.181339,68.2352 Z M212.574122,59.2050922 C212.574122,58.933994 212.64835,58.7252945 212.796809,58.5789875 C212.945267,58.4326805 213.157194,58.3595281 213.432595,58.3595281 C213.69939,58.3595281 213.907014,58.4326805 214.055473,58.5789875 C214.203931,58.7252945 214.278159,58.933994 214.278159,59.2050922 C214.278159,59.463281 214.203931,59.6666016 214.055473,59.8150602 C213.907014,59.9635187 213.69939,60.0377469 213.432595,60.0377469 C213.157194,60.0377469 212.945267,59.9635187 212.796809,59.8150602 C212.64835,59.6666016 212.574122,59.463281 212.574122,59.2050922 Z M221.145947,66.2019734 C221.145947,66.8990832 220.892065,67.4337411 220.384294,67.8059633 C219.876522,68.1781855 219.149302,68.3642938 218.202609,68.3642938 C217.251614,68.3642938 216.487817,68.2201405 215.911195,67.9318297 L215.911195,66.6215281 C216.750309,67.0088113 217.531318,67.20245 218.254247,67.20245 C219.18803,67.20245 219.654914,66.9205981 219.654914,66.3568859 C219.654914,66.1761538 219.603277,66.0255459 219.500002,65.9050578 C219.396726,65.7845697 219.226754,65.6597803 218.990081,65.5306859 C218.753408,65.4015915 218.424222,65.2552868 218.002514,65.0917672 C217.180613,64.7733343 216.62444,64.4549063 216.333977,64.1364734 C216.043515,63.8180406 215.898286,63.4049447 215.898286,62.8971734 C215.898286,62.2861266 216.144637,61.8117118 216.637348,61.4739148 C217.130058,61.1361178 217.800263,60.9672219 218.647983,60.9672219 C219.487096,60.9672219 220.281015,61.1371936 221.029763,61.4771422 L220.539206,62.6196219 C219.768943,62.301189 219.121329,62.141975 218.596345,62.141975 C217.79596,62.141975 217.395773,62.3700383 217.395773,62.8261719 C217.395773,63.0499355 217.500123,63.2392711 217.708826,63.3941844 C217.917528,63.5490976 218.372579,63.7621002 219.073992,64.0331984 C219.663523,64.2612652 220.09168,64.4699647 220.358475,64.6593031 C220.62527,64.8486416 220.823212,65.067023 220.952306,65.3144539 C221.081401,65.5618848 221.145947,65.8577217 221.145947,66.2019734 Z M225.444769,67.1379031 C225.814839,67.1379031 226.184904,67.0798115 226.554975,66.9636266 L226.554975,68.1061063 C226.387152,68.1792597 226.170922,68.2405787 225.906279,68.2900648 C225.641635,68.339551 225.367314,68.3642938 225.083306,68.3642938 C223.646055,68.3642938 222.927441,67.6069513 222.927441,66.0922438 L222.927441,62.24525 L221.952783,62.24525 L221.952783,61.5739625 L222.998442,61.0188594 L223.514817,59.5084625 L224.450747,59.5084625 L224.450747,61.0963156 L226.483973,61.0963156 L226.483973,62.24525 L224.450747,62.24525 L224.450747,66.066425 C224.450747,66.4321925 224.542187,66.7022108 224.725071,66.8764883 C224.907955,67.0507657 225.147852,67.1379031 225.444769,67.1379031 Z" id="RegisteredRespiratoryTherapist" fill="#282E2E" fill-rule="nonzero"></path>
                        <path d="M20.6344969,84.7761 L20.6344969,88.008 L19.7308406,88.008 L19.7308406,80.2365562 L21.8624063,80.2365562 C22.8156798,80.2365562 23.519993,80.4190575 23.9753672,80.7840656 C24.4307413,81.1490737 24.658425,81.6983495 24.658425,82.4319094 C24.658425,83.459602 24.137499,84.1541701 23.0956313,84.5156344 L25.2059344,88.008 L24.1374938,88.008 L22.2557625,84.7761 L20.6344969,84.7761 Z M20.6344969,84.0000187 L21.8730375,84.0000187 C22.5109157,84.0000187 22.978686,83.873331 23.2763625,83.6199516 C23.574039,83.3665722 23.722875,82.9865088 23.722875,82.47975 C23.722875,81.9659037 23.5713812,81.5955855 23.2683891,81.3687844 C22.9653969,81.1419832 22.4790221,81.0285844 21.80925,81.0285844 L20.6344969,81.0285844 L20.6344969,84.0000187 Z M28.8524531,88.008 L27.9487969,88.008 L27.9487969,81.0392156 L25.4876625,81.0392156 L25.4876625,80.2365562 L31.3135875,80.2365562 L31.3135875,81.0392156 L28.8524531,81.0392156 L28.8524531,88.008 Z M39.5900156,82.0651312 C39.5900156,82.5612587 39.4509248,82.967014 39.1727391,83.2824094 C38.8945533,83.5978047 38.5003151,83.8086557 37.9900125,83.9149687 L37.9900125,83.9574937 C38.6137156,84.0354566 39.0761704,84.2339047 39.3773906,84.5528437 C39.6786109,84.8717828 39.8292188,85.2899412 39.8292188,85.8073312 C39.8292188,86.5479787 39.5722994,87.1176308 39.0584531,87.5163047 C38.5446068,87.9149786 37.8146016,88.1143125 36.8684156,88.1143125 C36.4573386,88.1143125 36.0808189,88.083305 35.7388453,88.0212891 C35.3968717,87.9592731 35.0646485,87.8503039 34.7421656,87.6943781 L34.7421656,86.8545094 C35.0788236,87.0210665 35.4376247,87.1477543 35.8185797,87.2345766 C36.1995347,87.3213989 36.5601077,87.3648094 36.9003094,87.3648094 C38.2433973,87.3648094 38.9149313,86.8385678 38.9149313,85.7860687 C38.9149313,84.8434265 38.1742949,84.3721125 36.693,84.3721125 L35.92755,84.3721125 L35.92755,83.6119781 L36.7036313,83.6119781 C37.3096155,83.6119781 37.7897889,83.4782029 38.1441656,83.2106484 C38.4985424,82.943094 38.6757281,82.5718899 38.6757281,82.097025 C38.6757281,81.7178419 38.5454966,81.4201698 38.2850297,81.204 C38.0245628,80.9878302 37.6710772,80.8797469 37.2245625,80.8797469 C36.8843608,80.8797469 36.5636546,80.9258152 36.2624344,81.0179531 C35.9612141,81.1100911 35.6174738,81.2801894 35.2312031,81.5282531 L34.7846906,80.9329031 C35.1036297,80.6812956 35.4712901,80.4837335 35.8876828,80.3402109 C36.3040755,80.1966883 36.7426102,80.1249281 37.2033,80.1249281 C37.9581225,80.1249281 38.5446073,80.2976842 38.9627719,80.6432016 C39.3809365,80.9887189 39.5900156,81.4626907 39.5900156,82.0651312 Z M45.8146125,82.0651312 C45.8146125,82.5612587 45.6755217,82.967014 45.3973359,83.2824094 C45.1191502,83.5978047 44.7249119,83.8086557 44.2146094,83.9149687 L44.2146094,83.9574937 C44.8383125,84.0354566 45.3007672,84.2339047 45.6019875,84.5528437 C45.9032078,84.8717828 46.0538156,85.2899412 46.0538156,85.8073312 C46.0538156,86.5479787 45.7968963,87.1176308 45.28305,87.5163047 C44.7692037,87.9149786 44.0391985,88.1143125 43.0930125,88.1143125 C42.6819354,88.1143125 42.3054158,88.083305 41.9634422,88.0212891 C41.6214686,87.9592731 41.2892454,87.8503039 40.9667625,87.6943781 L40.9667625,86.8545094 C41.3034204,87.0210665 41.6622215,87.1477543 42.0431766,87.2345766 C42.4241316,87.3213989 42.7847045,87.3648094 43.1249063,87.3648094 C44.4679942,87.3648094 45.1395281,86.8385678 45.1395281,85.7860687 C45.1395281,84.8434265 44.3988918,84.3721125 42.9175969,84.3721125 L42.1521469,84.3721125 L42.1521469,83.6119781 L42.9282281,83.6119781 C43.5342124,83.6119781 44.0143857,83.4782029 44.3687625,83.2106484 C44.7231393,82.943094 44.900325,82.5718899 44.900325,82.097025 C44.900325,81.7178419 44.7700935,81.4201698 44.5096266,81.204 C44.2491596,80.9878302 43.8956741,80.8797469 43.4491594,80.8797469 C43.1089577,80.8797469 42.7882515,80.9258152 42.4870313,81.0179531 C42.185811,81.1100911 41.8420707,81.2801894 41.4558,81.5282531 L41.0092875,80.9329031 C41.3282266,80.6812956 41.695887,80.4837335 42.1122797,80.3402109 C42.5286724,80.1966883 42.9672071,80.1249281 43.4278969,80.1249281 C44.1827194,80.1249281 44.7692042,80.2976842 45.1873688,80.6432016 C45.6055333,80.9887189 45.8146125,81.4626907 45.8146125,82.0651312 Z M52.6983469,86.22195 L51.5448563,86.22195 L51.5448563,88.008 L50.6996719,88.008 L50.6996719,86.22195 L46.9202625,86.22195 L46.9202625,85.4511844 L50.6093063,80.1940312 L51.5448563,80.1940312 L51.5448563,85.4192906 L52.6983469,85.4192906 L52.6983469,86.22195 Z M50.6996719,85.4192906 L50.6996719,82.8358969 C50.6996719,82.3291381 50.7173904,81.7568282 50.7528281,81.11895 L50.7103031,81.11895 C50.5402023,81.4591517 50.3807351,81.740877 50.2318969,81.9641344 L47.8026563,85.4192906 L50.6996719,85.4192906 Z M58.9229438,86.22195 L57.7694531,86.22195 L57.7694531,88.008 L56.9242688,88.008 L56.9242688,86.22195 L53.1448594,86.22195 L53.1448594,85.4511844 L56.8339031,80.1940312 L57.7694531,80.1940312 L57.7694531,85.4192906 L58.9229438,85.4192906 L58.9229438,86.22195 Z M56.9242688,85.4192906 L56.9242688,82.8358969 C56.9242688,82.3291381 56.9419873,81.7568282 56.977425,81.11895 L56.9349,81.11895 C56.7647991,81.4591517 56.605332,81.740877 56.4564938,81.9641344 L54.0272531,85.4192906 L56.9242688,85.4192906 Z M65.1475406,86.22195 L63.99405,86.22195 L63.99405,88.008 L63.1488656,88.008 L63.1488656,86.22195 L59.3694563,86.22195 L59.3694563,85.4511844 L63.0585,80.1940312 L63.99405,80.1940312 L63.99405,85.4192906 L65.1475406,85.4192906 L65.1475406,86.22195 Z M63.1488656,85.4192906 L63.1488656,82.8358969 C63.1488656,82.3291381 63.1665842,81.7568282 63.2020219,81.11895 L63.1594969,81.11895 C62.989396,81.4591517 62.8299289,81.740877 62.6810906,81.9641344 L60.25185,85.4192906 L63.1488656,85.4192906 Z M68.3262844,83.2611469 C69.1448947,83.2611469 69.7889648,83.4640245 70.2585141,83.8697859 C70.7280633,84.2755473 70.9628344,84.8310246 70.9628344,85.5362344 C70.9628344,86.3406696 70.706801,86.9714508 70.1947266,87.4285969 C69.6826521,87.8857429 68.976567,88.1143125 68.07645,88.1143125 C67.2011394,88.1143125 66.5331492,87.9743358 66.0724594,87.6943781 L66.0724594,86.8438781 C66.3205231,87.0033477 66.6288263,87.1282636 66.9973781,87.2186297 C67.36593,87.3089958 67.7291607,87.3541781 68.0870813,87.3541781 C68.7107844,87.3541781 69.1953873,87.207114 69.5409047,86.9129813 C69.886422,86.6188485 70.0591781,86.1936028 70.0591781,85.6372312 C70.0591781,84.5528383 69.3947316,84.01065 68.0658188,84.01065 C67.7291608,84.01065 67.2791091,84.0620339 66.71565,84.1648031 L66.2585063,83.8724438 L66.5508656,80.2365562 L70.415325,80.2365562 L70.415325,81.0498469 L67.3056844,81.0498469 L67.1090063,83.3834062 C67.5165395,83.3018996 67.9222949,83.2611469 68.3262844,83.2611469 Z M74.5508813,83.2611469 C75.3694916,83.2611469 76.0135617,83.4640245 76.4831109,83.8697859 C76.9526602,84.2755473 77.1874313,84.8310246 77.1874313,85.5362344 C77.1874313,86.3406696 76.9313979,86.9714508 76.4193234,87.4285969 C75.907249,87.8857429 75.2011639,88.1143125 74.3010469,88.1143125 C73.4257362,88.1143125 72.7577461,87.9743358 72.2970563,87.6943781 L72.2970563,86.8438781 C72.54512,87.0033477 72.8534232,87.1282636 73.221975,87.2186297 C73.5905268,87.3089958 73.9537576,87.3541781 74.3116781,87.3541781 C74.9353812,87.3541781 75.4199842,87.207114 75.7655016,86.9129813 C76.1110189,86.6188485 76.283775,86.1936028 76.283775,85.6372312 C76.283775,84.5528383 75.6193285,84.01065 74.2904156,84.01065 C73.9537577,84.01065 73.5037059,84.0620339 72.9402469,84.1648031 L72.4831031,83.8724438 L72.7754625,80.2365562 L76.6399219,80.2365562 L76.6399219,81.0498469 L73.5302813,81.0498469 L73.3336031,83.3834062 C73.7411364,83.3018996 74.1468917,83.2611469 74.5508813,83.2611469 Z M78.4366031,84.6857344 C78.4366031,83.1583705 78.7333892,82.0164085 79.3269703,81.2598141 C79.9205514,80.5032197 80.7985067,80.1249281 81.9608625,80.1249281 C82.3613083,80.1249281 82.6766988,80.1585934 82.9070438,80.225925 L82.9070438,80.9860594 C82.6341736,80.8974652 82.3223268,80.8531687 81.9714938,80.8531687 C81.1387083,80.8531687 80.5026116,81.1127458 80.0631844,81.6319078 C79.6237572,82.1510698 79.3827846,82.9670101 79.3402594,84.0797531 L79.4040469,84.0797531 C79.7938613,83.4702251 80.4104677,83.1654656 81.2538844,83.1654656 C81.9520066,83.1654656 82.5021683,83.3763166 82.9043859,83.798025 C83.3066036,84.2197334 83.5077094,84.7920433 83.5077094,85.5149719 C83.5077094,86.3229509 83.2871131,86.9581618 82.8459141,87.4206234 C82.404715,87.8830851 81.808485,88.1143125 81.0572063,88.1143125 C80.252771,88.1143125 79.6149024,87.8122108 79.1435813,87.2079984 C78.6722601,86.603786 78.4366031,85.7630398 78.4366031,84.6857344 Z M81.046575,87.3648094 C81.54979,87.3648094 81.9404845,87.2062281 82.2186703,86.8890609 C82.4968561,86.5718937 82.6359469,86.1138686 82.6359469,85.5149719 C82.6359469,85.0011256 82.5066013,84.5971421 82.2479063,84.3030094 C81.9892112,84.0088767 81.6029463,83.8618125 81.0891,83.8618125 C80.7701609,83.8618125 80.4778045,83.9273712 80.2120219,84.0584906 C79.9462393,84.18961 79.7345024,84.3703395 79.5768047,84.6006844 C79.419107,84.8310293 79.3402594,85.07023 79.3402594,85.3182937 C79.3402594,85.6833018 79.4111337,86.0234984 79.5528844,86.3388937 C79.6946351,86.6542891 79.8957409,86.904121 80.1562078,87.0883969 C80.4166747,87.2726728 80.7134608,87.3648094 81.046575,87.3648094 Z M84.6612,84.6857344 C84.6612,83.1583705 84.9579861,82.0164085 85.5515672,81.2598141 C86.1451483,80.5032197 87.0231036,80.1249281 88.1854594,80.1249281 C88.5859051,80.1249281 88.9012957,80.1585934 89.1316406,80.225925 L89.1316406,80.9860594 C88.8587705,80.8974652 88.5469236,80.8531687 88.1960906,80.8531687 C87.3633052,80.8531687 86.7272084,81.1127458 86.2877813,81.6319078 C85.8483541,82.1510698 85.6073815,82.9670101 85.5648563,84.0797531 L85.6286438,84.0797531 C86.0184582,83.4702251 86.6350645,83.1654656 87.4784813,83.1654656 C88.1766035,83.1654656 88.7267652,83.3763166 89.1289828,83.798025 C89.5312004,84.2197334 89.7323063,84.7920433 89.7323063,85.5149719 C89.7323063,86.3229509 89.51171,86.9581618 89.0705109,87.4206234 C88.6293119,87.8830851 88.0330819,88.1143125 87.2818031,88.1143125 C86.4773679,88.1143125 85.8394992,87.8122108 85.3681781,87.2079984 C84.896857,86.603786 84.6612,85.7630398 84.6612,84.6857344 Z M87.2711719,87.3648094 C87.7743869,87.3648094 88.1650814,87.2062281 88.4432672,86.8890609 C88.721453,86.5718937 88.8605438,86.1138686 88.8605438,85.5149719 C88.8605438,85.0011256 88.7311982,84.5971421 88.4725031,84.3030094 C88.2138081,84.0088767 87.8275432,83.8618125 87.3136969,83.8618125 C86.9947578,83.8618125 86.7024013,83.9273712 86.4366188,84.0584906 C86.1708362,84.18961 85.9590992,84.3703395 85.8014016,84.6006844 C85.6437039,84.8310293 85.5648563,85.07023 85.5648563,85.3182937 C85.5648563,85.6833018 85.6357305,86.0234984 85.7774813,86.3388937 C85.919232,86.6542891 86.1203378,86.904121 86.3808047,87.0883969 C86.6412716,87.2726728 86.9380577,87.3648094 87.2711719,87.3648094 Z" id="RT334445566" fill="#4B5353" fill-rule="nonzero"></path>
                        <polygon id="Line-9" fill="#E6E8EC" fill-rule="nonzero" points="21.384 43.848 21.384 43.0704 256.814729 43.0704 256.814729 43.848"></polygon>
                    </g>
                    <path d="M174.1824,134.4384 C173.323487,134.4384 172.6272,135.134687 172.6272,135.9936 L172.6272,156.9888 C172.6272,157.847713 173.323487,158.544 174.1824,158.544 L279.936,158.544 C280.794913,158.544 281.4912,157.847713 281.4912,156.9888 L281.4912,135.9936 C281.4912,135.134687 280.794913,134.4384 279.936,134.4384 L174.1824,134.4384 Z M174.1824,133.6608 L279.936,133.6608 C281.22437,133.6608 282.2688,134.70523 282.2688,135.9936 L282.2688,156.9888 C282.2688,158.27717 281.22437,159.3216 279.936,159.3216 L174.1824,159.3216 C172.89403,159.3216 171.8496,158.27717 171.8496,156.9888 L171.8496,135.9936 C171.8496,134.70523 172.89403,133.6608 174.1824,133.6608 Z" id="Rectangle" fill="#E9E9E9" fill-rule="nonzero"></path>
                    <path d="M185.276109,150.8816 L183.538659,145.22008 L183.494236,145.22008 C183.556758,146.371804 183.588019,147.140157 183.588019,147.525162 L183.588019,150.8816 L182.220764,150.8816 L182.220764,143.665259 L184.30373,143.665259 L186.011564,149.183638 L186.04118,149.183638 L187.852669,143.665259 L189.935634,143.665259 L189.935634,150.8816 L188.509148,150.8816 L188.509148,147.465931 C188.509148,147.30469 188.511616,147.118771 188.516552,146.90817 C188.521488,146.697569 188.5437,146.138169 188.583188,145.229952 L188.538764,145.229952 L186.677916,150.8816 L185.276109,150.8816 Z M195.908119,150.8816 L191.752059,150.8816 L191.752059,143.665259 L195.908119,143.665259 L195.908119,144.918987 L193.2822,144.918987 L193.2822,146.503423 L195.725489,146.503423 L195.725489,147.757152 L193.2822,147.757152 L193.2822,149.618 L195.908119,149.618 L195.908119,150.8816 Z M203.400872,147.204327 C203.400872,148.392248 203.062764,149.302097 202.386537,149.9339 C201.71031,150.565703 200.733827,150.8816 199.457058,150.8816 L197.41358,150.8816 L197.41358,143.665259 L199.679175,143.665259 C200.857225,143.665259 201.772009,143.97622 202.423556,144.598152 C203.075103,145.220083 203.400872,146.088799 203.400872,147.204327 Z M201.8115,147.243814 C201.8115,145.693922 201.127057,144.918987 199.75815,144.918987 L198.94372,144.918987 L198.94372,149.618 L199.6002,149.618 C201.074407,149.618 201.8115,148.826613 201.8115,147.243814 Z M204.896461,150.8816 L204.896461,143.665259 L206.426602,143.665259 L206.426602,150.8816 L204.896461,150.8816 Z M211.308244,144.835077 C210.732381,144.835077 210.286506,145.051433 209.970605,145.484152 C209.654703,145.916872 209.496755,146.519873 209.496755,147.293173 C209.496755,148.902297 210.100578,149.706847 211.308244,149.706847 C211.815003,149.706847 212.428698,149.580159 213.149348,149.32678 L213.149348,150.610123 C212.557033,150.856922 211.895624,150.980319 211.165102,150.980319 C210.115387,150.980319 209.312482,150.661954 208.756364,150.025215 C208.200246,149.388476 207.922191,148.474514 207.922191,147.283302 C207.922191,146.533035 208.05875,145.87574 208.331873,145.311395 C208.604997,144.74705 208.9974,144.314337 209.509095,144.013243 C210.020789,143.712149 210.6205,143.561605 211.308244,143.561605 C212.00915,143.561605 212.713337,143.73107 213.420825,144.070006 L212.927231,145.313862 C212.657399,145.185527 212.385925,145.073647 212.112802,144.978219 C211.839678,144.88279 211.571495,144.835077 211.308244,144.835077 Z M219.102089,150.8816 L218.57888,149.163894 L215.948025,149.163894 L215.424816,150.8816 L213.776213,150.8816 L216.323156,143.635644 L218.193877,143.635644 L220.750692,150.8816 L219.102089,150.8816 Z M218.21362,147.88055 C217.729896,146.324077 217.4576,145.443843 217.396723,145.239823 C217.335846,145.035804 217.292245,144.874565 217.26592,144.756102 C217.157329,145.177304 216.846368,146.218776 216.333028,147.88055 L218.21362,147.88055 Z M221.658905,150.8816 L221.658905,143.665259 L223.189045,143.665259 L223.189045,149.618 L226.116056,149.618 L226.116056,150.8816 L221.658905,150.8816 Z M229.995703,150.8816 L229.995703,143.665259 L231.525844,143.665259 L231.525844,149.618 L234.452855,149.618 L234.452855,150.8816 L229.995703,150.8816 Z M235.706583,150.8816 L235.706583,143.665259 L237.236723,143.665259 L237.236723,150.8816 L235.706583,150.8816 Z M242.118366,144.835077 C241.542503,144.835077 241.096628,145.051433 240.780727,145.484152 C240.464825,145.916872 240.306877,146.519873 240.306877,147.293173 C240.306877,148.902297 240.9107,149.706847 242.118366,149.706847 C242.625124,149.706847 243.23882,149.580159 243.95947,149.32678 L243.95947,150.610123 C243.367155,150.856922 242.705746,150.980319 241.975223,150.980319 C240.925509,150.980319 240.122604,150.661954 239.566486,150.025215 C239.010368,149.388476 238.732313,148.474514 238.732313,147.283302 C238.732313,146.533035 238.868872,145.87574 239.141995,145.311395 C239.415119,144.74705 239.807522,144.314337 240.319216,144.013243 C240.830911,143.712149 241.430622,143.561605 242.118366,143.561605 C242.819272,143.561605 243.523459,143.73107 244.230947,144.070006 L243.737353,145.313862 C243.467521,145.185527 243.196047,145.073647 242.922923,144.978219 C242.6498,144.88279 242.381617,144.835077 242.118366,144.835077 Z M249.650606,150.8816 L245.494547,150.8816 L245.494547,143.665259 L249.650606,143.665259 L249.650606,144.918987 L247.024688,144.918987 L247.024688,146.503423 L249.467977,146.503423 L249.467977,147.757152 L247.024688,147.757152 L247.024688,149.618 L249.650606,149.618 L249.650606,150.8816 Z M257.557978,150.8816 L255.613219,150.8816 L252.473963,145.422453 L252.429539,145.422453 C252.492061,146.386611 252.523322,147.074345 252.523322,147.485675 L252.523322,150.8816 L251.156067,150.8816 L251.156067,143.665259 L253.086019,143.665259 L256.220339,149.070111 L256.254891,149.070111 C256.205531,148.132278 256.180852,147.469224 256.180852,147.080928 L256.180852,143.665259 L257.557978,143.665259 L257.557978,150.8816 Z M263.634117,148.877609 C263.634117,149.529156 263.399663,150.042489 262.930746,150.417622 C262.46183,150.792755 261.80947,150.980319 260.973647,150.980319 C260.203637,150.980319 259.522484,150.835533 258.930169,150.545956 L258.930169,149.124406 C259.417184,149.341589 259.82933,149.494601 260.166621,149.583448 C260.503912,149.672296 260.812405,149.716719 261.092109,149.716719 C261.427755,149.716719 261.685244,149.652552 261.864584,149.524217 C262.043924,149.395882 262.133592,149.205028 262.133592,148.951648 C262.133592,148.810151 262.094105,148.684286 262.01513,148.574049 C261.936154,148.463813 261.820161,148.357691 261.667146,148.255681 C261.514131,148.153671 261.202348,147.990787 260.731786,147.767023 C260.29084,147.559713 259.960135,147.360632 259.739663,147.169775 C259.51919,146.978918 259.343143,146.756803 259.211517,146.503423 C259.079892,146.250044 259.01408,145.953891 259.01408,145.614955 C259.01408,144.97657 259.230436,144.474755 259.663155,144.109494 C260.095875,143.744233 260.69394,143.561605 261.457369,143.561605 C261.832502,143.561605 262.190354,143.606028 262.530935,143.694875 C262.871517,143.783722 263.227723,143.908765 263.599566,144.070006 L263.105972,145.259567 C262.720967,145.101616 262.402602,144.991382 262.150868,144.928859 C261.899134,144.866337 261.651517,144.835077 261.408009,144.835077 C261.118433,144.835077 260.896318,144.902534 260.741658,145.03745 C260.586998,145.172366 260.509669,145.348413 260.509669,145.565595 C260.509669,145.700512 260.540929,145.81815 260.603452,145.918515 C260.665974,146.018879 260.765514,146.115952 260.902076,146.209735 C261.038637,146.303518 261.361938,146.472161 261.871988,146.715669 C262.546569,147.038152 263.008897,147.361452 263.258986,147.68558 C263.509075,148.009709 263.634117,148.407048 263.634117,148.877609 Z M269.0982,150.8816 L264.942141,150.8816 L264.942141,143.665259 L269.0982,143.665259 L269.0982,144.918987 L266.472281,144.918987 L266.472281,146.503423 L268.91557,146.503423 L268.91557,147.757152 L266.472281,147.757152 L266.472281,149.618 L269.0982,149.618 L269.0982,150.8816 Z" id="MEDICALLICENSE" fill="#455959" fill-rule="nonzero"></path>
                </g>
                <rect id="Rectangle" fill="#E6E7E8" x="22.32" y="138.24" width="33.84" height="5.76"></rect>
                <rect id="Rectangle" fill="#E6E7E8" x="66.96" y="138.24" width="88.56" height="5.76"></rect>
                <rect id="Rectangle" fill="#E6E7E8" x="22.32" y="149.04" width="33.84" height="5.76"></rect>
                <rect id="Rectangle" fill="#E6E7E8" x="66.96" y="149.04" width="53.28" height="5.76"></rect>
            </g>
        </g>
    </g>
</svg>