<?xml version="1.0" encoding="UTF-8"?>
<svg width="146px" height="147px" viewBox="0 0 146 147" version="1.1" xmlns="http://www.w3.org/2000/svg" xmlns:xlink="http://www.w3.org/1999/xlink">
    <!-- Generator: Sketch 53.2 (72643) - https://sketchapp.com -->
    <title>Group 5</title>
    <desc>Created with Sketch.</desc>
    <g id="Page-3" stroke="none" stroke-width="1" fill="none" fill-rule="evenodd">
        <g id="Group-5">
            <g id="Page-1" fill="#F7FBFF" opacity="0.883231027">
                <g id="Group-3" transform="translate(0.000000, 0.154252)">
                    <path d="M0.0129778456,73.2293779 C0.0129778456,113.545942 32.6948619,146.227826 73.0114261,146.227826 C113.32799,146.227826 146.009874,113.545942 146.009874,73.2293779 C146.009874,32.9128138 113.32799,0.230929673 73.0114261,0.230929673 C32.6948619,0.230929673 0.0129778456,32.9128138 0.0129778456,73.2293779" id="Fill-1"></path>
                </g>
            </g>
            <g id="Group-4" transform="translate(24.257868, 28.873807)">
                <g id="Group-11">
                    <path d="M87.3183587,59.218129 L82.605873,59.218129 C80.0032669,59.218129 77.8681192,57.0892983 77.8681192,54.4866922 L77.8681192,39.7807046 C77.8681192,37.1780986 80.0032669,35.0492679 82.605873,35.0492679 L87.3183587,35.0492679 C89.9272817,35.0492679 92.0561124,37.1780986 92.0561124,39.7807046 L92.0561124,54.4866922 C92.0561124,57.0892983 89.9272817,59.218129 87.3183587,59.218129" id="Fill-4" fill="#00E4A6"></path>
                    <path d="M87.3183587,59.218129 L82.605873,59.218129 C80.0032669,59.218129 77.8681192,57.0892983 77.8681192,54.4866922 L77.8681192,53.2990953 C77.8681192,50.6964892 80.0032669,48.5676586 82.605873,48.5676586 L87.3183587,48.5676586 C89.9272817,48.5676586 92.0561124,50.6964892 92.0561124,53.2990953 L92.0561124,54.4866922 C92.0561124,57.0892983 89.9272817,59.218129 87.3183587,59.218129" id="Fill-6" fill="#00B583"></path>
                    <polygon id="Fill-8" fill="#00B583" points="80.6065409 28.8484958 17.1332748 53.3205731 6.90604375 26.7891522 70.3793098 2.32339188"></polygon>
                    <path d="M12.9520492,72.8085335 L75.5346176,72.8085335 C81.8958416,72.8085335 87.0947367,67.6033214 87.0947367,61.2484144 L87.0947367,30.42143 C87.0947367,24.060206 81.8958416,18.8549939 75.5346176,18.8549939 L12.9520492,18.8549939 C6.5908252,18.8549939 1.3919301,24.060206 1.3919301,30.42143 L1.3919301,61.2484144 C1.3919301,67.6033214 6.5908252,72.8085335 12.9520492,72.8085335" id="Fill-10" fill="#00CA93"></path>
                    <path d="M48.2318904,53.8050874 C45.193411,56.8372498 40.2535131,56.8372498 37.2150337,53.8050874 C34.1828713,50.772925 34.1828713,45.8267101 37.2213507,42.7945477 C38.7058468,41.3037345 40.6830694,40.4951579 42.8245341,40.5141089 L47.1200975,40.5141089 L41.460061,46.1741454 L44.8459757,49.566377 L56.2860717,38.126281 L44.8459757,26.692502 L41.460061,30.0784167 L47.1011465,35.7258191 L42.8434851,35.7258191 L42.723462,35.7258191 C39.3628154,35.7258191 36.2106299,37.0271222 33.829119,39.408633 C28.9271231,44.3106289 28.9271231,52.2890062 33.829119,57.1910021 C36.2801169,59.642 39.5017895,60.873816 42.723462,60.873816 C45.9451345,60.873816 49.1668071,59.642 51.617805,57.1910021 C53.9929989,54.8158082 55.3006189,51.6573057 55.3006189,48.296659 L50.5123291,48.296659 C50.5123291,50.3812707 49.6974355,52.3332252 48.2318904,53.8050874" id="Fill-12" fill="#FFFFFF"></path>
                    <polygon id="Fill-14" fill="#00E4A6" points="65.926453 48.5670269 87.0947367 48.5670269 87.0947367 35.3644864 65.926453 35.3644864"></polygon>
                    <path d="M78.7310221,41.4761888 C78.7310221,42.7522238 77.7013503,43.7818956 76.4253153,43.7818956 C75.1555973,43.7818956 74.1259255,42.7522238 74.1259255,41.4761888 C74.1259255,40.2064708 75.1555973,39.1704819 76.4253153,39.1704819 C77.7013503,39.1704819 78.7310221,40.2064708 78.7310221,41.4761888" id="Fill-16" fill="#FFFFFF"></path>
                </g>
            </g>
        </g>
    </g>
</svg>